  0
SECTION
  2
HEADER
  9
$ACADVER
  1
AC1027
  9
$ACADMAINTVER
 70
   105
  9
$DWGCODEPAGE
  3
ANSI_1252
  9
$LASTSAVEDBY
  1
pier
  9
$REQUIREDVERSIONS
160
                 0
  9
$INSBASE
 10
0.0
 20
0.0
 30
0.0
  9
$EXTMIN
 10
3.120000000000003
 20
3.930000000000035
 30
0.0
  9
$EXTMAX
 10
118.45
 20
71.00000000000004
 30
0.0
  9
$LIMMIN
 10
0.0
 20
0.0
  9
$LIMMAX
 10
12.0
 20
9.0
  9
$ORTHOMODE
 70
     0
  9
$REGENMODE
 70
     1
  9
$FILLMODE
 70
     1
  9
$QTEXTMODE
 70
     0
  9
$MIRRTEXT
 70
     1
  9
$LTSCALE
 40
1.0
  9
$ATTMODE
 70
     1
  9
$TEXTSIZE
 40
2.5
  9
$TRACEWID
 40
0.05
  9
$TEXTSTYLE
  7
Standard
  9
$CLAYER
  8
0
  9
$CELTYPE
  6
ByLayer
  9
$CECOLOR
 62
   256
  9
$CELTSCALE
 40
1.0
  9
$DISPSILH
 70
     0
  9
$DIMSCALE
 40
1.0
  9
$DIMASZ
 40
2.5
  9
$DIMEXO
 40
0.625
  9
$DIMDLI
 40
0.38
  9
$DIMRND
 40
0.0
  9
$DIMDLE
 40
0.0
  9
$DIMEXE
 40
1.25
  9
$DIMTP
 40
0.0
  9
$DIMTM
 40
0.0
  9
$DIMTXT
 40
2.5
  9
$DIMCEN
 40
0.09
  9
$DIMTSZ
 40
0.0
  9
$DIMTOL
 70
     0
  9
$DIMLIM
 70
     0
  9
$DIMTIH
 70
     1
  9
$DIMTOH
 70
     1
  9
$DIMSE1
 70
     0
  9
$DIMSE2
 70
     0
  9
$DIMTAD
 70
     0
  9
$DIMZIN
 70
     8
  9
$DIMBLK
  1

  9
$DIMASO
 70
     1
  9
$DIMSHO
 70
     1
  9
$DIMPOST
  1

  9
$DIMAPOST
  1

  9
$DIMALT
 70
     0
  9
$DIMALTD
 70
     2
  9
$DIMALTF
 40
25.4
  9
$DIMLFAC
 40
1.0
  9
$DIMTOFL
 70
     0
  9
$DIMTVP
 40
0.0
  9
$DIMTIX
 70
     0
  9
$DIMSOXD
 70
     0
  9
$DIMSAH
 70
     0
  9
$DIMBLK1
  1

  9
$DIMBLK2
  1

  9
$DIMSTYLE
  2
Standard
  9
$DIMCLRD
 70
     0
  9
$DIMCLRE
 70
     0
  9
$DIMCLRT
 70
     0
  9
$DIMTFAC
 40
1.0
  9
$DIMGAP
 40
0.625
  9
$DIMJUST
 70
     0
  9
$DIMSD1
 70
     0
  9
$DIMSD2
 70
     0
  9
$DIMTOLJ
 70
     1
  9
$DIMTZIN
 70
     0
  9
$DIMALTZ
 70
     0
  9
$DIMALTTZ
 70
     0
  9
$DIMUPT
 70
     0
  9
$DIMDEC
 70
     4
  9
$DIMTDEC
 70
     4
  9
$DIMALTU
 70
     2
  9
$DIMALTTD
 70
     2
  9
$DIMTXSTY
  7
Standard
  9
$DIMAUNIT
 70
     0
  9
$DIMADEC
 70
     2
  9
$DIMALTRND
 40
0.0
  9
$DIMAZIN
 70
     0
  9
$DIMDSEP
 70
    46
  9
$DIMATFIT
 70
     3
  9
$DIMFRAC
 70
     0
  9
$DIMLDRBLK
  1

  9
$DIMLUNIT
 70
     2
  9
$DIMLWD
 70
    -2
  9
$DIMLWE
 70
    -2
  9
$DIMTMOVE
 70
     0
  9
$DIMFXL
 40
1.0
  9
$DIMFXLON
 70
     0
  9
$DIMJOGANG
 40
0.7853981633974483
  9
$DIMTFILL
 70
     0
  9
$DIMTFILLCLR
 70
     0
  9
$DIMARCSYM
 70
     0
  9
$DIMLTYPE
  6

  9
$DIMLTEX1
  6

  9
$DIMLTEX2
  6

  9
$DIMTXTDIRECTION
 70
     0
  9
$LUNITS
 70
     2
  9
$LUPREC
 70
     4
  9
$SKETCHINC
 40
0.1
  9
$FILLETRAD
 40
0.5
  9
$AUNITS
 70
     0
  9
$AUPREC
 70
     2
  9
$MENU
  1
.
  9
$ELEVATION
 40
0.0
  9
$PELEVATION
 40
0.0
  9
$THICKNESS
 40
0.0
  9
$LIMCHECK
 70
     0
  9
$CHAMFERA
 40
0.0
  9
$CHAMFERB
 40
0.0
  9
$CHAMFERC
 40
0.0
  9
$CHAMFERD
 40
0.0
  9
$SKPOLY
 70
     0
  9
$TDCREATE
 40
2460776.656916019
  9
$TDUCREATE
 40
2460776.615249352
  9
$TDUPDATE
 40
2460776.656916296
  9
$TDUUPDATE
 40
2460776.61524963
  9
$TDINDWG
 40
0.0000000116
  9
$TDUSRTIMER
 40
0.0000000116
  9
$USRTIMER
 70
     1
  9
$ANGBASE
 50
0.0
  9
$ANGDIR
 70
     0
  9
$PDMODE
 70
    35
  9
$PDSIZE
 40
20.0
  9
$PLINEWID
 40
0.0
  9
$SPLFRAME
 70
     0
  9
$SPLINETYPE
 70
     6
  9
$SPLINESEGS
 70
     8
  9
$HANDSEED
  5
1239
  9
$SURFTAB1
 70
     6
  9
$SURFTAB2
 70
     6
  9
$SURFTYPE
 70
     6
  9
$SURFU
 70
     6
  9
$SURFV
 70
     6
  9
$UCSBASE
  2

  9
$UCSNAME
  2

  9
$UCSORG
 10
0.0
 20
0.0
 30
0.0
  9
$UCSXDIR
 10
1.0
 20
0.0
 30
0.0
  9
$UCSYDIR
 10
0.0
 20
1.0
 30
0.0
  9
$UCSORTHOREF
  2

  9
$UCSORTHOVIEW
 70
     0
  9
$UCSORGTOP
 10
0.0
 20
0.0
 30
0.0
  9
$UCSORGBOTTOM
 10
0.0
 20
0.0
 30
0.0
  9
$UCSORGLEFT
 10
0.0
 20
0.0
 30
0.0
  9
$UCSORGRIGHT
 10
0.0
 20
0.0
 30
0.0
  9
$UCSORGFRONT
 10
0.0
 20
0.0
 30
0.0
  9
$UCSORGBACK
 10
0.0
 20
0.0
 30
0.0
  9
$PUCSBASE
  2

  9
$PUCSNAME
  2

  9
$PUCSORG
 10
0.0
 20
0.0
 30
0.0
  9
$PUCSXDIR
 10
1.0
 20
0.0
 30
0.0
  9
$PUCSYDIR
 10
0.0
 20
1.0
 30
0.0
  9
$PUCSORTHOREF
  2

  9
$PUCSORTHOVIEW
 70
     0
  9
$PUCSORGTOP
 10
0.0
 20
0.0
 30
0.0
  9
$PUCSORGBOTTOM
 10
0.0
 20
0.0
 30
0.0
  9
$PUCSORGLEFT
 10
0.0
 20
0.0
 30
0.0
  9
$PUCSORGRIGHT
 10
0.0
 20
0.0
 30
0.0
  9
$PUCSORGFRONT
 10
0.0
 20
0.0
 30
0.0
  9
$PUCSORGBACK
 10
0.0
 20
0.0
 30
0.0
  9
$USERI1
 70
     0
  9
$USERI2
 70
     0
  9
$USERI3
 70
     0
  9
$USERI4
 70
     0
  9
$USERI5
 70
     0
  9
$USERR1
 40
0.0
  9
$USERR2
 40
0.0
  9
$USERR3
 40
0.0
  9
$USERR4
 40
0.0
  9
$USERR5
 40
0.0
  9
$WORLDVIEW
 70
     1
  9
$SHADEDGE
 70
     3
  9
$SHADEDIF
 70
    70
  9
$TILEMODE
 70
     1
  9
$MAXACTVP
 70
    64
  9
$PINSBASE
 10
0.0
 20
0.0
 30
0.0
  9
$PLIMCHECK
 70
     0
  9
$PEXTMIN
 10
0.0
 20
0.0
 30
0.0
  9
$PEXTMAX
 10
0.0
 20
0.0
 30
0.0
  9
$PLIMMIN
 10
-20.0
 20
-7.5
  9
$PLIMMAX
 10
277.0
 20
202.5
  9
$UNITMODE
 70
     0
  9
$VISRETAIN
 70
     1
  9
$PLINEGEN
 70
     0
  9
$PSLTSCALE
 70
     1
  9
$TREEDEPTH
 70
  3020
  9
$CMLSTYLE
  2
Standard
  9
$CMLJUST
 70
     0
  9
$CMLSCALE
 40
1.0
  9
$PROXYGRAPHICS
 70
     1
  9
$MEASUREMENT
 70
     1
  9
$CELWEIGHT
370
    -1
  9
$ENDCAPS
280
     0
  9
$JOINSTYLE
280
     0
  9
$LWDISPLAY
290
     0
  9
$INSUNITS
 70
     4
  9
$HYPERLINKBASE
  1

  9
$STYLESHEET
  1

  9
$XEDIT
290
     1
  9
$CEPSNTYPE
380
     0
  9
$PSTYLEMODE
290
     1
  9
$FINGERPRINTGUID
  2
{b47574b3-7134-6375-3272-613266657966}
  9
$VERSIONGUID
  2
{FAEB1C32-E019-11D5-929B-00C0DF256EC4}
  9
$EXTNAMES
290
     1
  9
$PSVPSCALE
 40
0.0
  9
$OLESTARTUP
290
     0
  9
$SORTENTS
280
   127
  9
$INDEXCTL
280
     0
  9
$HIDETEXT
280
     1
  9
$XCLIPFRAME
280
     2
  9
$HALOGAP
280
     0
  9
$OBSCOLOR
 70
   257
  9
$OBSLTYPE
280
     0
  9
$INTERSECTIONDISPLAY
280
     0
  9
$INTERSECTIONCOLOR
 70
   257
  9
$DIMASSOC
280
     2
  9
$PROJECTNAME
  1

  9
$CAMERADISPLAY
290
     0
  9
$LENSLENGTH
 40
50.0
  9
$CAMERAHEIGHT
 40
0.0
  9
$STEPSPERSEC
 40
2.0
  9
$STEPSIZE
 40
6.0
  9
$3DDWFPREC
 40
2.0
  9
$PSOLWIDTH
 40
0.25
  9
$PSOLHEIGHT
 40
4.0
  9
$LOFTANG1
 40
1.570796326794897
  9
$LOFTANG2
 40
1.570796326794897
  9
$LOFTMAG1
 40
0.0
  9
$LOFTMAG2
 40
0.0
  9
$LOFTPARAM
 70
     7
  9
$LOFTNORMALS
280
     1
  9
$LATITUDE
 40
37.795
  9
$LONGITUDE
 40
-122.394
  9
$NORTHDIRECTION
 40
0.0
  9
$TIMEZONE
 70
 -8000
  9
$LIGHTGLYPHDISPLAY
280
     1
  9
$TILEMODELIGHTSYNCH
280
     1
  9
$CMATERIAL
347
117C
  9
$SOLIDHIST
280
     0
  9
$SHOWHIST
280
     1
  9
$DWFFRAME
280
     2
  9
$DGNFRAME
280
     2
  9
$REALWORLDSCALE
290
     1
  9
$INTERFERECOLOR
 62
   256
  9
$CSHADOW
280
     0
  9
$SHADOWPLANELOCATION
 40
0.0
  0
ENDSEC
  0
SECTION
  2
CLASSES
  0
CLASS
  1
ACDBDICTIONARYWDFLT
  2
AcDbDictionaryWithDefault
  3
ObjectDBX Classes
 90
        0
 91
        3
280
     0
281
     0
  0
CLASS
  1
VISUALSTYLE
  2
AcDbVisualStyle
  3
ObjectDBX Classes
 90
     4095
 91
        3
280
     0
281
     0
  0
CLASS
  1
MATERIAL
  2
AcDbMaterial
  3
ObjectDBX Classes
 90
     1153
 91
        3
280
     0
281
     0
  0
CLASS
  1
SCALE
  2
AcDbScale
  3
ObjectDBX Classes
 90
     1153
 91
        3
280
     0
281
     0
  0
CLASS
  1
TABLESTYLE
  2
AcDbTableStyle
  3
ObjectDBX Classes
 90
     4095
 91
        3
280
     0
281
     0
  0
CLASS
  1
MLEADERSTYLE
  2
AcDbMLeaderStyle
  3
ACDB_MLEADERSTYLE_CLASS
 90
     4095
 91
        3
280
     0
281
     0
  0
CLASS
  1
SUN
  2
AcDbSun
  3
SCENEOE
 90
     1153
 91
        3
280
     0
281
     0
  0
CLASS
  1
DICTIONARYVAR
  2
AcDbDictionaryVar
  3
ObjectDBX Classes
 90
        0
 91
        3
280
     0
281
     0
  0
CLASS
  1
CELLSTYLEMAP
  2
AcDbCellStyleMap
  3
ObjectDBX Classes
 90
     1152
 91
        3
280
     0
281
     0
  0
ENDSEC
  0
SECTION
  2
TABLES
  0
TABLE
  2
VPORT
  5
1141
330
0
100
AcDbSymbolTable
 70
     1
  0
VPORT
  5
1161
330
1141
100
AcDbSymbolTableRecord
100
AcDbViewportTableRecord
  2
*Active
 70
     0
 10
0.0
 20
0.0
 11
1.0
 21
1.0
 12
78.29648013971483
 22
46.63766170199568
 13
0.0
 23
0.0
 14
0.5
 24
0.5
 15
0.5
 25
0.5
 16
0.0
 26
0.0
 36
1.0
 17
0.0
 27
0.0
 37
0.0
 40
84.33504325699745
 41
2.402766476810415
 42
50.0
 43
0.0
 44
0.0
 50
0.0
 51
0.0
 71
     0
 72
   100
 73
     1
 74
     3
 75
     0
 76
     0
 77
     0
 78
     0
281
     0
 65
     1
110
0.0
120
0.0
130
0.0
111
1.0
121
0.0
131
0.0
112
0.0
122
1.0
132
0.0
 79
     0
146
0.0
348
1167
 60
     3
 61
     5
292
     1
282
     1
141
0.0
142
0.0
 63
   250
361
11A5
  0
ENDTAB
  0
TABLE
  2
LTYPE
  5
113E
330
0
100
AcDbSymbolTable
 70
    48
  0
LTYPE
  5
114C
330
113E
100
AcDbSymbolTableRecord
100
AcDbLinetypeTableRecord
  2
ByBlock
 70
     0
  3

 72
    65
 73
     0
 40
0.0
  0
LTYPE
  5
114D
330
113E
100
AcDbSymbolTableRecord
100
AcDbLinetypeTableRecord
  2
ByLayer
 70
     0
  3

 72
    65
 73
     0
 40
0.0
  0
LTYPE
  5
114E
330
113E
100
AcDbSymbolTableRecord
100
AcDbLinetypeTableRecord
  2
Continuous
 70
     0
  3
Solid line
 72
    65
 73
     0
 40
0.0
  0
LTYPE
  5
11E0
330
113E
100
AcDbSymbolTableRecord
100
AcDbLinetypeTableRecord
  2
DIVIDE
 70
     0
  3
Divide ____ . . ____ . . ____ . . ____ . . ____
 72
    65
 73
     6
 40
31.75
 49
12.7
 74
     0
 49
-6.35
 74
     0
 49
0.0
 74
     0
 49
-6.35
 74
     0
 49
0.0
 74
     0
 49
-6.35
 74
     0
  0
LTYPE
  5
11E1
330
113E
100
AcDbSymbolTableRecord
100
AcDbLinetypeTableRecord
  2
DASHEDX2
 70
     0
  3
Dashed (2x) ____  ____  ____  ____  ____  ___
 72
    65
 73
     2
 40
38.09999999999999
 49
25.4
 74
     0
 49
-12.7
 74
     0
  0
LTYPE
  5
11E2
330
113E
100
AcDbSymbolTableRecord
100
AcDbLinetypeTableRecord
  2
DASHED2
 70
     0
  3
Dashed (.5x) _ _ _ _ _ _ _ _ _ _ _ _ _ _ _ _ _
 72
    65
 73
     2
 40
9.524999999999999
 49
6.35
 74
     0
 49
-3.175
 74
     0
  0
LTYPE
  5
11E3
330
113E
100
AcDbSymbolTableRecord
100
AcDbLinetypeTableRecord
  2
DASHED
 70
     0
  3
Dashed __ __ __ __ __ __ __ __ __ __ __ __ __ _
 72
    65
 73
     2
 40
19.05
 49
12.7
 74
     0
 49
-6.35
 74
     0
  0
LTYPE
  5
11E4
330
113E
100
AcDbSymbolTableRecord
100
AcDbLinetypeTableRecord
  2
DOT2
 70
     0
  3
Dot (.5x) .....................................
 72
    65
 73
     2
 40
3.175
 49
0.0
 74
     0
 49
-3.175
 74
     0
  0
LTYPE
  5
11E5
330
113E
100
AcDbSymbolTableRecord
100
AcDbLinetypeTableRecord
  2
DOT
 70
     0
  3
Dot . . . . . . . . . . . . . . . . . . . . . .
 72
    65
 73
     2
 40
6.35
 49
0.0
 74
     0
 49
-6.35
 74
     0
  0
LTYPE
  5
11E6
330
113E
100
AcDbSymbolTableRecord
100
AcDbLinetypeTableRecord
  2
DIVIDEX2
 70
     0
  3
Divide (2x) ________  .  .  ________  .  .  _
 72
    65
 73
     6
 40
63.5
 49
25.4
 74
     0
 49
-12.7
 74
     0
 49
0.0
 74
     0
 49
-12.7
 74
     0
 49
0.0
 74
     0
 49
-12.7
 74
     0
  0
LTYPE
  5
11E7
330
113E
100
AcDbSymbolTableRecord
100
AcDbLinetypeTableRecord
  2
DIVIDE2
 70
     0
  3
Divide (.5x) __..__..__..__..__..__..__..__.._
 72
    65
 73
     6
 40
15.875
 49
6.35
 74
     0
 49
-3.175
 74
     0
 49
0.0
 74
     0
 49
-3.175
 74
     0
 49
0.0
 74
     0
 49
-3.175
 74
     0
  0
LTYPE
  5
11E9
330
113E
100
AcDbSymbolTableRecord
100
AcDbLinetypeTableRecord
  2
FENCELINE1
 70
     0
  3
Fenceline circle ----0-----0----0-----0----0-----0--
 72
    65
 73
     4
 40
36.83
 49
6.35
 74
     0
 49
-2.54
 74
     2
 75
     0
340
11E8
 46
2.54
 50
0.0
 44
-2.54
 45
0.0
  9
CIRC1
 49
-2.54
 74
     0
 49
25.4
 74
     0
  0
LTYPE
  5
11EB
330
113E
100
AcDbSymbolTableRecord
100
AcDbLinetypeTableRecord
  2
DRAINAGE2
 70
     0
  3
Drainage reversed----<----<----<----
 72
    65
 73
     2
 40
10.16
 49
5.08
 74
     2
 75
     0
340
11EA
 46
2.54
 50
0.0
 44
0.0
 45
0.0
  9
RIGHT_ARROW
 49
5.08
 74
     0
  0
LTYPE
  5
11ED
330
113E
100
AcDbSymbolTableRecord
100
AcDbLinetypeTableRecord
  2
DRAINAGE
 70
     0
  3
Drainage ---->---->---->----
 72
    65
 73
     2
 40
10.16
 49
5.08
 74
     2
 75
     0
340
11EC
 46
2.54
 50
180.0
 44
0.0
 45
0.0
  9
RIGHT_ARROW
 49
5.08
 74
     0
  0
LTYPE
  5
11EE
330
113E
100
AcDbSymbolTableRecord
100
AcDbLinetypeTableRecord
  2
DOTX2
 70
     0
  3
Dot (2x) .  .  .  .  .  .  .  .  .  .  .  .  .
 72
    65
 73
     2
 40
12.7
 49
0.0
 74
     0
 49
-12.7
 74
     0
  0
LTYPE
  5
11EF
330
113E
100
AcDbSymbolTableRecord
100
AcDbLinetypeTableRecord
  2
HIDDEN2
 70
     0
  3
Hidden (.5x) _ _ _ _ _ _ _ _ _ _ _ _ _ _ _ _ _ 
 72
    65
 73
     2
 40
4.762499999999999
 49
3.175
 74
     0
 49
-1.5875
 74
     0
  0
LTYPE
  5
11F0
330
113E
100
AcDbSymbolTableRecord
100
AcDbLinetypeTableRecord
  2
HIDDEN
 70
     0
  3
Hidden __ __ __ __ __ __ __ __ __ __ __ __ __ __
 72
    65
 73
     2
 40
9.524999999999999
 49
6.35
 74
     0
 49
-3.175
 74
     0
  0
LTYPE
  5
11F2
330
113E
100
AcDbSymbolTableRecord
100
AcDbLinetypeTableRecord
  2
GAS_LINE
 70
     0
  3
Gas line ----GAS----GAS----GAS----GAS----GAS----GAS--
 72
    65
 73
     3
 40
24.13
 49
12.7
 74
     0
 49
-5.08
 74
     2
 75
     0
340
11F1
 46
2.54
 50
0.0
 44
-2.54
 45
-1.27
  9
GAS
 49
-6.35
 74
     0
  0
LTYPE
  5
11F4
330
113E
100
AcDbSymbolTableRecord
100
AcDbLinetypeTableRecord
  2
FENCELINE2
 70
     0
  3
Fenceline square ----[]-----[]----[]-----[]----[]---
 72
    65
 73
     4
 40
36.83
 49
6.35
 74
     0
 49
-2.54
 74
     2
 75
     0
340
11F3
 46
2.54
 50
0.0
 44
-2.54
 45
0.0
  9
BOX
 49
-2.54
 74
     0
 49
25.4
 74
     0
  0
LTYPE
  5
11F5
330
113E
100
AcDbSymbolTableRecord
100
AcDbLinetypeTableRecord
  2
PHANTOM2
 70
     0
  3
Phantom (.5x) ___ _ _ ___ _ _ ___ _ _ ___ _ _
 72
    65
 73
     6
 40
31.75
 49
15.875
 74
     0
 49
-3.175
 74
     0
 49
3.175
 74
     0
 49
-3.175
 74
     0
 49
3.175
 74
     0
 49
-3.175
 74
     0
  0
LTYPE
  5
11F6
330
113E
100
AcDbSymbolTableRecord
100
AcDbLinetypeTableRecord
  2
PHANTOM
 70
     0
  3
Phantom ______  __  __  ______  __  __  ______ 
 72
    65
 73
     6
 40
63.5
 49
31.75
 74
     0
 49
-6.35
 74
     0
 49
6.35
 74
     0
 49
-6.35
 74
     0
 49
6.35
 74
     0
 49
-6.35
 74
     0
  0
LTYPE
  5
11F8
330
113E
100
AcDbSymbolTableRecord
100
AcDbLinetypeTableRecord
  2
HOT_WATER_SUPPLY
 70
     0
  3
Hot water supply ---- HW ---- HW ---- HW ----
 72
    65
 73
     3
 40
22.86
 49
12.7
 74
     0
 49
-5.08
 74
     2
 75
     0
340
11F7
 46
2.54
 50
0.0
 44
-2.54
 45
-1.27
  9
HW
 49
-5.08
 74
     0
  0
LTYPE
  5
11F9
330
113E
100
AcDbSymbolTableRecord
100
AcDbLinetypeTableRecord
  2
HIDDENX2
 70
     0
  3
Hidden (2x) ____ ____ ____ ____ ____ ____ ____ 
 72
    65
 73
     2
 40
19.05
 49
12.7
 74
     0
 49
-6.35
 74
     0
  0
LTYPE
  5
11FC
330
113E
100
AcDbSymbolTableRecord
100
AcDbLinetypeTableRecord
  2
ZIGZAG
 70
     0
  3
Zig zag /\/\/\/\/\/\/\/\/\/\/\/\/\/\/\/\/\/\/\/\/\/\/\/
 72
    65
 73
     4
 40
20.32254
 49
0.00254
 74
     0
 49
-5.08
 74
     2
 75
     0
340
11FA
 46
5.08
 50
0.0
 44
-5.08
 45
0.0
  9
ZIG
 49
-10.16
 74
     2
 75
     0
340
11FB
 46
5.08
 50
180.0
 44
5.08
 45
0.0
  9
ZIG
 49
-5.08
 74
     0
  0
LTYPE
  5
11FE
330
113E
100
AcDbSymbolTableRecord
100
AcDbLinetypeTableRecord
  2
TRACKS
 70
     0
  3
Tracks -|-|-|-|-|-|-|-|-|-|-|-|-|-|-|-|-|-|-|-|-|-|-|-|-
 72
    65
 73
     2
 40
7.62
 49
3.81
 74
     2
 75
     0
340
11FD
 46
6.35
 50
0.0
 44
0.0
 45
0.0
  9
TRACK1
 49
3.81
 74
     0
  0
LTYPE
  5
11FF
330
113E
100
AcDbSymbolTableRecord
100
AcDbLinetypeTableRecord
  2
PHANTOMX2
 70
     0
  3
Phantom (2x) ____________    ____    ____   _
 72
    65
 73
     6
 40
127.0
 49
63.5
 74
     0
 49
-12.7
 74
     0
 49
12.7
 74
     0
 49
-12.7
 74
     0
 49
12.7
 74
     0
 49
-12.7
 74
     0
  0
LTYPE
  5
1200
330
113E
100
AcDbSymbolTableRecord
100
AcDbLinetypeTableRecord
  2
ACAD_ISO05W100
 70
     0
  3
ISO long-dash double-dot ____ .. ____ .. ____ . 
 72
    65
 73
     6
 40
33.0
 49
24.0
 74
     0
 49
-3.0
 74
     0
 49
0.0
 74
     0
 49
-3.0
 74
     0
 49
0.0
 74
     0
 49
-3.0
 74
     0
  0
LTYPE
  5
1201
330
113E
100
AcDbSymbolTableRecord
100
AcDbLinetypeTableRecord
  2
ACAD_ISO04W100
 70
     0
  3
ISO long-dash dot ____ . ____ . ____ . ____ . _
 72
    65
 73
     4
 40
30.0
 49
24.0
 74
     0
 49
-3.0
 74
     0
 49
0.0
 74
     0
 49
-3.0
 74
     0
  0
LTYPE
  5
1202
330
113E
100
AcDbSymbolTableRecord
100
AcDbLinetypeTableRecord
  2
ACAD_ISO03W100
 70
     0
  3
ISO dash space __    __    __    __    __    __
 72
    65
 73
     2
 40
30.0
 49
12.0
 74
     0
 49
-18.0
 74
     0
  0
LTYPE
  5
1203
330
113E
100
AcDbSymbolTableRecord
100
AcDbLinetypeTableRecord
  2
ACAD_ISO02W100
 70
     0
  3
ISO dash __ __ __ __ __ __ __ __ __ __ __ __ __
 72
    65
 73
     2
 40
15.0
 49
12.0
 74
     0
 49
-3.0
 74
     0
  0
LTYPE
  5
1204
330
113E
100
AcDbSymbolTableRecord
100
AcDbLinetypeTableRecord
  2
ACAD_ISO09W100
 70
     0
  3
ISO long-dash double-short-dash ____ __ __ ____
 72
    65
 73
     6
 40
45.0
 49
24.0
 74
     0
 49
-3.0
 74
     0
 49
6.0
 74
     0
 49
-3.0
 74
     0
 49
6.0
 74
     0
 49
-3.0
 74
     0
  0
LTYPE
  5
1205
330
113E
100
AcDbSymbolTableRecord
100
AcDbLinetypeTableRecord
  2
ACAD_ISO08W100
 70
     0
  3
ISO long-dash short-dash ____ __ ____ __ ____ _
 72
    65
 73
     4
 40
36.0
 49
24.0
 74
     0
 49
-3.0
 74
     0
 49
6.0
 74
     0
 49
-3.0
 74
     0
  0
LTYPE
  5
1206
330
113E
100
AcDbSymbolTableRecord
100
AcDbLinetypeTableRecord
  2
ACAD_ISO07W100
 70
     0
  3
ISO dot . . . . . . . . . . . . . . . . . . . . 
 72
    65
 73
     2
 40
3.0
 49
0.0
 74
     0
 49
-3.0
 74
     0
  0
LTYPE
  5
1207
330
113E
100
AcDbSymbolTableRecord
100
AcDbLinetypeTableRecord
  2
ACAD_ISO06W100
 70
     0
  3
ISO long-dash triple-dot ____ ... ____ ... ____
 72
    65
 73
     8
 40
36.0
 49
24.0
 74
     0
 49
-3.0
 74
     0
 49
0.0
 74
     0
 49
-3.0
 74
     0
 49
0.0
 74
     0
 49
-3.0
 74
     0
 49
0.0
 74
     0
 49
-3.0
 74
     0
  0
LTYPE
  5
1208
330
113E
100
AcDbSymbolTableRecord
100
AcDbLinetypeTableRecord
  2
ACAD_ISO13W100
 70
     0
  3
ISO double-dash double-dot __ __ . . __ __ . . _
 72
    65
 73
     8
 40
36.0
 49
12.0
 74
     0
 49
-3.0
 74
     0
 49
12.0
 74
     0
 49
-3.0
 74
     0
 49
0.0
 74
     0
 49
-3.0
 74
     0
 49
0.0
 74
     0
 49
-3.0
 74
     0
  0
LTYPE
  5
1209
330
113E
100
AcDbSymbolTableRecord
100
AcDbLinetypeTableRecord
  2
ACAD_ISO12W100
 70
     0
  3
ISO dash double-dot __ . . __ . . __ . . __ . . 
 72
    65
 73
     6
 40
21.0
 49
12.0
 74
     0
 49
-3.0
 74
     0
 49
0.0
 74
     0
 49
-3.0
 74
     0
 49
0.0
 74
     0
 49
-3.0
 74
     0
  0
LTYPE
  5
120A
330
113E
100
AcDbSymbolTableRecord
100
AcDbLinetypeTableRecord
  2
ACAD_ISO11W100
 70
     0
  3
ISO double-dash dot __ __ . __ __ . __ __ . __ _
 72
    65
 73
     6
 40
33.0
 49
12.0
 74
     0
 49
-3.0
 74
     0
 49
12.0
 74
     0
 49
-3.0
 74
     0
 49
0.0
 74
     0
 49
-3.0
 74
     0
  0
LTYPE
  5
120B
330
113E
100
AcDbSymbolTableRecord
100
AcDbLinetypeTableRecord
  2
ACAD_ISO10W100
 70
     0
  3
ISO dash dot __ . __ . __ . __ . __ . __ . __ . 
 72
    65
 73
     4
 40
18.0
 49
12.0
 74
     0
 49
-3.0
 74
     0
 49
0.0
 74
     0
 49
-3.0
 74
     0
  0
LTYPE
  5
120C
330
113E
100
AcDbSymbolTableRecord
100
AcDbLinetypeTableRecord
  2
BORDER
 70
     0
  3
Border __ __ . __ __ . __ __ . __ __ . __ __ .
 72
    65
 73
     6
 40
44.45
 49
12.7
 74
     0
 49
-6.35
 74
     0
 49
12.7
 74
     0
 49
-6.35
 74
     0
 49
0.0
 74
     0
 49
-6.35
 74
     0
  0
LTYPE
  5
120F
330
113E
100
AcDbSymbolTableRecord
100
AcDbLinetypeTableRecord
  2
BATTING
 70
     0
  3
Batting SSSSSSSSSSSSSSSSSSSSSSSSSSSSSSSSSSSSSSSSSSSSSSS
 72
    65
 73
     4
 40
10.16254
 49
0.00254
 74
     0
 49
-2.54
 74
     2
 75
     0
340
120D
 46
2.54
 50
0.0
 44
-2.54
 45
0.0
  9
BAT
 49
-5.08
 74
     2
 75
     0
340
120E
 46
2.54
 50
180.0
 44
2.54
 45
0.0
  9
BAT
 49
-2.54
 74
     0
  0
LTYPE
  5
1210
330
113E
100
AcDbSymbolTableRecord
100
AcDbLinetypeTableRecord
  2
ACAD_ISO15W100
 70
     0
  3
ISO double-dash triple-dot __ __ . . . __ __ . .
 72
    65
 73
    10
 40
39.0
 49
12.0
 74
     0
 49
-3.0
 74
     0
 49
12.0
 74
     0
 49
-3.0
 74
     0
 49
0.0
 74
     0
 49
-3.0
 74
     0
 49
0.0
 74
     0
 49
-3.0
 74
     0
 49
0.0
 74
     0
 49
-3.0
 74
     0
  0
LTYPE
  5
1211
330
113E
100
AcDbSymbolTableRecord
100
AcDbLinetypeTableRecord
  2
ACAD_ISO14W100
 70
     0
  3
ISO dash triple-dot __ . . . __ . . . __ . . . _
 72
    65
 73
     8
 40
24.0
 49
12.0
 74
     0
 49
-3.0
 74
     0
 49
0.0
 74
     0
 49
-3.0
 74
     0
 49
0.0
 74
     0
 49
-3.0
 74
     0
 49
0.0
 74
     0
 49
-3.0
 74
     0
  0
LTYPE
  5
1212
330
113E
100
AcDbSymbolTableRecord
100
AcDbLinetypeTableRecord
  2
CENTER2
 70
     0
  3
Center (.5x) ___ _ ___ _ ___ _ ___ _ ___ _ ___
 72
    65
 73
     4
 40
28.575
 49
19.05
 74
     0
 49
-3.175
 74
     0
 49
3.175
 74
     0
 49
-3.175
 74
     0
  0
LTYPE
  5
1213
330
113E
100
AcDbSymbolTableRecord
100
AcDbLinetypeTableRecord
  2
CENTER
 70
     0
  3
Center ____ _ ____ _ ____ _ ____ _ ____ _ ____
 72
    65
 73
     4
 40
50.8
 49
31.75
 74
     0
 49
-6.35
 74
     0
 49
6.35
 74
     0
 49
-6.35
 74
     0
  0
LTYPE
  5
1214
330
113E
100
AcDbSymbolTableRecord
100
AcDbLinetypeTableRecord
  2
BORDERX2
 70
     0
  3
Border (2x) ____  ____  .  ____  ____  .  ___
 72
    65
 73
     6
 40
88.89999999999999
 49
25.4
 74
     0
 49
-12.7
 74
     0
 49
25.4
 74
     0
 49
-12.7
 74
     0
 49
0.0
 74
     0
 49
-12.7
 74
     0
  0
LTYPE
  5
1215
330
113E
100
AcDbSymbolTableRecord
100
AcDbLinetypeTableRecord
  2
BORDER2
 70
     0
  3
Border (.5x) __.__.__.__.__.__.__.__.__.__.__.
 72
    65
 73
     6
 40
22.225
 49
6.35
 74
     0
 49
-3.175
 74
     0
 49
6.35
 74
     0
 49
-3.175
 74
     0
 49
0.0
 74
     0
 49
-3.175
 74
     0
  0
LTYPE
  5
1216
330
113E
100
AcDbSymbolTableRecord
100
AcDbLinetypeTableRecord
  2
DASHDOTX2
 70
     0
  3
Dash dot (2x) ____  .  ____  .  ____  .  ___
 72
    65
 73
     4
 40
50.8
 49
25.4
 74
     0
 49
-12.7
 74
     0
 49
0.0
 74
     0
 49
-12.7
 74
     0
  0
LTYPE
  5
1217
330
113E
100
AcDbSymbolTableRecord
100
AcDbLinetypeTableRecord
  2
DASHDOT2
 70
     0
  3
Dash dot (.5x) _._._._._._._._._._._._._._._.
 72
    65
 73
     4
 40
12.7
 49
6.35
 74
     0
 49
-3.175
 74
     0
 49
0.0
 74
     0
 49
-3.175
 74
     0
  0
LTYPE
  5
1218
330
113E
100
AcDbSymbolTableRecord
100
AcDbLinetypeTableRecord
  2
DASHDOT
 70
     0
  3
Dash dot __ . __ . __ . __ . __ . __ . __ . __
 72
    65
 73
     4
 40
25.4
 49
12.7
 74
     0
 49
-6.35
 74
     0
 49
0.0
 74
     0
 49
-6.35
 74
     0
  0
LTYPE
  5
1219
330
113E
100
AcDbSymbolTableRecord
100
AcDbLinetypeTableRecord
  2
CENTERX2
 70
     0
  3
Center (2x) ________  __  ________  __  _____
 72
    65
 73
     4
 40
101.6
 49
63.5
 74
     0
 49
-12.7
 74
     0
 49
12.7
 74
     0
 49
-12.7
 74
     0
  0
ENDTAB
  0
TABLE
  2
LAYER
  5
113C
330
0
100
AcDbSymbolTable
 70
     3
  0
LAYER
  5
1149
330
113C
100
AcDbSymbolTableRecord
100
AcDbLayerTableRecord
  2
0
 70
     0
 62
   178
420
        0
  6
Continuous
370
    25
390
1148
347
117E
348
0
  0
LAYER
  5
121A
330
113C
100
AcDbSymbolTableRecord
100
AcDbLayerTableRecord
  2
DP0000.1000NP001F0200.0000
 70
     0
 62
     4
420
    65535
  6
Continuous
370
     0
390
1148
347
117E
348
0
  0
LAYER
  5
121B
330
113C
100
AcDbSymbolTableRecord
100
AcDbLayerTableRecord
  2
DP0003.0000NP001F0050.0000
 70
     0
 62
     1
420
 16711680
  6
Continuous
370
    35
390
1148
347
117E
348
0
  0
ENDTAB
  0
TABLE
  2
STYLE
  5
113D
330
0
100
AcDbSymbolTable
 70
    13
  0
STYLE
  5
114A
330
113D
100
AcDbSymbolTableRecord
100
AcDbTextStyleTableRecord
  2
Standard
 70
     0
 40
0.0
 41
1.0
 50
0.0
 71
     0
 42
2.5
  3
txt
  4

  0
STYLE
  5
11DE
330
113D
100
AcDbSymbolTableRecord
100
AcDbTextStyleTableRecord
  2
QCADDimTextStyle
 70
     0
 40
0.0
 41
1.0
 50
0.0
 71
     0
 42
2.5
  3

  4

  0
STYLE
  5
11E8
330
113D
100
AcDbSymbolTableRecord
100
AcDbTextStyleTableRecord
  2
textstyle0
 70
     0
 40
0.0
 41
1.0
 50
0.0
 71
     0
 42
2.5
  3
ltypeshp.shx
  4

  0
STYLE
  5
11EA
330
113D
100
AcDbSymbolTableRecord
100
AcDbTextStyleTableRecord
  2
textstyle1
 70
     0
 40
0.0
 41
1.0
 50
0.0
 71
     0
 42
2.5
  3
qcadshp.shx
  4

  0
STYLE
  5
11EC
330
113D
100
AcDbSymbolTableRecord
100
AcDbTextStyleTableRecord
  2
textstyle2
 70
     0
 40
0.0
 41
1.0
 50
0.0
 71
     0
 42
2.5
  3
qcadshp.shx
  4

  0
STYLE
  5
11F1
330
113D
100
AcDbSymbolTableRecord
100
AcDbTextStyleTableRecord
  2
textstyle3
 70
     0
 40
0.0
 41
1.0
 50
0.0
 71
     0
 42
2.5
  3
STANDARD
  4

  0
STYLE
  5
11F3
330
113D
100
AcDbSymbolTableRecord
100
AcDbTextStyleTableRecord
  2
textstyle4
 70
     0
 40
0.0
 41
1.0
 50
0.0
 71
     0
 42
2.5
  3
ltypeshp.shx
  4

  0
STYLE
  5
11F7
330
113D
100
AcDbSymbolTableRecord
100
AcDbTextStyleTableRecord
  2
textstyle5
 70
     0
 40
0.0
 41
1.0
 50
0.0
 71
     0
 42
2.5
  3
STANDARD
  4

  0
STYLE
  5
11FA
330
113D
100
AcDbSymbolTableRecord
100
AcDbTextStyleTableRecord
  2
textstyle6
 70
     0
 40
0.0
 41
1.0
 50
0.0
 71
     0
 42
2.5
  3
ltypeshp.shx
  4

  0
STYLE
  5
11FB
330
113D
100
AcDbSymbolTableRecord
100
AcDbTextStyleTableRecord
  2
textstyle7
 70
     0
 40
0.0
 41
1.0
 50
0.0
 71
     0
 42
2.5
  3
ltypeshp.shx
  4

  0
STYLE
  5
11FD
330
113D
100
AcDbSymbolTableRecord
100
AcDbTextStyleTableRecord
  2
textstyle8
 70
     0
 40
0.0
 41
1.0
 50
0.0
 71
     0
 42
2.5
  3
ltypeshp.shx
  4

  0
STYLE
  5
120D
330
113D
100
AcDbSymbolTableRecord
100
AcDbTextStyleTableRecord
  2
textstyle9
 70
     0
 40
0.0
 41
1.0
 50
0.0
 71
     0
 42
2.5
  3
ltypeshp.shx
  4

  0
STYLE
  5
120E
330
113D
100
AcDbSymbolTableRecord
100
AcDbTextStyleTableRecord
  2
textstyle10
 70
     0
 40
0.0
 41
1.0
 50
0.0
 71
     0
 42
2.5
  3
ltypeshp.shx
  4

  0
ENDTAB
  0
TABLE
  2
VIEW
  5
113F
330
0
100
AcDbSymbolTable
 70
     0
  0
ENDTAB
  0
TABLE
  2
UCS
  5
1140
330
0
100
AcDbSymbolTable
 70
     0
  0
ENDTAB
  0
TABLE
  2
APPID
  5
1142
330
0
100
AcDbSymbolTable
 70
     2
  0
APPID
  5
114B
330
1142
100
AcDbSymbolTableRecord
100
AcDbRegAppTableRecord
  2
ACAD
 70
     0
  0
APPID
  5
11A6
330
1142
100
AcDbSymbolTableRecord
100
AcDbRegAppTableRecord
  2
QCAD
 70
     0
  0
ENDTAB
  0
TABLE
  2
DIMSTYLE
  5
1143
330
0
100
AcDbSymbolTable
 70
     2
100
AcDbDimStyleTable
  0
DIMSTYLE
105
115F
330
1143
100
AcDbSymbolTableRecord
100
AcDbDimStyleTableRecord
  2
Standard
 70
     0
178
     0
340
114A
  0
DIMSTYLE
105
11DF
330
1143
100
AcDbSymbolTableRecord
100
AcDbDimStyleTableRecord
  2
QCADDimStyle
 70
     0
 41
2.5
 42
0.625
 44
1.25
 73
     0
 77
     1
140
2.5
147
0.625
178
     0
340
11DE
  0
ENDTAB
  0
TABLE
  2
BLOCK_RECORD
  5
113B
330
0
100
AcDbSymbolTable
 70
     5
  0
BLOCK_RECORD
  5
1157
330
113B
100
AcDbSymbolTableRecord
100
AcDbBlockTableRecord
  2
*Model_Space
340
115A
 70
     0
280
     1
281
     0
  0
BLOCK_RECORD
  5
121E
330
113B
100
AcDbSymbolTableRecord
100
AcDbBlockTableRecord
  2
*Paper_Space
340
121F
 70
     0
280
     1
281
     0
  0
BLOCK_RECORD
  5
1153
330
113B
100
AcDbSymbolTableRecord
100
AcDbBlockTableRecord
  2
*Paper_Space1
340
1156
 70
     0
280
     1
281
     0
  0
BLOCK_RECORD
  5
1224
330
113B
100
AcDbSymbolTableRecord
100
AcDbBlockTableRecord
  2
Cond
340
0
 70
     0
280
     1
281
     0
  0
BLOCK_RECORD
  5
1227
330
113B
100
AcDbSymbolTableRecord
100
AcDbBlockTableRecord
  2
HeadScrew5
340
0
 70
     0
280
     1
281
     0
  0
BLOCK_RECORD
  5
122A
330
113B
100
AcDbSymbolTableRecord
100
AcDbBlockTableRecord
  2
*P4
340
0
 70
     0
280
     1
281
     0
  0
BLOCK_RECORD
  5
122D
330
113B
100
AcDbSymbolTableRecord
100
AcDbBlockTableRecord
  2
Res
340
0
 70
     0
280
     1
281
     0
  0
ENDTAB
  0
ENDSEC
  0
SECTION
  2
BLOCKS
  0
BLOCK
  5
1158
330
1157
100
AcDbEntity
  8
0
100
AcDbBlockBegin
  2
*Model_Space
 70
     0
 10
0.0
 20
0.0
 30
0.0
  3
*Model_Space
  1

  0
ENDBLK
  5
1159
330
1157
100
AcDbEntity
  8
0
100
AcDbBlockEnd
  0
BLOCK
  5
1220
330
121E
100
AcDbEntity
 67
     1
  8
0
100
AcDbBlockBegin
  2
*Paper_Space
 70
     0
 10
0.0
 20
0.0
 30
0.0
  3
*Paper_Space
  1

  0
ENDBLK
  5
1221
330
121E
100
AcDbEntity
 67
     1
  8
0
100
AcDbBlockEnd
  0
BLOCK
  5
1154
330
1153
100
AcDbEntity
  8
0
100
AcDbBlockBegin
  2
*Paper_Space1
 70
     0
 10
0.0
 20
0.0
 30
0.0
  3
*Paper_Space1
  1

  0
VIEWPORT
  5
121C
330
1153
100
AcDbEntity
  8
0
100
AcDbViewport
 10
128.5
 20
97.5
 30
0.0
 40
314.226
 41
222.18
 68
     1
 69
     1
 12
128.5
 22
97.5
 13
0.0
 23
0.0
 14
10.0
 24
10.0
 15
10.0
 25
10.0
 16
0.0
 26
0.0
 36
1.0
 17
0.0
 27
0.0
 37
0.0
 42
50.0
 43
0.0
 44
0.0
 45
222.18
 50
0.0
 51
0.0
 72
   100
 90
   557152
  1

281
     0
 71
     1
 74
     0
110
0.0
120
0.0
130
0.0
111
1.0
121
0.0
131
0.0
112
0.0
122
1.0
132
0.0
 79
     0
146
0.0
170
     0
 61
     5
348
1167
292
     1
282
     1
141
0.0
142
0.0
 63
   256
361
121D
  0
ENDBLK
  5
1155
330
1153
100
AcDbEntity
  8
0
100
AcDbBlockEnd
  0
BLOCK
  5
1225
330
1224
100
AcDbEntity
  8
0
100
AcDbBlockBegin
  2
Cond
 70
     0
 10
0.0
 20
0.0
 30
0.0
  3
Cond
  1

  0
ENDBLK
  5
1226
330
1224
100
AcDbEntity
  8
0
100
AcDbBlockEnd
  0
BLOCK
  5
1228
330
1227
100
AcDbEntity
  8
0
100
AcDbBlockBegin
  2
HeadScrew5
 70
     0
 10
0.0
 20
0.0
 30
0.0
  3
HeadScrew5
  1

  0
POINT
  5
EA
330
1227
100
AcDbEntity
  8
DP0003.0000NP001F0050.0000
100
AcDbPoint
 10
0.0
 20
0.0
 30
0.0
  0
POINT
  5
EB
330
1227
100
AcDbEntity
  8
DP0003.0000NP001F0050.0000
100
AcDbPoint
 10
0.0
 20
-5.079999999999998
 30
0.0
  0
ENDBLK
  5
1229
330
1227
100
AcDbEntity
  8
0
100
AcDbBlockEnd
  0
BLOCK
  5
122B
330
122A
100
AcDbEntity
  8
0
100
AcDbBlockBegin
  2
*P4
 70
     1
 10
0.0
 20
0.0
 30
0.0
  3
*P4
  1

  0
ENDBLK
  5
122C
330
122A
100
AcDbEntity
  8
0
100
AcDbBlockEnd
  0
BLOCK
  5
122E
330
122D
100
AcDbEntity
  8
0
100
AcDbBlockBegin
  2
Res
 70
     0
 10
0.0
 20
0.0
 30
0.0
  3
Res
  1

  0
POINT
  5
60
330
122D
100
AcDbEntity
  8
DP0003.0000NP001F0050.0000
100
AcDbPoint
 10
0.0
 20
-0.0000000000000071
 30
0.0
  0
ENDBLK
  5
122F
330
122D
100
AcDbEntity
  8
0
100
AcDbBlockEnd
  0
ENDSEC
  0
SECTION
  2
ENTITIES
  0
POINT
  5
69
330
1157
100
AcDbEntity
  8
DP0003.0000NP001F0050.0000
 62
     1
420
 16711680
100
AcDbPoint
 10
117.3
 20
50.8
 30
0.0
  0
POINT
  5
6A
330
1157
100
AcDbEntity
  8
DP0003.0000NP001F0050.0000
 62
     1
420
 16711680
100
AcDbPoint
 10
114.76
 20
50.79999999999998
 30
0.0
  0
POINT
  5
6B
330
1157
100
AcDbEntity
  8
DP0003.0000NP001F0050.0000
 62
     1
420
 16711680
100
AcDbPoint
 10
112.22
 20
50.8
 30
0.0
  0
POINT
  5
6C
330
1157
100
AcDbEntity
  8
DP0003.0000NP001F0050.0000
 62
     1
420
 16711680
100
AcDbPoint
 10
109.68
 20
50.79999999999999
 30
0.0
  0
POINT
  5
6AB
330
1157
100
AcDbEntity
  8
DP0003.0000NP001F0050.0000
 62
     1
420
 16711680
100
AcDbPoint
 10
112.22
 20
62.22999999999999
 30
0.0
  0
POINT
  5
6AD
330
1157
100
AcDbEntity
  8
DP0003.0000NP001F0050.0000
 62
     1
420
 16711680
100
AcDbPoint
 10
109.68
 20
62.22999999999999
 30
0.0
  0
POINT
  5
6D
330
1157
100
AcDbEntity
  8
DP0003.0000NP001F0050.0000
 62
     1
420
 16711680
100
AcDbPoint
 10
107.14
 20
50.79999999999999
 30
0.0
  0
POINT
  5
A0F
330
1157
100
AcDbEntity
  8
DP0003.0000NP001F0050.0000
 62
     1
420
 16711680
100
AcDbPoint
 10
104.6
 20
40.63999999999999
 30
0.0
  0
POINT
  5
A11
330
1157
100
AcDbEntity
  8
DP0003.0000NP001F0050.0000
 62
     1
420
 16711680
100
AcDbPoint
 10
99.52
 20
40.64000000000001
 30
0.0
  0
POINT
  5
A13
330
1157
100
AcDbEntity
  8
DP0003.0000NP001F0050.0000
 62
     1
420
 16711680
100
AcDbPoint
 10
81.74000000000001
 20
40.63999999999999
 30
0.0
  0
POINT
  5
6E
330
1157
100
AcDbEntity
  8
DP0003.0000NP001F0050.0000
 62
     1
420
 16711680
100
AcDbPoint
 10
104.6
 20
50.8
 30
0.0
  0
POINT
  5
6F
330
1157
100
AcDbEntity
  8
DP0003.0000NP001F0050.0000
 62
     1
420
 16711680
100
AcDbPoint
 10
102.06
 20
50.79999999999999
 30
0.0
  0
POINT
  5
70
330
1157
100
AcDbEntity
  8
DP0003.0000NP001F0050.0000
 62
     1
420
 16711680
100
AcDbPoint
 10
99.52
 20
50.8
 30
0.0
  0
POINT
  5
71
330
1157
100
AcDbEntity
  8
DP0003.0000NP001F0050.0000
 62
     1
420
 16711680
100
AcDbPoint
 10
96.97999999999999
 20
50.8
 30
0.0
  0
POINT
  5
72
330
1157
100
AcDbEntity
  8
DP0003.0000NP001F0050.0000
 62
     1
420
 16711680
100
AcDbPoint
 10
94.44
 20
50.79999999999999
 30
0.0
  0
POINT
  5
73
330
1157
100
AcDbEntity
  8
DP0003.0000NP001F0050.0000
 62
     1
420
 16711680
100
AcDbPoint
 10
91.90000000000003
 20
50.79999999999999
 30
0.0
  0
POINT
  5
74
330
1157
100
AcDbEntity
  8
DP0003.0000NP001F0050.0000
 62
     1
420
 16711680
100
AcDbPoint
 10
89.36
 20
50.8
 30
0.0
  0
POINT
  5
75
330
1157
100
AcDbEntity
  8
DP0003.0000NP001F0050.0000
 62
     1
420
 16711680
100
AcDbPoint
 10
86.82000000000001
 20
50.8
 30
0.0
  0
POINT
  5
76
330
1157
100
AcDbEntity
  8
DP0003.0000NP001F0050.0000
 62
     1
420
 16711680
100
AcDbPoint
 10
84.28
 20
50.79999999999999
 30
0.0
  0
POINT
  5
B63
330
1157
100
AcDbEntity
  8
DP0003.0000NP001F0050.0000
 62
     1
420
 16711680
100
AcDbPoint
 10
84.28
 20
57.15
 30
0.0
  0
POINT
  5
77
330
1157
100
AcDbEntity
  8
DP0003.0000NP001F0050.0000
 62
     1
420
 16711680
100
AcDbPoint
 10
81.74
 20
50.79999999999999
 30
0.0
  0
POINT
  5
A2E
330
1157
100
AcDbEntity
  8
DP0003.0000NP001F0050.0000
 62
     1
420
 16711680
100
AcDbPoint
 10
81.74000000000001
 20
48.26
 30
0.0
  0
POINT
  5
A30
330
1157
100
AcDbEntity
  8
DP0003.0000NP001F0050.0000
 62
     1
420
 16711680
100
AcDbPoint
 10
91.89999999999999
 20
48.26
 30
0.0
  0
POINT
  5
B58
330
1157
100
AcDbEntity
  8
DP0003.0000NP001F0050.0000
 62
     1
420
 16711680
100
AcDbPoint
 10
81.74
 20
59.69
 30
0.0
  0
POINT
  5
78
330
1157
100
AcDbEntity
  8
DP0003.0000NP001F0050.0000
 62
     1
420
 16711680
100
AcDbPoint
 10
79.20000000000002
 20
50.8
 30
0.0
  0
POINT
  5
79
330
1157
100
AcDbEntity
  8
DP0003.0000NP001F0050.0000
 62
     1
420
 16711680
100
AcDbPoint
 10
76.66
 20
50.8
 30
0.0
  0
POINT
  5
7A
330
1157
100
AcDbEntity
  8
DP0003.0000NP001F0050.0000
 62
     1
420
 16711680
100
AcDbPoint
 10
117.3
 20
27.94000000000001
 30
0.0
  0
POINT
  5
7B
330
1157
100
AcDbEntity
  8
DP0003.0000NP001F0050.0000
 62
     1
420
 16711680
100
AcDbPoint
 10
114.76
 20
27.93999999999999
 30
0.0
  0
POINT
  5
7C
330
1157
100
AcDbEntity
  8
DP0003.0000NP001F0050.0000
 62
     1
420
 16711680
100
AcDbPoint
 10
112.22
 20
27.94000000000001
 30
0.0
  0
POINT
  5
7D
330
1157
100
AcDbEntity
  8
DP0003.0000NP001F0050.0000
 62
     1
420
 16711680
100
AcDbPoint
 10
109.68
 20
27.93999999999999
 30
0.0
  0
POINT
  5
7E
330
1157
100
AcDbEntity
  8
DP0003.0000NP001F0050.0000
 62
     1
420
 16711680
100
AcDbPoint
 10
107.14
 20
27.94000000000001
 30
0.0
  0
POINT
  5
7F
330
1157
100
AcDbEntity
  8
DP0003.0000NP001F0050.0000
 62
     1
420
 16711680
100
AcDbPoint
 10
104.6
 20
27.94000000000001
 30
0.0
  0
POINT
  5
80
330
1157
100
AcDbEntity
  8
DP0003.0000NP001F0050.0000
 62
     1
420
 16711680
100
AcDbPoint
 10
102.06
 20
27.94
 30
0.0
  0
POINT
  5
81
330
1157
100
AcDbEntity
  8
DP0003.0000NP001F0050.0000
 62
     1
420
 16711680
100
AcDbPoint
 10
99.52000000000001
 20
27.94
 30
0.0
  0
POINT
  5
82
330
1157
100
AcDbEntity
  8
DP0003.0000NP001F0050.0000
 62
     1
420
 16711680
100
AcDbPoint
 10
96.97999999999999
 20
27.94
 30
0.0
  0
POINT
  5
83
330
1157
100
AcDbEntity
  8
DP0003.0000NP001F0050.0000
 62
     1
420
 16711680
100
AcDbPoint
 10
94.44000000000001
 20
27.93999999999999
 30
0.0
  0
POINT
  5
84
330
1157
100
AcDbEntity
  8
DP0003.0000NP001F0050.0000
 62
     1
420
 16711680
100
AcDbPoint
 10
91.89999999999999
 20
27.94
 30
0.0
  0
POINT
  5
85
330
1157
100
AcDbEntity
  8
DP0003.0000NP001F0050.0000
 62
     1
420
 16711680
100
AcDbPoint
 10
37.28999999999998
 20
35.56000000000001
 30
0.0
  0
POINT
  5
86
330
1157
100
AcDbEntity
  8
DP0003.0000NP001F0050.0000
 62
     1
420
 16711680
100
AcDbPoint
 10
37.28999999999998
 20
20.31999999999999
 30
0.0
  0
POINT
  5
87
330
1157
100
AcDbEntity
  8
DP0003.0000NP001F0050.0000
 62
     1
420
 16711680
100
AcDbPoint
 10
34.74999999999999
 20
35.56
 30
0.0
  0
POINT
  5
88
330
1157
100
AcDbEntity
  8
DP0003.0000NP001F0050.0000
 62
     1
420
 16711680
100
AcDbPoint
 10
34.74999999999999
 20
17.78
 30
0.0
  0
POINT
  5
89
330
1157
100
AcDbEntity
  8
DP0003.0000NP001F0050.0000
 62
     1
420
 16711680
100
AcDbPoint
 10
89.36
 20
27.94
 30
0.0
  0
POINT
  5
8A
330
1157
100
AcDbEntity
  8
DP0003.0000NP001F0050.0000
 62
     1
420
 16711680
100
AcDbPoint
 10
84.28000000000002
 20
27.93999999999999
 30
0.0
  0
POINT
  5
8B
330
1157
100
AcDbEntity
  8
DP0003.0000NP001F0050.0000
 62
     1
420
 16711680
100
AcDbPoint
 10
81.73999999999998
 20
27.94
 30
0.0
  0
POINT
  5
8C
330
1157
100
AcDbEntity
  8
DP0003.0000NP001F0050.0000
 62
     1
420
 16711680
100
AcDbPoint
 10
86.82
 20
27.94
 30
0.0
  0
POINT
  5
8D
330
1157
100
AcDbEntity
  8
DP0003.0000NP001F0050.0000
 62
     1
420
 16711680
100
AcDbPoint
 10
79.20000000000003
 20
27.93999999999999
 30
0.0
  0
POINT
  5
8E
330
1157
100
AcDbEntity
  8
DP0003.0000NP001F0050.0000
 62
     1
420
 16711680
100
AcDbPoint
 10
76.66
 20
27.94
 30
0.0
  0
POINT
  5
8F
330
1157
100
AcDbEntity
  8
DP0003.0000NP001F0050.0000
 62
     1
420
 16711680
100
AcDbPoint
 10
42.36999999999999
 20
10.16
 30
0.0
  0
POINT
  5
90
330
1157
100
AcDbEntity
  8
DP0003.0000NP001F0050.0000
 62
     1
420
 16711680
100
AcDbPoint
 10
42.36999999999999
 20
27.94
 30
0.0
  0
POINT
  5
91
330
1157
100
AcDbEntity
  8
DP0003.0000NP001F0050.0000
 62
     1
420
 16711680
100
AcDbPoint
 10
39.83
 20
12.70000000000001
 30
0.0
  0
POINT
  5
92
330
1157
100
AcDbEntity
  8
DP0003.0000NP001F0050.0000
 62
     1
420
 16711680
100
AcDbPoint
 10
39.83
 20
31.75
 30
0.0
  0
POINT
  5
93
330
1157
100
AcDbEntity
  8
DP0003.0000NP001F0050.0000
 62
     1
420
 16711680
100
AcDbPoint
 10
55.06999999999999
 20
27.94
 30
0.0
  0
POINT
  5
94
330
1157
100
AcDbEntity
  8
DP0003.0000NP001F0050.0000
 62
     1
420
 16711680
100
AcDbPoint
 10
55.06999999999999
 20
30.48
 30
0.0
  0
POINT
  5
95
330
1157
100
AcDbEntity
  8
DP0003.0000NP001F0050.0000
 62
     1
420
 16711680
100
AcDbPoint
 10
55.07
 20
33.02000000000001
 30
0.0
  0
POINT
  5
96
330
1157
100
AcDbEntity
  8
DP0003.0000NP001F0050.0000
 62
     1
420
 16711680
100
AcDbPoint
 10
48.72
 20
27.94000000000001
 30
0.0
  0
POINT
  5
97
330
1157
100
AcDbEntity
  8
DP0003.0000NP001F0050.0000
 62
     1
420
 16711680
100
AcDbPoint
 10
46.17999999999999
 20
30.48
 30
0.0
  0
POINT
  5
98
330
1157
100
AcDbEntity
  8
DP0003.0000NP001F0050.0000
 62
     1
420
 16711680
100
AcDbPoint
 10
46.17999999999999
 20
33.02
 30
0.0
  0
POINT
  5
9A
330
1157
100
AcDbEntity
  8
DP0003.0000NP001F0050.0000
 62
     1
420
 16711680
100
AcDbPoint
 10
46.17999999999999
 20
35.56
 30
0.0
  0
POINT
  5
9B
330
1157
100
AcDbEntity
  8
DP0003.0000NP001F0050.0000
 62
     1
420
 16711680
100
AcDbPoint
 10
46.18000000000001
 20
38.09999999999999
 30
0.0
  0
POINT
  5
9C
330
1157
100
AcDbEntity
  8
DP0003.0000NP001F0050.0000
 62
     1
420
 16711680
100
AcDbPoint
 10
46.17999999999999
 20
40.64
 30
0.0
  0
POINT
  5
9D
330
1157
100
AcDbEntity
  8
DP0003.0000NP001F0050.0000
 62
     1
420
 16711680
100
AcDbPoint
 10
46.18
 20
43.17999999999999
 30
0.0
  0
POINT
  5
9E
330
1157
100
AcDbEntity
  8
DP0003.0000NP001F0050.0000
 62
     1
420
 16711680
100
AcDbPoint
 10
46.18
 20
45.71999999999998
 30
0.0
  0
POINT
  5
9F
330
1157
100
AcDbEntity
  8
DP0003.0000NP001F0050.0000
 62
     1
420
 16711680
100
AcDbPoint
 10
46.17999999999999
 20
48.25999999999999
 30
0.0
  0
POINT
  5
A0
330
1157
100
AcDbEntity
  8
DP0003.0000NP001F0050.0000
 62
     1
420
 16711680
100
AcDbPoint
 10
46.17999999999999
 20
50.79999999999998
 30
0.0
  0
POINT
  5
A1
330
1157
100
AcDbEntity
  8
DP0003.0000NP001F0050.0000
 62
     1
420
 16711680
100
AcDbPoint
 10
11.89000000000001
 20
29.21000000000002
 30
0.0
  0
POINT
  5
A2
330
1157
100
AcDbEntity
  8
DP0003.0000NP001F0050.0000
 62
     1
420
 16711680
100
AcDbPoint
 10
11.89
 20
31.75000000000001
 30
0.0
  0
POINT
  5
A3
330
1157
100
AcDbEntity
  8
DP0003.0000NP001F0050.0000
 62
     1
420
 16711680
100
AcDbPoint
 10
11.89000000000001
 20
26.67000000000003
 30
0.0
  0
POINT
  5
A4
330
1157
100
AcDbEntity
  8
DP0003.0000NP001F0050.0000
 62
     1
420
 16711680
100
AcDbPoint
 10
16.97000000000001
 20
25.40000000000001
 30
0.0
  0
POINT
  5
A5
330
1157
100
AcDbEntity
  8
DP0003.0000NP001F0050.0000
 62
     1
420
 16711680
100
AcDbPoint
 10
19.51000000000001
 20
25.40000000000001
 30
0.0
  0
POINT
  5
A6
330
1157
100
AcDbEntity
  8
DP0003.0000NP001F0050.0000
 62
     1
420
 16711680
100
AcDbPoint
 10
22.05
 20
25.4
 30
0.0
  0
POINT
  5
A7
330
1157
100
AcDbEntity
  8
DP0003.0000NP001F0050.0000
 62
     1
420
 16711680
100
AcDbPoint
 10
27.13
 20
25.4
 30
0.0
  0
POINT
  5
A8
330
1157
100
AcDbEntity
  8
DP0003.0000NP001F0050.0000
 62
     1
420
 16711680
100
AcDbPoint
 10
24.59000000000002
 20
25.40000000000001
 30
0.0
  0
POINT
  5
A9
330
1157
100
AcDbEntity
  8
DP0003.0000NP001F0050.0000
 62
     1
420
 16711680
100
AcDbPoint
 10
29.66999999999999
 20
25.39999999999999
 30
0.0
  0
POINT
  5
AA
330
1157
100
AcDbEntity
  8
DP0003.0000NP001F0050.0000
 62
     1
420
 16711680
100
AcDbPoint
 10
32.20999999999999
 20
25.40000000000001
 30
0.0
  0
POINT
  5
AB
330
1157
100
AcDbEntity
  8
DP0003.0000NP001F0050.0000
 62
     1
420
 16711680
100
AcDbPoint
 10
32.20999999999999
 20
22.86
 30
0.0
  0
POINT
  5
AC
330
1157
100
AcDbEntity
  8
DP0003.0000NP001F0050.0000
 62
     1
420
 16711680
100
AcDbPoint
 10
29.67
 20
22.86
 30
0.0
  0
POINT
  5
AD
330
1157
100
AcDbEntity
  8
DP0003.0000NP001F0050.0000
 62
     1
420
 16711680
100
AcDbPoint
 10
27.13
 20
22.86000000000001
 30
0.0
  0
POINT
  5
AE
330
1157
100
AcDbEntity
  8
DP0003.0000NP001F0050.0000
 62
     1
420
 16711680
100
AcDbPoint
 10
32.21
 20
33.02000000000001
 30
0.0
  0
POINT
  5
AF
330
1157
100
AcDbEntity
  8
DP0003.0000NP001F0050.0000
 62
     1
420
 16711680
100
AcDbPoint
 10
29.67000000000001
 20
33.02000000000001
 30
0.0
  0
POINT
  5
B0
330
1157
100
AcDbEntity
  8
DP0003.0000NP001F0050.0000
 62
     1
420
 16711680
100
AcDbPoint
 10
27.13
 20
33.02000000000001
 30
0.0
  0
POINT
  5
B1
330
1157
100
AcDbEntity
  8
DP0003.0000NP001F0050.0000
 62
     1
420
 16711680
100
AcDbPoint
 10
24.59000000000001
 20
33.02000000000001
 30
0.0
  0
POINT
  5
B2
330
1157
100
AcDbEntity
  8
DP0003.0000NP001F0050.0000
 62
     1
420
 16711680
100
AcDbPoint
 10
22.04999999999999
 20
33.02
 30
0.0
  0
POINT
  5
B3
330
1157
100
AcDbEntity
  8
DP0003.0000NP001F0050.0000
 62
     1
420
 16711680
100
AcDbPoint
 10
19.51000000000001
 20
33.02000000000001
 30
0.0
  0
POINT
  5
B4
330
1157
100
AcDbEntity
  8
DP0003.0000NP001F0050.0000
 62
     1
420
 16711680
100
AcDbPoint
 10
16.97
 20
33.02
 30
0.0
  0
POINT
  5
B5
330
1157
100
AcDbEntity
  8
DP0003.0000NP001F0050.0000
 62
     1
420
 16711680
100
AcDbPoint
 10
16.97
 20
35.56
 30
0.0
  0
POINT
  5
B6
330
1157
100
AcDbEntity
  8
DP0003.0000NP001F0050.0000
 62
     1
420
 16711680
100
AcDbPoint
 10
19.51000000000001
 20
35.56
 30
0.0
  0
POINT
  5
B7
330
1157
100
AcDbEntity
  8
DP0003.0000NP001F0050.0000
 62
     1
420
 16711680
100
AcDbPoint
 10
24.59
 20
35.56
 30
0.0
  0
POINT
  5
B8
330
1157
100
AcDbEntity
  8
DP0003.0000NP001F0050.0000
 62
     1
420
 16711680
100
AcDbPoint
 10
29.66999999999999
 20
35.56
 30
0.0
  0
POINT
  5
B9
330
1157
100
AcDbEntity
  8
DP0003.0000NP001F0050.0000
 62
     1
420
 16711680
100
AcDbPoint
 10
19.51000000000001
 20
43.18
 30
0.0
  0
POINT
  5
BA
330
1157
100
AcDbEntity
  8
DP0003.0000NP001F0050.0000
 62
     1
420
 16711680
100
AcDbPoint
 10
24.59
 20
43.17999999999999
 30
0.0
  0
POINT
  5
BB
330
1157
100
AcDbEntity
  8
DP0003.0000NP001F0050.0000
 62
     1
420
 16711680
100
AcDbPoint
 10
29.67000000000001
 20
43.18000000000001
 30
0.0
  0
POINT
  5
BC
330
1157
100
AcDbEntity
  8
DP0003.0000NP001F0050.0000
 62
     1
420
 16711680
100
AcDbPoint
 10
14.43000000000001
 20
43.18000000000001
 30
0.0
  0
POINT
  5
BD
330
1157
100
AcDbEntity
  8
DP0003.0000NP001F0050.0000
 62
     1
420
 16711680
100
AcDbPoint
 10
9.349999999999994
 20
43.17999999999999
 30
0.0
  0
POINT
  5
BE
330
1157
100
AcDbEntity
  8
DP0003.0000NP001F0050.0000
 62
     1
420
 16711680
100
AcDbPoint
 10
32.20999999999999
 20
10.16000000000001
 30
0.0
  0
POINT
  5
BF
330
1157
100
AcDbEntity
  8
DP0003.0000NP001F0050.0000
 62
     1
420
 16711680
100
AcDbPoint
 10
29.67
 20
5.080000000000021
 30
0.0
  0
POINT
  5
C0
330
1157
100
AcDbEntity
  8
DP0003.0000NP001F0050.0000
 62
     1
420
 16711680
100
AcDbPoint
 10
27.13
 20
12.70000000000001
 30
0.0
  0
POINT
  5
C1
330
1157
100
AcDbEntity
  8
DP0003.0000NP001F0050.0000
 62
     1
420
 16711680
100
AcDbPoint
 10
4.269999999999996
 20
35.56000000000001
 30
0.0
  0
POINT
  5
C2
330
1157
100
AcDbEntity
  8
DP0003.0000NP001F0050.0000
 62
     1
420
 16711680
100
AcDbPoint
 10
6.810000000000009
 20
36.83000000000001
 30
0.0
  0
POINT
  5
C3
330
1157
100
AcDbEntity
  8
DP0003.0000NP001F0050.0000
 62
     1
420
 16711680
100
AcDbPoint
 10
9.349999999999994
 20
36.82999999999996
 30
0.0
  0
POINT
  5
C4
330
1157
100
AcDbEntity
  8
DP0003.0000NP001F0050.0000
 62
     1
420
 16711680
100
AcDbPoint
 10
9.350000000000009
 20
48.26
 30
0.0
  0
POINT
  5
C5
330
1157
100
AcDbEntity
  8
DP0003.0000NP001F0050.0000
 62
     1
420
 16711680
100
AcDbPoint
 10
6.810000000000016
 20
48.26000000000001
 30
0.0
  0
POINT
  5
C6
330
1157
100
AcDbEntity
  8
DP0003.0000NP001F0050.0000
 62
     1
420
 16711680
100
AcDbPoint
 10
11.89000000000001
 20
48.26000000000001
 30
0.0
  0
POINT
  5
C7
330
1157
100
AcDbEntity
  8
DP0003.0000NP001F0050.0000
 62
     1
420
 16711680
100
AcDbPoint
 10
14.43000000000002
 20
48.26000000000001
 30
0.0
  0
POINT
  5
C8
330
1157
100
AcDbEntity
  8
DP0003.0000NP001F0050.0000
 62
     1
420
 16711680
100
AcDbPoint
 10
16.97000000000001
 20
48.26000000000001
 30
0.0
  0
POINT
  5
C9
330
1157
100
AcDbEntity
  8
DP0003.0000NP001F0050.0000
 62
     1
420
 16711680
100
AcDbPoint
 10
19.51000000000002
 20
48.26000000000001
 30
0.0
  0
POINT
  5
CA
330
1157
100
AcDbEntity
  8
DP0003.0000NP001F0050.0000
 62
     1
420
 16711680
100
AcDbPoint
 10
22.05
 20
48.26
 30
0.0
  0
POINT
  5
CB
330
1157
100
AcDbEntity
  8
DP0003.0000NP001F0050.0000
 62
     1
420
 16711680
100
AcDbPoint
 10
24.59
 20
48.26
 30
0.0
  0
POINT
  5
CC
330
1157
100
AcDbEntity
  8
DP0003.0000NP001F0050.0000
 62
     1
420
 16711680
100
AcDbPoint
 10
27.13
 20
48.26000000000001
 30
0.0
  0
POINT
  5
CD
330
1157
100
AcDbEntity
  8
DP0003.0000NP001F0050.0000
 62
     1
420
 16711680
100
AcDbPoint
 10
29.67000000000002
 20
48.26000000000001
 30
0.0
  0
POINT
  5
CE
330
1157
100
AcDbEntity
  8
DP0003.0000NP001F0050.0000
 62
     1
420
 16711680
100
AcDbPoint
 10
29.67000000000001
 20
52.07000000000001
 30
0.0
  0
POINT
  5
CF
330
1157
100
AcDbEntity
  8
DP0003.0000NP001F0050.0000
 62
     1
420
 16711680
100
AcDbPoint
 10
27.12999999999999
 20
52.07000000000001
 30
0.0
  0
POINT
  5
D0
330
1157
100
AcDbEntity
  8
DP0003.0000NP001F0050.0000
 62
     1
420
 16711680
100
AcDbPoint
 10
24.59000000000002
 20
52.07000000000001
 30
0.0
  0
POINT
  5
D1
330
1157
100
AcDbEntity
  8
DP0003.0000NP001F0050.0000
 62
     1
420
 16711680
100
AcDbPoint
 10
22.05000000000001
 20
52.07000000000001
 30
0.0
  0
POINT
  5
D2
330
1157
100
AcDbEntity
  8
DP0003.0000NP001F0050.0000
 62
     1
420
 16711680
100
AcDbPoint
 10
19.51000000000002
 20
52.07000000000001
 30
0.0
  0
POINT
  5
D3
330
1157
100
AcDbEntity
  8
DP0003.0000NP001F0050.0000
 62
     1
420
 16711680
100
AcDbPoint
 10
16.97000000000001
 20
52.07000000000001
 30
0.0
  0
POINT
  5
D4
330
1157
100
AcDbEntity
  8
DP0003.0000NP001F0050.0000
 62
     1
420
 16711680
100
AcDbPoint
 10
14.43000000000001
 20
52.07000000000001
 30
0.0
  0
POINT
  5
D5
330
1157
100
AcDbEntity
  8
DP0003.0000NP001F0050.0000
 62
     1
420
 16711680
100
AcDbPoint
 10
11.89000000000002
 20
52.07000000000001
 30
0.0
  0
POINT
  5
D6
330
1157
100
AcDbEntity
  8
DP0003.0000NP001F0050.0000
 62
     1
420
 16711680
100
AcDbPoint
 10
9.350000000000001
 20
52.07000000000001
 30
0.0
  0
POINT
  5
D7
330
1157
100
AcDbEntity
  8
DP0003.0000NP001F0050.0000
 62
     1
420
 16711680
100
AcDbPoint
 10
32.20999999999999
 20
52.07
 30
0.0
  0
POINT
  5
D8
330
1157
100
AcDbEntity
  8
DP0003.0000NP001F0050.0000
 62
     1
420
 16711680
100
AcDbPoint
 10
32.21000000000001
 20
49.53000000000002
 30
0.0
  0
POINT
  5
D9
330
1157
100
AcDbEntity
  8
DP0003.0000NP001F0050.0000
 62
     1
420
 16711680
100
AcDbPoint
 10
41.1
 20
49.53000000000001
 30
0.0
  0
POINT
  5
DA
330
1157
100
AcDbEntity
  8
DP0003.0000NP001F0050.0000
 62
     1
420
 16711680
100
AcDbPoint
 10
38.56000000000002
 20
52.07
 30
0.0
  0
POINT
  5
DB
330
1157
100
AcDbEntity
  8
DP0003.0000NP001F0050.0000
 62
     1
420
 16711680
100
AcDbPoint
 10
38.56000000000003
 20
54.61000000000001
 30
0.0
  0
POINT
  5
DC
330
1157
100
AcDbEntity
  8
DP0003.0000NP001F0050.0000
 62
     1
420
 16711680
100
AcDbPoint
 10
38.56
 20
57.15
 30
0.0
  0
POINT
  5
DD
330
1157
100
AcDbEntity
  8
DP0003.0000NP001F0050.0000
 62
     1
420
 16711680
100
AcDbPoint
 10
38.56000000000002
 20
59.69
 30
0.0
  0
POINT
  5
DE
330
1157
100
AcDbEntity
  8
DP0003.0000NP001F0050.0000
 62
     1
420
 16711680
100
AcDbPoint
 10
38.56
 20
62.23
 30
0.0
  0
POINT
  5
DF
330
1157
100
AcDbEntity
  8
DP0003.0000NP001F0050.0000
 62
     1
420
 16711680
100
AcDbPoint
 10
38.56000000000002
 20
64.77
 30
0.0
  0
POINT
  5
E0
330
1157
100
AcDbEntity
  8
DP0003.0000NP001F0050.0000
 62
     1
420
 16711680
100
AcDbPoint
 10
38.56000000000001
 20
67.31000000000002
 30
0.0
  0
POINT
  5
E1
330
1157
100
AcDbEntity
  8
DP0003.0000NP001F0050.0000
 62
     1
420
 16711680
100
AcDbPoint
 10
38.56000000000001
 20
69.85
 30
0.0
  0
POINT
  5
E2
330
1157
100
AcDbEntity
  8
DP0003.0000NP001F0050.0000
 62
     1
420
 16711680
100
AcDbPoint
 10
29.67
 20
69.84999999999998
 30
0.0
  0
POINT
  5
E3
330
1157
100
AcDbEntity
  8
DP0003.0000NP001F0050.0000
 62
     1
420
 16711680
100
AcDbPoint
 10
29.67
 20
64.76999999999998
 30
0.0
  0
POINT
  5
E4
330
1157
100
AcDbEntity
  8
DP0003.0000NP001F0050.0000
 62
     1
420
 16711680
100
AcDbPoint
 10
24.59
 20
64.77
 30
0.0
  0
POINT
  5
E5
330
1157
100
AcDbEntity
  8
DP0003.0000NP001F0050.0000
 62
     1
420
 16711680
100
AcDbPoint
 10
24.59
 20
69.85
 30
0.0
  0
POINT
  5
E6
330
1157
100
AcDbEntity
  8
DP0003.0000NP001F0050.0000
 62
     1
420
 16711680
100
AcDbPoint
 10
19.51000000000003
 20
69.85000000000001
 30
0.0
  0
POINT
  5
E7
330
1157
100
AcDbEntity
  8
DP0003.0000NP001F0050.0000
 62
     1
420
 16711680
100
AcDbPoint
 10
19.51000000000001
 20
64.77
 30
0.0
  0
POINT
  5
E8
330
1157
100
AcDbEntity
  8
DP0003.0000NP001F0050.0000
 62
     1
420
 16711680
100
AcDbPoint
 10
14.43000000000001
 20
64.77000000000001
 30
0.0
  0
POINT
  5
E9
330
1157
100
AcDbEntity
  8
DP0003.0000NP001F0050.0000
 62
     1
420
 16711680
100
AcDbPoint
 10
14.43000000000002
 20
69.85000000000001
 30
0.0
  0
POINT
  5
1044
330
1157
100
AcDbEntity
  8
DP0003.0000NP001F0050.0000
 62
     1
420
 16711680
100
AcDbPoint
 10
9.350000000000014
 20
69.85
 30
0.0
  0
POINT
  5
EC
330
1157
100
AcDbEntity
  8
DP0003.0000NP001F0050.0000
 62
     1
420
 16711680
100
AcDbPoint
 10
9.350000000000016
 20
62.23000000000002
 30
0.0
  0
POINT
  5
B70
330
1157
100
AcDbEntity
  8
DP0003.0000NP001F0050.0000
 62
     1
420
 16711680
100
AcDbPoint
 10
9.350000000000009
 20
64.77
 30
0.0
  0
POINT
  5
ED
330
1157
100
AcDbEntity
  8
DP0003.0000NP001F0050.0000
 62
     1
420
 16711680
100
AcDbPoint
 10
11.89
 20
62.23
 30
0.0
  0
POINT
  5
EE
330
1157
100
AcDbEntity
  8
DP0003.0000NP001F0050.0000
 62
     1
420
 16711680
100
AcDbPoint
 10
14.43000000000002
 20
62.23000000000001
 30
0.0
  0
POINT
  5
EF
330
1157
100
AcDbEntity
  8
DP0003.0000NP001F0050.0000
 62
     1
420
 16711680
100
AcDbPoint
 10
16.97000000000001
 20
62.23
 30
0.0
  0
POINT
  5
F0
330
1157
100
AcDbEntity
  8
DP0003.0000NP001F0050.0000
 62
     1
420
 16711680
100
AcDbPoint
 10
19.51000000000001
 20
62.23
 30
0.0
  0
POINT
  5
F1
330
1157
100
AcDbEntity
  8
DP0003.0000NP001F0050.0000
 62
     1
420
 16711680
100
AcDbPoint
 10
22.05
 20
62.22999999999999
 30
0.0
  0
POINT
  5
F2
330
1157
100
AcDbEntity
  8
DP0003.0000NP001F0050.0000
 62
     1
420
 16711680
100
AcDbPoint
 10
24.59
 20
62.23
 30
0.0
  0
POINT
  5
F3
330
1157
100
AcDbEntity
  8
DP0003.0000NP001F0050.0000
 62
     1
420
 16711680
100
AcDbPoint
 10
27.13
 20
62.23
 30
0.0
  0
POINT
  5
F4
330
1157
100
AcDbEntity
  8
DP0003.0000NP001F0050.0000
 62
     1
420
 16711680
100
AcDbPoint
 10
29.66999999999999
 20
62.23
 30
0.0
  0
POINT
  5
1139
330
1157
100
AcDbEntity
  8
DP0003.0000NP001F0050.0000
 62
     1
420
 16711680
100
AcDbPoint
 10
32.20999999999995
 20
62.22999999999998
 30
0.0
  0
POINT
  5
F5
330
1157
100
AcDbEntity
  8
DP0003.0000NP001F0050.0000
 62
     1
420
 16711680
100
AcDbPoint
 10
71.58000000000001
 20
54.61
 30
0.0
  0
POINT
  5
538
330
1157
100
AcDbEntity
  8
DP0003.0000NP001F0050.0000
 62
     1
420
 16711680
100
AcDbPoint
 10
74.12
 20
59.69
 30
0.0
  0
POINT
  5
F7
330
1157
100
AcDbEntity
  8
DP0003.0000NP001F0050.0000
 62
     1
420
 16711680
100
AcDbPoint
 10
74.12
 20
57.14999999999998
 30
0.0
  0
POINT
  5
F8
330
1157
100
AcDbEntity
  8
DP0003.0000NP001F0050.0000
 62
     1
420
 16711680
100
AcDbPoint
 10
74.12
 20
62.22999999999999
 30
0.0
  0
POINT
  5
F9
330
1157
100
AcDbEntity
  8
DP0003.0000NP001F0050.0000
 62
     1
420
 16711680
100
AcDbPoint
 10
74.12
 20
64.77000000000001
 30
0.0
  0
POINT
  5
FC
330
1157
100
AcDbEntity
  8
DP0003.0000NP001F0050.0000
 62
     1
420
 16711680
100
AcDbPoint
 10
81.74000000000002
 20
64.76999999999998
 30
0.0
  0
POINT
  5
FE
330
1157
100
AcDbEntity
  8
DP0003.0000NP001F0050.0000
 62
     1
420
 16711680
100
AcDbPoint
 10
81.74000000000001
 20
62.22999999999998
 30
0.0
  0
POINT
  5
FF
330
1157
100
AcDbEntity
  8
DP0003.0000NP001F0050.0000
 62
     1
420
 16711680
100
AcDbPoint
 10
89.36000000000001
 20
54.61
 30
0.0
  0
POINT
  5
103
330
1157
100
AcDbEntity
  8
DP0003.0000NP001F0050.0000
 62
     1
420
 16711680
100
AcDbPoint
 10
107.14
 20
67.30999999999999
 30
0.0
  0
POINT
  5
104
330
1157
100
AcDbEntity
  8
DP0003.0000NP001F0050.0000
 62
     1
420
 16711680
100
AcDbPoint
 10
112.22
 20
67.31
 30
0.0
  0
POINT
  5
105
330
1157
100
AcDbEntity
  8
DP0003.0000NP001F0050.0000
 62
     1
420
 16711680
100
AcDbPoint
 10
96.97999999999999
 20
48.26
 30
0.0
  0
POINT
  5
106
330
1157
100
AcDbEntity
  8
DP0003.0000NP001F0050.0000
 62
     1
420
 16711680
100
AcDbPoint
 10
81.74000000000001
 20
45.71999999999999
 30
0.0
  0
POINT
  5
107
330
1157
100
AcDbEntity
  8
DP0003.0000NP001F0050.0000
 62
     1
420
 16711680
100
AcDbPoint
 10
81.74000000000001
 20
43.17999999999999
 30
0.0
  0
POINT
  5
108
330
1157
100
AcDbEntity
  8
DP0003.0000NP001F0050.0000
 62
     1
420
 16711680
100
AcDbPoint
 10
76.66
 20
48.26
 30
0.0
  0
POINT
  5
109
330
1157
100
AcDbEntity
  8
DP0003.0000NP001F0050.0000
 62
     1
420
 16711680
100
AcDbPoint
 10
76.66000000000001
 20
45.72
 30
0.0
  0
POINT
  5
10A
330
1157
100
AcDbEntity
  8
DP0003.0000NP001F0050.0000
 62
     1
420
 16711680
100
AcDbPoint
 10
76.66
 20
43.18
 30
0.0
  0
POINT
  5
10B
330
1157
100
AcDbEntity
  8
DP0003.0000NP001F0050.0000
 62
     1
420
 16711680
100
AcDbPoint
 10
76.66
 20
40.63999999999999
 30
0.0
  0
POINT
  5
10D
330
1157
100
AcDbEntity
  8
DP0003.0000NP001F0050.0000
 62
     1
420
 16711680
100
AcDbPoint
 10
76.66000000000001
 20
38.09999999999999
 30
0.0
  0
POINT
  5
110
330
1157
100
AcDbEntity
  8
DP0003.0000NP001F0050.0000
 62
     1
420
 16711680
100
AcDbPoint
 10
81.74000000000001
 20
38.09999999999999
 30
0.0
  0
CIRCLE
  5
113
330
1157
100
AcDbEntity
  8
DP0000.1000NP001F0200.0000
 62
     7
100
AcDbCircle
 10
117.3
 20
27.94000000000001
 30
0.0
 40
1.15
  0
CIRCLE
  5
114
330
1157
100
AcDbEntity
  8
DP0000.1000NP001F0200.0000
 62
     7
100
AcDbCircle
 10
114.76
 20
27.93999999999999
 30
0.0
 40
1.15
  0
CIRCLE
  5
115
330
1157
100
AcDbEntity
  8
DP0000.1000NP001F0200.0000
 62
     7
100
AcDbCircle
 10
112.22
 20
27.94000000000001
 30
0.0
 40
1.15
  0
CIRCLE
  5
116
330
1157
100
AcDbEntity
  8
DP0000.1000NP001F0200.0000
 62
     7
100
AcDbCircle
 10
109.68
 20
27.93999999999999
 30
0.0
 40
1.149999999999999
  0
CIRCLE
  5
117
330
1157
100
AcDbEntity
  8
DP0000.1000NP001F0200.0000
 62
     7
100
AcDbCircle
 10
96.97999999999999
 20
27.94
 30
0.0
 40
1.149999999999999
  0
CIRCLE
  5
118
330
1157
100
AcDbEntity
  8
DP0000.1000NP001F0200.0000
 62
     7
100
AcDbCircle
 10
81.73999999999998
 20
27.94
 30
0.0
 40
1.149999999999999
  0
CIRCLE
  5
119
330
1157
100
AcDbEntity
  8
DP0000.1000NP001F0200.0000
 62
     7
100
AcDbCircle
 10
79.20000000000002
 20
27.94
 30
0.0
 40
1.149999999999999
  0
LWPOLYLINE
  5
560
330
1157
100
AcDbEntity
  8
DP0000.1000NP001F0200.0000
 62
     7
100
AcDbPolyline
 90
        5
 70
   128
 43
0.0
 10
90.16
 20
53.78386441790709
 10
90.16
 20
51.62613558209291
 42
-2.470169477616152
 10
88.56
 20
51.6261355820929
 10
88.56000000000002
 20
53.78386441790708
 42
-2.470169477616152
 10
90.16
 20
53.78386441790709
  0
CIRCLE
  5
122
330
1157
100
AcDbEntity
  8
DP0000.1000NP001F0200.0000
 62
     7
100
AcDbCircle
 10
109.68
 20
50.79999999999999
 30
0.0
 40
1.149999999999999
  0
CIRCLE
  5
123
330
1157
100
AcDbEntity
  8
DP0000.1000NP001F0200.0000
 62
     7
100
AcDbCircle
 10
107.14
 20
50.79999999999999
 30
0.0
 40
1.149999999999999
  0
CIRCLE
  5
12C
330
1157
100
AcDbEntity
  8
DP0000.1000NP001F0200.0000
 62
     7
100
AcDbCircle
 10
81.74
 20
50.79999999999999
 30
0.0
 40
1.149999999999999
  0
CIRCLE
  5
2FE
330
1157
100
AcDbEntity
  8
DP0000.1000NP001F0200.0000
 62
     7
100
AcDbCircle
 10
84.28
 20
50.8
 30
0.0
 40
1.149999999999999
  0
LWPOLYLINE
  5
C6E
330
1157
100
AcDbEntity
  8
DP0000.1000NP001F0200.0000
 62
     7
100
AcDbPolyline
 90
       34
 70
   128
 43
0.0
 10
31.41
 20
50.35613558209294
 10
31.41
 20
51.24386441790708
 42
-0.3317188907686308
 10
31.18980635200734
 20
52.60075881584333
 10
30.3633926239551
 20
55.08000000000001
 10
28.9766073760449
 20
55.08000000000001
 10
28.15019364799272
 20
52.60075881584336
 42
-1.647489983054095
 10
26.10980635200731
 20
52.60075881584334
 10
25.28339262395509
 20
55.08
 10
23.8966073760449
 20
55.08000000000001
 10
23.0701936479927
 20
52.60075881584335
 42
-1.647489983054095
 10
21.0298063520073
 20
52.60075881584332
 10
20.2033926239551
 20
55.08
 10
18.81660737604491
 20
55.08000000000001
 10
17.9901936479927
 20
52.60075881584334
 42
-1.647489983054095
 10
15.94980635200732
 20
52.60075881584334
 10
15.12339262395511
 20
55.08000000000001
 10
13.7366073760449
 20
55.08
 10
12.91019364799271
 20
52.60075881584335
 42
-2.470169477616186
 10
11.3923003711119
 20
53.10672324147028
 10
12.58339262395512
 20
56.68
 10
16.27660737604489
 20
56.67999999999999
 10
16.97000000000001
 20
54.5998221281347
 10
17.66339262395511
 20
56.68000000000001
 10
21.3566073760449
 20
56.67999999999999
 10
22.05
 20
54.5998221281347
 10
22.7433926239551
 20
56.68
 10
26.4366073760449
 20
56.67999999999999
 10
27.13000000000001
 20
54.5998221281347
 10
27.82339262395512
 20
56.68000000000001
 10
31.51660737604492
 20
56.67999999999999
 10
32.70769962888815
 20
53.10672324147028
 42
-0.522101573869009
 10
33.00999999999999
 20
51.24386441790708
 10
33.00999999999999
 20
50.35613558209293
 42
-2.47016947761617
 10
31.41
 20
50.35613558209294
  0
CIRCLE
  5
153
330
1157
100
AcDbEntity
  8
DP0000.1000NP001F0200.0000
 62
     7
100
AcDbCircle
 10
19.51000000000001
 20
25.40000000000001
 30
0.0
 40
1.150000000000006
  0
CIRCLE
  5
154
330
1157
100
AcDbEntity
  8
DP0000.1000NP001F0200.0000
 62
     7
100
AcDbCircle
 10
22.05
 20
25.4
 30
0.0
 40
1.150000000000006
  0
LWPOLYLINE
  5
155
330
1157
100
AcDbEntity
  8
DP0000.1000NP001F0200.0000
 62
     7
100
AcDbPolyline
 90
        5
 70
     0
 43
0.0
 10
30.47
 20
24.57386441790707
 10
30.47
 20
23.68613558209294
 42
-2.470169477616176
 10
28.87000000000001
 20
23.68613558209294
 10
28.87000000000001
 20
24.57386441790708
 42
-2.470169477616178
 10
30.47
 20
24.57386441790707
  0
LWPOLYLINE
  5
15F
330
1157
100
AcDbEntity
  8
DP0000.1000NP001F0200.0000
 62
     7
100
AcDbPolyline
 90
        7
 70
     0
 43
0.0
 10
107.94
 20
27.1138644179071
 42
2.470169477616137
 10
106.34
 20
27.1138644179071
 10
106.34
 20
5.879999999999987
 10
30.49613558209292
 20
5.880000000000028
 42
2.470169477616149
 10
30.49613558209292
 20
4.280000000000035
 10
107.94
 20
4.27999999999997
 10
107.94
 20
27.1138644179071
  0
LWPOLYLINE
  5
17C
330
1157
100
AcDbEntity
  8
DP0000.1000NP001F0200.0000
 62
     7
100
AcDbPolyline
 90
        5
 70
     0
 43
0.0
 10
33.00999999999999
 20
23.68613558209294
 42
-2.470169477616168
 10
31.41
 20
23.68613558209294
 10
31.41
 20
24.57386441790708
 42
-2.470169477616178
 10
33.00999999999999
 20
24.57386441790708
 10
33.00999999999999
 20
23.68613558209294
  0
LWPOLYLINE
  5
17F
330
1157
100
AcDbEntity
  8
DP0000.1000NP001F0200.0000
 62
     7
100
AcDbPolyline
 90
        9
 70
     0
 43
0.0
 10
11.5586291501015
 20
9.360000000000024
 10
6.010000000000005
 20
14.90862915010152
 10
6.010000000000005
 20
36.00386441790707
 42
-2.470169477616168
 10
7.610000000000014
 20
36.00386441790707
 10
7.609999999999999
 20
15.57137084989848
 10
12.22137084989851
 20
10.96
 10
31.38386441790706
 20
10.96000000000001
 42
-2.470169477616121
 10
31.38386441790708
 20
9.360000000000001
 10
11.5586291501015
 20
9.360000000000024
  0
LWPOLYLINE
  5
182
330
1157
100
AcDbEntity
  8
DP0000.1000NP001F0200.0000
 62
     7
100
AcDbPolyline
 90
        9
 70
     0
 43
0.0
 10
8.550000000000004
 20
51.2438644179071
 42
-2.470169477616168
 10
10.15000000000001
 20
51.24386441790709
 10
10.15000000000001
 20
49.08613558209292
 42
-0.4236592728681645
 10
10.15000000000001
 20
47.43386441790707
 10
10.15000000000001
 20
44.00613558209292
 42
-2.470169477616168
 10
8.549999999999997
 20
44.00613558209291
 10
8.549999999999983
 20
47.43386441790706
 42
-0.4236592728681657
 10
8.550000000000018
 20
49.08613558209296
 10
8.550000000000004
 20
51.2438644179071
  0
LWPOLYLINE
  5
185
330
1157
100
AcDbEntity
  8
DP0000.1000NP001F0200.0000
 62
     7
100
AcDbPolyline
 90
        8
 70
     0
 43
0.0
 10
10.15000000000001
 20
63.94386441790709
 42
2.4701694776162
 10
8.550000000000011
 20
63.94386441790708
 10
8.550000000000004
 20
63.05613558209296
 42
1.0162013530847
 10
10.1761355820929
 20
61.43000000000002
 10
11.0638644179071
 20
61.43
 42
2.470169477616184
 10
11.06386441790713
 20
63.03000000000003
 10
10.15000000000002
 20
63.03000000000002
 10
10.15
 20
63.94386441790705
  0
LWPOLYLINE
  5
ADA
330
1157
100
AcDbEntity
  8
DP0000.1000NP001F0200.0000
 62
     7
100
AcDbPolyline
 90
       29
 70
   128
 43
0.0
 10
54.24386441790706
 20
28.74
 42
-0.4236592728681685
 10
55.89613558209292
 20
28.74
 10
75.83386441790714
 20
28.74000000000004
 42
-2.470169477615946
 10
75.83386441790708
 20
27.14
 10
55.89613558209292
 20
27.14
 42
-0.4236592728681621
 10
54.24386441790708
 20
27.14
 10
49.54613558209292
 20
27.13999999999999
 42
-0.2921804771909979
 10
48.34126246479944
 20
26.85415568361288
 10
46.38710678118655
 20
24.9
 10
35.752408120756
 20
24.90000000000001
 10
34.05907478742266
 20
27.44000000000001
 10
17.47
 20
27.44
 10
17.46999999999999
 20
26.43561575886041
 42
-4.37123151772082
 10
16.47
 20
26.43561575886041
 10
16.47000000000001
 20
27.24037887487647
 10
12.4974407390416
 20
28.23351869011609
 42
-2.470169477616214
 10
12.88549773909971
 20
29.78574669034862
 10
18.2684845004941
 20
28.44000000000001
 10
34.59425854591065
 20
28.44000000000001
 10
36.28759187924399
 20
25.89999999999999
 10
45.97289321881345
 20
25.9
 10
47.63415568361287
 20
27.56126246479944
 42
-0.2921804771910005
 10
47.92
 20
28.76613558209294
 10
47.92000000000002
 20
32.22000000000001
 10
47.00613558209294
 20
32.22000000000001
 42
-2.470169477616178
 10
47.00613558209294
 20
33.82000000000001
 10
49.51999999999999
 20
33.82
 10
49.52
 20
28.74000000000001
 10
54.24386441790706
 20
28.74
  0
LWPOLYLINE
  5
1D5
330
1157
100
AcDbEntity
  8
DP0000.1000NP001F0200.0000
 62
     7
100
AcDbPolyline
 90
        9
 70
     0
 43
0.0
 10
38.06746198111466
 20
31.42774798493229
 10
38.68011030809726
 20
31.73407214842359
 42
-4.371231517720824
 10
39.12732390359722
 20
30.83964495742365
 10
38.30352995861446
 20
30.42774798493229
 10
26.63
 20
30.42774798493229
 10
26.63
 20
31.9843842411396
 42
-4.371231517720833
 10
27.63
 20
31.98438424113961
 10
27.63000000000001
 20
31.4277479849323
 10
38.06746198111466
 20
31.42774798493229
  0
LWPOLYLINE
  5
202
330
1157
100
AcDbEntity
  8
DP0000.1000NP001F0200.0000
 62
     7
100
AcDbPolyline
 90
        8
 70
     0
 43
0.0
 10
15.23
 20
63.03
 10
16.14386441790712
 20
63.03000000000002
 42
-2.470169477616184
 10
16.14386441790711
 20
61.43000000000002
 10
15.25613558209291
 20
61.43000000000001
 42
-1.0162013530847
 10
13.63000000000001
 20
63.05613558209296
 10
13.63
 20
63.94386441790706
 42
-2.4701694776162
 10
15.23
 20
63.94386441790706
 10
15.23
 20
63.03
  0
LWPOLYLINE
  5
205
330
1157
100
AcDbEntity
  8
DP0000.1000NP001F0200.0000
 62
     7
100
AcDbPolyline
 90
        9
 70
     0
 43
0.0
 10
15.23
 20
49.0861355820929
 42
-0.4236592728681673
 10
15.23000000000002
 20
47.43386441790708
 10
15.23
 20
44.00613558209291
 42
-2.470169477616168
 10
13.63
 20
44.00613558209292
 10
13.63000000000001
 20
47.4338644179071
 42
-0.4236592728681674
 10
13.63
 20
49.08613558209291
 10
13.63
 20
51.24386441790708
 42
-2.470169477616168
 10
15.23000000000001
 20
51.24386441790709
 10
15.23
 20
49.0861355820929
  0
LWPOLYLINE
  5
20A
330
1157
100
AcDbEntity
  8
DP0000.1000NP001F0200.0000
 62
     7
100
AcDbPolyline
 90
        5
 70
     0
 43
0.0
 10
27.93000000000001
 20
24.57386441790709
 42
2.470169477616174
 10
26.33
 20
24.57386441790707
 10
26.33
 20
23.68613558209293
 42
2.470169477616176
 10
27.93000000000001
 20
23.68613558209293
 10
27.93000000000001
 20
24.57386441790709
  0
LWPOLYLINE
  5
20B
330
1157
100
AcDbEntity
  8
DP0000.1000NP001F0200.0000
 62
     7
100
AcDbPolyline
 90
       13
 70
     0
 43
0.0
 10
33.95
 20
23.66000000000005
 10
33.95000000000002
 20
21.12000000000003
 10
25.39000000000001
 20
21.12
 10
25.39
 20
24.57386441790708
 42
2.470169477616179
 10
23.79000000000002
 20
24.57386441790709
 10
23.79000000000001
 20
19.52
 10
35.55000000000001
 20
19.52
 10
35.55
 20
22.06
 10
87.61999999999999
 20
22.06
 10
87.62
 20
27.11386441790708
 42
2.470169477616158
 10
86.02000000000001
 20
27.11386441790708
 10
86.02
 20
23.6600000000002
 10
33.95
 20
23.66000000000005
  0
LINE
  5
210
330
1157
100
AcDbEntity
  8
DP0000.1000NP001F0200.0000
 62
     7
100
AcDbLine
 10
87.64613558209291
 20
24.59999999999999
 30
0.0
 11
87.62
 21
24.60000000000001
 31
0.0
  0
LWPOLYLINE
  5
213
330
1157
100
AcDbEntity
  8
DP0000.1000NP001F0200.0000
 62
     7
100
AcDbPolyline
 90
        8
 70
     0
 43
0.0
 10
20.31
 20
63.03000000000001
 10
21.2238644179071
 20
63.03000000000001
 42
-2.470169477616184
 10
21.22386441790711
 20
61.43000000000001
 10
20.33613558209289
 20
61.43000000000001
 42
-1.0162013530847
 10
18.70999999999999
 20
63.05613558209294
 10
18.71
 20
63.94386441790706
 42
-2.4701694776162
 10
20.31000000000001
 20
63.94386441790709
 10
20.31
 20
63.03000000000001
  0
LWPOLYLINE
  5
C6F
330
1157
100
AcDbEntity
  8
DP0000.1000NP001F0200.0000
 62
     7
100
AcDbPolyline
 90
        9
 70
   128
 43
0.0
 10
20.31
 20
49.08613558209293
 42
-0.4236592728681658
 10
20.31
 20
47.43386441790705
 10
20.31
 20
44.00613558209292
 42
-2.47016947761617
 10
18.70999999999999
 20
44.00613558209292
 10
18.71000000000001
 20
47.43386441790708
 42
-0.4236592728681652
 10
18.71000000000001
 20
49.08613558209292
 10
18.71
 20
51.2438644179071
 42
-2.470169477616165
 10
20.31000000000002
 20
51.24386441790709
 10
20.31000000000002
 20
49.08613558209291
  0
LWPOLYLINE
  5
21B
330
1157
100
AcDbEntity
  8
DP0000.1000NP001F0200.0000
 62
     7
100
AcDbPolyline
 90
        5
 70
     0
 43
0.0
 10
20.31000000000001
 20
33.84613558209293
 42
-2.470169477616168
 10
18.70999999999999
 20
33.84613558209291
 10
18.71
 20
34.73386441790709
 42
-2.470169477616168
 10
20.31
 20
34.73386441790707
 10
20.31000000000001
 20
33.84613558209293
  0
LWPOLYLINE
  5
21D
330
1157
100
AcDbEntity
  8
DP0000.1000NP001F0200.0000
 62
     7
100
AcDbPolyline
 90
        5
 70
     0
 43
0.0
 10
17.96999999999999
 20
34.99210916541995
 42
1.717890834580047
 10
15.97000000000001
 20
34.99210916541995
 10
15.97000000000001
 20
33.58789083458005
 42
1.717890834580047
 10
17.97
 20
33.58789083458003
 10
17.96999999999999
 20
34.99210916541995
  0
LWPOLYLINE
  5
226
330
1157
100
AcDbEntity
  8
DP0000.1000NP001F0200.0000
 62
     7
100
AcDbPolyline
 90
       11
 70
     0
 43
0.0
 10
9.6813708498985
 20
8.42000000000005
 10
5.069999999999993
 20
13.03137084989848
 10
5.070000000000007
 20
34.73386441790711
 42
2.470169477616152
 10
3.470000000000006
 20
34.73386441790711
 10
3.469999999999999
 20
12.36862915010152
 10
9.018629150101503
 20
6.820000000000013
 10
105.4
 20
6.819999999999998
 10
105.4
 20
27.11386441790708
 42
2.470169477616134
 10
103.8
 20
27.11386441790707
 10
103.8
 20
8.42000000000001
 10
9.6813708498985
 20
8.42000000000005
  0
LWPOLYLINE
  5
229
330
1157
100
AcDbEntity
  8
DP0000.1000NP001F0200.0000
 62
     7
100
AcDbPolyline
 90
        8
 70
     0
 43
0.0
 10
26.30386441790714
 20
61.43000000000001
 42
2.470169477616184
 10
26.30386441790712
 20
63.03
 10
25.38999999999999
 20
63.03
 10
25.39000000000002
 20
63.94386441790707
 42
2.470169477616184
 10
23.79000000000002
 20
63.94386441790706
 10
23.79000000000001
 20
63.05613558209296
 42
1.0162013530847
 10
25.41613558209291
 20
61.43000000000001
 10
26.30386441790714
 20
61.43000000000001
  0
LWPOLYLINE
  5
22B
330
1157
100
AcDbEntity
  8
DP0000.1000NP001F0200.0000
 62
     7
100
AcDbPolyline
 90
        9
 70
     0
 43
0.0
 10
23.79000000000001
 20
49.08613558209292
 42
0.423659272868167
 10
23.79000000000002
 20
47.43386441790707
 10
23.79000000000001
 20
44.00613558209292
 42
2.470169477616168
 10
25.39000000000001
 20
44.00613558209292
 10
25.39000000000001
 20
47.43386441790707
 42
0.4236592728681669
 10
25.39000000000001
 20
49.08613558209293
 10
25.38999999999999
 20
51.24386441790708
 42
2.470169477616168
 10
23.79000000000001
 20
51.24386441790709
 10
23.79000000000001
 20
49.08613558209292
  0
LWPOLYLINE
  5
230
330
1157
100
AcDbEntity
  8
DP0000.1000NP001F0200.0000
 62
     7
100
AcDbPolyline
 90
        9
 70
     0
 43
0.0
 10
41.73080927115934
 20
28.8959995879519
 42
-4.371231517720842
 10
41.22385057601629
 20
28.03402923961105
 10
39.69386499237359
 20
28.93387399246614
 10
21.55
 20
28.93387399246615
 10
21.55000000000001
 20
31.98438424113962
 42
-4.371231517720807
 10
22.55
 20
31.9843842411396
 10
22.55
 20
29.93387399246615
 10
39.96613500762642
 20
29.93387399246615
 10
41.73080927115934
 20
28.8959995879519
  0
LWPOLYLINE
  5
233
330
1157
100
AcDbEntity
  8
DP0000.1000NP001F0200.0000
 62
     7
100
AcDbPolyline
 90
        7
 70
     0
 43
0.0
 10
102.86
 20
9.360000000000005
 10
43.19613558209291
 20
9.359999999999996
 42
-2.47016947761614
 10
43.19613558209291
 20
10.96
 10
101.26
 20
10.95999999999998
 10
101.26
 20
27.11386441790708
 42
-2.470169477616134
 10
102.86
 20
27.11386441790708
 10
102.86
 20
9.360000000000005
  0
LWPOLYLINE
  5
238
330
1157
100
AcDbEntity
  8
DP0000.1000NP001F0200.0000
 62
     7
100
AcDbPolyline
 90
        8
 70
     0
 43
0.0
 10
30.46999999999999
 20
63.02999999999999
 10
31.38386441790708
 20
63.03000000000001
 42
-2.470169477616137
 10
31.38386441790705
 20
61.42999999999999
 10
30.49613558209295
 20
61.43000000000001
 42
-1.016201353084698
 10
28.87000000000003
 20
63.05613558209293
 10
28.87000000000001
 20
63.94386441790706
 42
-2.470169477616184
 10
30.47000000000002
 20
63.94386441790707
 10
30.46999999999999
 20
63.02999999999999
  0
LWPOLYLINE
  5
23A
330
1157
100
AcDbEntity
  8
DP0000.1000NP001F0200.0000
 62
     7
100
AcDbPolyline
 90
        9
 70
     0
 43
0.0
 10
30.47
 20
44.00613558209292
 42
-2.470169477616168
 10
28.87000000000002
 20
44.00613558209293
 10
28.87000000000001
 20
47.43386441790707
 42
-0.423659272868167
 10
28.87000000000002
 20
49.08613558209293
 10
28.87000000000002
 20
51.2438644179071
 42
-2.470169477616168
 10
30.47000000000002
 20
51.24386441790709
 10
30.47
 20
49.08613558209292
 42
-0.4236592728681669
 10
30.47
 20
47.43386441790707
 10
30.47
 20
44.00613558209292
  0
LWPOLYLINE
  5
241
330
1157
100
AcDbEntity
  8
DP0000.1000NP001F0200.0000
 62
     7
100
AcDbPolyline
 90
        7
 70
     0
 43
0.0
 10
98.72000000000001
 20
13.49999999999998
 10
40.65613558209292
 20
13.5
 42
2.470169477616148
 10
40.65613558209292
 20
11.9
 10
100.32
 20
11.9
 10
100.32
 20
27.11386441790709
 42
2.470169477616122
 10
98.72
 20
27.11386441790709
 10
98.72
 20
13.49999999999999
  0
LWPOLYLINE
  5
244
330
1157
100
AcDbEntity
  8
DP0000.1000NP001F0200.0000
 62
     7
100
AcDbPolyline
 90
        5
 70
     0
 43
0.0
 10
30.46999999999999
 20
33.84613558209291
 42
-2.470169477616168
 10
28.87
 20
33.84613558209293
 10
28.87
 20
34.73386441790708
 42
-2.470169477616168
 10
30.47
 20
34.73386441790708
 10
30.46999999999999
 20
33.84613558209291
  0
LWPOLYLINE
  5
245
330
1157
100
AcDbEntity
  8
DP0000.1000NP001F0200.0000
 62
     7
100
AcDbPolyline
 90
        5
 70
     0
 43
0.0
 10
25.39
 20
33.84613558209293
 42
-2.470169477616168
 10
23.79000000000002
 20
33.84613558209293
 10
23.79000000000001
 20
34.73386441790709
 42
-2.470169477616168
 10
25.39000000000001
 20
34.73386441790709
 10
25.39
 20
33.84613558209293
  0
LWPOLYLINE
  5
AE5
330
1157
100
AcDbEntity
  8
DP0000.1000NP001F0200.0000
 62
     7
100
AcDbPolyline
 90
        7
 70
   128
 43
0.0
 10
83.48
 20
32.22000000000001
 10
83.48
 20
28.76613558209292
 42
2.470169477616152
 10
85.08
 20
28.76613558209292
 10
85.08000000000001
 20
33.82
 10
55.89613558209292
 20
33.82000000000001
 42
2.4701694776162
 10
55.89613558209292
 20
32.22000000000002
 10
83.48
 20
32.22000000000001
  0
LWPOLYLINE
  5
287
330
1157
100
AcDbEntity
  8
DP0000.1000NP001F0200.0000
 62
     7
100
AcDbPolyline
 90
       11
 70
     0
 43
0.0
 10
93.64
 20
16.04000000000002
 10
93.64
 20
27.11386441790708
 42
-2.470169477616154
 10
95.24
 20
27.11386441790707
 10
95.24
 20
14.43999999999999
 10
16.63862915010149
 20
14.44000000000002
 10
11.09
 20
19.98862915010152
 10
11.09000000000001
 20
25.8438644179071
 42
-2.470169477616168
 10
12.69
 20
25.84386441790709
 10
12.69
 20
20.65137084989849
 10
17.3013708498985
 20
16.04
 10
93.64
 20
16.04000000000002
  0
LWPOLYLINE
  5
288
330
1157
100
AcDbEntity
  8
DP0000.1000NP001F0200.0000
 62
     7
100
AcDbPolyline
 90
        7
 70
     0
 43
0.0
 10
39.36
 20
40.45114561800015
 10
38.37500081683815
 20
35.9411472516765
 42
-2.470169477616151
 10
36.94391731123829
 20
36.6566890044764
 10
37.76000000000001
 20
40.82885438199985
 10
37.76000000000002
 20
51.2438644179071
 42
-2.470169477616168
 10
39.36
 20
51.24386441790708
 10
39.36
 20
40.45114561800015
  0
LWPOLYLINE
  5
289
330
1157
100
AcDbEntity
  8
DP0000.1000NP001F0200.0000
 62
     7
100
AcDbPolyline
 90
        7
 70
     0
 43
0.0
 10
38.11613558209298
 20
19.52000000000006
 42
-2.470169477616045
 10
38.11613558209316
 20
21.12
 10
88.56
 20
21.11999999999999
 10
88.56
 20
27.11386441790708
 42
-2.470169477616152
 10
90.16
 20
27.11386441790707
 10
90.16
 20
19.52
 10
38.11613558209318
 20
19.52
  0
LWPOLYLINE
  5
28A
330
1157
100
AcDbEntity
  8
DP0000.1000NP001F0200.0000
 62
     7
100
AcDbPolyline
 90
        7
 70
     0
 43
0.0
 10
35.54999999999998
 20
36.38613558209292
 42
-2.470169477616176
 10
33.95000000000002
 20
36.3861355820929
 10
33.95000000000003
 20
56.45660737604493
 10
37.52327675852975
 20
57.64769962888816
 42
-2.470169477616132
 10
38.02924118415667
 20
56.1298063520073
 10
35.55000000000001
 20
55.30339262395511
 10
35.54999999999999
 20
36.38613558209294
  0
LWPOLYLINE
  5
28B
330
1157
100
AcDbEntity
  8
DP0000.1000NP001F0200.0000
 62
     7
100
AcDbPolyline
 90
        7
 70
     0
 43
0.0
 10
92.7
 20
16.98
 10
92.70000000000002
 20
27.11386441790706
 42
2.470169477616168
 10
91.1
 20
27.11386441790708
 10
91.1
 20
18.58
 10
35.57613558209293
 20
18.57999999999999
 42
2.470169477616149
 10
35.57613558209293
 20
16.98
 10
92.7
 20
16.98
  0
LWPOLYLINE
  5
291
330
1157
100
AcDbEntity
  8
DP0000.1000NP001F0200.0000
 62
     7
100
AcDbPolyline
 90
        9
 70
     0
 43
0.0
 10
14.7613708498985
 20
13.50000000000002
 10
10.15000000000001
 20
18.11137084989848
 10
10.15000000000001
 20
36.00386441790708
 42
2.470169477616168
 10
8.549999999999997
 20
36.00386441790706
 10
8.549999999999997
 20
17.44862915010153
 10
14.0986291501015
 20
11.90000000000001
 10
26.30386441790711
 20
11.9
 42
2.470169477616148
 10
26.30386441790711
 20
13.5
 10
14.7613708498985
 20
13.50000000000002
  0
LWPOLYLINE
  5
2AB
330
1157
100
AcDbEntity
  8
DP0000.1000NP001F0200.0000
 62
     7
100
AcDbPolyline
 90
        7
 70
   128
 43
0.0
 10
102.86
 20
49.97386441790708
 42
2.470169477616134
 10
101.26
 20
49.97386441790708
 10
101.26
 20
38.89999999999998
 10
82.56613558209293
 20
38.9
 42
2.470169477616154
 10
82.56613558209293
 20
37.29999999999999
 10
102.86
 20
37.29999999999999
 10
102.86
 20
49.97386441790709
  0
LWPOLYLINE
  5
2B2
330
1157
100
AcDbEntity
  8
DP0000.1000NP001F0200.0000
 62
     7
100
AcDbPolyline
 90
        5
 70
   128
 43
0.0
 10
75.83386441790712
 20
38.90000000000003
 42
-2.470169477616075
 10
75.8338644179071
 20
37.29999999999999
 10
47.00613558209294
 20
37.3
 42
-2.470169477616184
 10
47.00613558209291
 20
38.9
 10
75.83386441790715
 20
38.9
  0
LWPOLYLINE
  5
78F
330
1157
100
AcDbEntity
  8
DP0000.1000NP001F0200.0000
 62
     7
100
AcDbPolyline
 90
       66
 70
   128
 43
0.0
 10
113.02
 20
66.48386441790706
 42
0.4236592728681618
 10
113.02
 20
68.1361355820929
 10
113.02
 20
70.64999999999998
 10
39.38613558209296
 20
70.65
 42
0.4236592728681554
 10
37.73386441790713
 20
70.65000000000002
 10
30.49613558209294
 20
70.65000000000005
 42
0.4236592728681634
 10
28.84386441790713
 20
70.65000000000005
 10
25.41613558209291
 20
70.65
 42
0.4236592728681687
 10
23.76386441790711
 20
70.65
 10
20.33613558209291
 20
70.64999999999999
 42
0.423659272868161
 10
18.68386441790711
 20
70.64999999999999
 10
15.2561355820929
 20
70.65
 42
0.4236592728681661
 10
13.60386441790712
 20
70.65
 10
10.1761355820929
 20
70.64999999999999
 42
0.5681173387548046
 10
8.253310995523627
 20
70.19608268876172
 10
6.010000000000005
 20
69.07442719099993
 10
6.010000000000005
 20
49.08613558209289
 42
0.4236592728681556
 10
6.010000000000005
 20
47.4338644179071
 10
6.010000000000005
 20
39.84
 10
11.89
 20
39.84
 10
16.97000000000001
 20
39.84000000000002
 10
22.05
 20
39.84000000000002
 10
27.93000000000001
 20
39.84000000000001
 10
27.93000000000001
 20
47.43386441790709
 42
2.470169477616152
 10
26.33000000000001
 20
47.43386441790707
 10
26.33000000000001
 20
41.44
 10
22.85000000000001
 20
41.44000000000002
 10
22.85000000000001
 20
47.43386441790708
 42
2.470169477616137
 10
21.25
 20
47.43386441790707
 10
21.25000000000001
 20
41.44000000000001
 10
17.77
 20
41.44
 10
17.77
 20
47.43386441790707
 42
2.470169477616152
 10
16.17000000000002
 20
47.43386441790708
 10
16.17000000000002
 20
41.44
 10
12.69
 20
41.44
 10
12.69
 20
47.43386441790706
 42
2.470169477616152
 10
11.09000000000001
 20
47.43386441790707
 10
11.09000000000001
 20
41.44000000000001
 10
7.609999999999999
 20
41.44000000000001
 10
7.609999999999999
 20
47.43386441790709
 42
0.4236592728681555
 10
7.610000000000007
 20
49.08613558209291
 10
7.609999999999999
 20
68.08557280900007
 10
8.968852748323535
 20
68.76499918316185
 42
0.2927829743375158
 10
10.17613558209289
 20
69.05
 10
13.60386441790712
 20
69.05000000000001
 42
0.4236592728681662
 10
15.2561355820929
 20
69.05000000000001
 10
18.68386441790711
 20
69.05
 42
0.4236592728681662
 10
20.3361355820929
 20
69.05
 10
23.76386441790709
 20
69.04999999999998
 42
0.4236592728681688
 10
25.41613558209293
 20
69.05000000000001
 10
28.84386441790711
 20
69.05
 42
0.4236592728681475
 10
30.49613558209292
 20
69.04999999999998
 10
37.73386441790713
 20
69.05
 42
0.4236592728681555
 10
39.38613558209293
 20
69.05
 10
111.42
 20
69.04999999999997
 10
111.42
 20
68.1361355820929
 42
0.4236592728681625
 10
111.42
 20
66.48386441790704
 10
111.42
 20
63.05613558209291
 42
0.6798645528424888
 10
112.2384806473282
 20
61.08014850277336
 10
116.5
 20
56.81862915010151
 10
116.5
 20
51.62613558209289
 42
2.470169477616148
 10
118.1
 20
51.6261355820929
 10
118.1
 20
57.48137084989846
 10
113.3698514972266
 20
62.21151935267184
 42
0.2072792606286119
 10
113.02
 20
63.05613558209289
 10
113.02
 20
66.48386441790706
  0
LWPOLYLINE
  5
336
330
1157
100
AcDbEntity
  8
DP0000.1000NP001F0200.0000
 62
     7
100
AcDbPolyline
 90
        5
 70
   128
 43
0.0
 10
75.83386441790708
 20
41.43999999999999
 42
-2.470169477616184
 10
75.83386441790708
 20
39.84
 10
47.00613558209292
 20
39.84
 42
-2.470169477616186
 10
47.00613558209292
 20
41.44
 10
75.8338644179071
 20
41.44
  0
LWPOLYLINE
  5
34F
330
1157
100
AcDbEntity
  8
DP0000.1000NP001F0200.0000
 62
     7
100
AcDbPolyline
 90
        5
 70
   128
 43
0.0
 10
75.8338644179071
 20
43.98
 42
-2.470169477616152
 10
75.8338644179071
 20
42.38
 10
47.00613558209293
 20
42.38
 42
-2.470169477616168
 10
47.00613558209291
 20
43.98
 10
75.8338644179071
 20
43.98
  0
LWPOLYLINE
  5
356
330
1157
100
AcDbEntity
  8
DP0000.1000NP001F0200.0000
 62
     7
100
AcDbPolyline
 90
        7
 70
   128
 43
0.0
 10
98.72
 20
49.97386441790707
 42
-2.470169477616149
 10
100.32
 20
49.97386441790707
 10
100.32
 20
42.38
 10
82.56613558209294
 20
42.38
 42
-2.470169477616154
 10
82.56613558209294
 20
43.98
 10
98.72000000000001
 20
43.97999999999998
 10
98.72
 20
49.97386441790707
  0
LWPOLYLINE
  5
36E
330
1157
100
AcDbEntity
  8
DP0000.1000NP001F0200.0000
 62
     7
100
AcDbPolyline
 90
        5
 70
   128
 43
0.0
 10
75.83386441790708
 20
46.51999999999999
 42
-2.470169477616168
 10
75.8338644179071
 20
44.92
 10
47.00613558209294
 20
44.92
 42
-2.470169477616168
 10
47.0061355820929
 20
46.52
 10
75.8338644179071
 20
46.52
  0
LWPOLYLINE
  5
36F
330
1157
100
AcDbEntity
  8
DP0000.1000NP001F0200.0000
 62
     7
100
AcDbPolyline
 90
        7
 70
   128
 43
0.0
 10
82.56613558209293
 20
46.52
 42
2.47016947761617
 10
82.56613558209294
 20
44.91999999999999
 10
95.23999999999998
 20
44.92000000000001
 10
95.23999999999998
 20
49.97386441790708
 42
2.47016947761616
 10
93.64000000000001
 20
49.97386441790707
 10
93.64000000000001
 20
46.52
 10
82.56613558209293
 20
46.52
  0
LWPOLYLINE
  5
383
330
1157
100
AcDbEntity
  8
DP0000.1000NP001F0200.0000
 62
     7
100
AcDbPolyline
 90
        5
 70
   128
 43
0.0
 10
75.83386441790711
 20
49.06000000000002
 42
-2.470169477616031
 10
75.83386441790711
 20
47.46
 10
47.00613558209294
 20
47.46000000000001
 42
-2.470169477616168
 10
47.00613558209291
 20
49.06
 10
75.8338644179071
 20
49.06
  0
LWPOLYLINE
  5
384
330
1157
100
AcDbEntity
  8
DP0000.1000NP001F0200.0000
 62
     7
100
AcDbPolyline
 90
        5
 70
   128
 43
0.0
 10
96.18
 20
49.97386441790708
 42
-2.470169477616152
 10
97.78
 20
49.97386441790707
 10
97.78
 20
49.0861355820929
 42
-2.470169477616152
 10
96.18
 20
49.08613558209291
 10
96.18
 20
49.97386441790708
  0
LWPOLYLINE
  5
B47
330
1157
100
AcDbEntity
  8
DP0000.1000NP001F0200.0000
 62
     7
100
AcDbPolyline
 90
        7
 70
   128
 43
0.0
 10
77.46000000000001
 20
68.11
 10
39.38613558209295
 20
68.10999999999999
 42
2.4701694776162
 10
39.38613558209292
 20
66.51000000000002
 10
75.86
 20
66.51
 10
75.86000000000001
 20
51.62613558209294
 42
2.470169477616152
 10
77.46000000000001
 20
51.62613558209289
 10
77.46000000000001
 20
68.11
  0
LWPOLYLINE
  5
3FA
330
1157
100
AcDbEntity
  8
DP0000.1000NP001F0200.0000
 62
     7
100
AcDbPolyline
 90
        7
 70
   128
 43
0.0
 10
74.92000000000002
 20
56.32386441790707
 42
2.470169477616152
 10
73.32000000000001
 20
56.32386441790706
 10
73.32000000000001
 20
51.59999999999998
 10
47.00613558209292
 20
51.59999999999999
 42
2.470169477616168
 10
47.00613558209292
 20
50.00000000000001
 10
74.92000000000002
 20
50.0
 10
74.92000000000002
 20
56.32386441790707
  0
LWPOLYLINE
  5
515
330
1157
100
AcDbEntity
  8
DP0000.1000NP001F0200.0000
 62
     7
100
AcDbPolyline
 90
        5
 70
   128
 43
0.0
 10
73.29386441790709
 20
65.56999999999998
 42
-2.470169477616184
 10
73.29386441790709
 20
63.97
 10
39.38613558209295
 20
63.97
 42
-2.470169477616186
 10
39.38613558209293
 20
65.57
 10
73.29386441790709
 20
65.57
  0
LWPOLYLINE
  5
516
330
1157
100
AcDbEntity
  8
DP0000.1000NP001F0200.0000
 62
     7
100
AcDbPolyline
 90
        9
 70
   128
 43
0.0
 10
101.7286291501015
 20
63.96999999999999
 10
111.42
 20
54.2786291501015
 10
111.42
 20
51.62613558209291
 42
2.470169477616145
 10
113.02
 20
51.62613558209291
 10
113.02
 20
54.94137084989849
 10
102.3913708498985
 20
65.57
 10
82.56613558209295
 20
65.56999999999998
 42
2.470169477616154
 10
82.56613558209294
 20
63.96999999999999
 10
101.7286291501015
 20
63.96999999999999
  0
LWPOLYLINE
  5
532
330
1157
100
AcDbEntity
  8
DP0000.1000NP001F0200.0000
 62
     7
100
AcDbPolyline
 90
        5
 70
   128
 43
0.0
 10
73.2938644179071
 20
61.42999999999997
 42
2.47016947761613
 10
73.29386441790714
 20
63.03000000000001
 10
39.38613558209293
 20
63.03
 42
2.470169477616168
 10
39.38613558209293
 20
61.43
 10
73.29386441790709
 20
61.43000000000001
  0
LWPOLYLINE
  5
531
330
1157
100
AcDbEntity
  8
DP0000.1000NP001F0200.0000
 62
     7
100
AcDbPolyline
 90
        9
 70
   128
 43
0.0
 10
105.4
 20
56.21137084989846
 10
105.4
 20
51.62613558209289
 42
-2.470169477616138
 10
103.8
 20
51.62613558209289
 10
103.8
 20
55.54862915010153
 10
97.91862915010154
 20
61.43
 10
82.56613558209294
 20
61.43000000000001
 42
-2.470169477616154
 10
82.56613558209291
 20
63.02999999999999
 10
98.58137084989849
 20
63.03
 10
105.4
 20
56.21137084989846
  0
LWPOLYLINE
  5
545
330
1157
100
AcDbEntity
  8
DP0000.1000NP001F0200.0000
 62
     7
100
AcDbPolyline
 90
        5
 70
   128
 43
0.0
 10
73.29386441790713
 20
60.49000000000002
 42
-2.470169477616032
 10
73.29386441790716
 20
58.89
 10
39.38613558209293
 20
58.89
 42
-2.470169477616186
 10
39.38613558209295
 20
60.48999999999999
 10
73.29386441790716
 20
60.48999999999999
  0
LWPOLYLINE
  5
559
330
1157
100
AcDbEntity
  8
DP0000.1000NP001F0200.0000
 62
     7
100
AcDbPolyline
 90
        5
 70
   128
 43
0.0
 10
70.75386441790707
 20
55.40999999999997
 42
-2.470169477616275
 10
70.75386441790702
 20
53.81
 10
39.38613558209294
 20
53.81
 42
-2.470169477616186
 10
39.38613558209294
 20
55.41
 10
70.75386441790702
 20
55.41
  0
LWPOLYLINE
  5
B27
330
1157
100
AcDbEntity
  8
DP0000.1000NP001F0200.0000
 62
     7
100
AcDbPolyline
 90
       49
 70
   128
 43
0.0
 10
37.47885438199982
 20
32.22
 10
40.42628479399994
 20
33.69371520600006
 10
41.57
 20
32.55
 10
41.57000000000001
 20
31.17339262395511
 10
45.14327675852973
 20
29.98230037111184
 42
2.470169477616094
 10
45.64924118415668
 20
31.50019364799268
 10
43.16999999999999
 20
32.3266073760449
 10
43.17
 20
33.71339262395509
 10
45.64924118415666
 20
34.53980635200732
 42
0.3317188907686313
 10
47.00613558209293
 20
34.76000000000001
 10
51.73
 20
34.76000000000002
 10
51.73
 20
29.68
 10
54.24386441790708
 20
29.68
 42
2.470169477616108
 10
54.24386441790708
 20
31.28000000000001
 10
53.33000000000001
 20
31.28000000000001
 10
53.33
 20
34.76000000000001
 10
80.0
 20
34.76000000000001
 10
80.0
 20
49.97386441790707
 42
0.4236592728681762
 10
80.00000000000001
 20
51.62613558209292
 10
80.0
 20
66.51
 10
106.3138644179071
 20
66.50999999999999
 42
0.1245859686799463
 10
106.7939173112383
 20
66.21331099552357
 10
108.5949991831618
 20
62.61114725167648
 42
2.470169477616141
 10
110.0260826887617
 20
63.32668900447641
 10
108.2250008168382
 20
66.92885274832352
 42
0.8045705747356343
 10
106.3138644179071
 20
68.11
 10
78.40000000000002
 20
68.11
 10
78.40000000000002
 20
51.6261355820929
 42
0.4236592728681543
 10
78.40000000000002
 20
49.97386441790708
 10
78.40000000000002
 20
36.36
 10
47.00613558209285
 20
36.36000000000008
 42
0.2927829743374812
 10
45.79885274832353
 20
36.64500081683817
 10
41.89999999999999
 20
38.59442719099992
 10
41.89999999999999
 20
48.70386441790708
 42
2.470169477616168
 10
40.3
 20
48.70386441790708
 10
40.3
 20
35.41942719099993
 10
37.10114561800015
 20
33.81999999999999
 10
33.00999999999999
 20
33.81999999999999
 10
33.00999999999999
 20
38.9
 10
14.09862915010151
 20
38.90000000000001
 10
11.09
 20
35.89137084989845
 10
11.09000000000002
 20
32.57613558209295
 42
2.470169477616168
 10
12.69
 20
32.57613558209294
 10
12.69000000000001
 20
35.22862915010153
 10
14.7613708498985
 20
37.3
 10
31.41000000000001
 20
37.30000000000001
 10
31.41
 20
33.84613558209293
 42
1.016201353084691
 10
33.03613558209291
 20
32.22
 10
37.47885438199982
 20
32.22
  0
LWPOLYLINE
  5
A2D
330
1157
100
AcDbEntity
  8
DP0000.1000NP001F0200.0000
 62
     7
100
AcDbPolyline
 90
        5
 70
   128
 43
0.0
 10
82.5661355820929
 20
41.44000000000001
 42
2.470169477616086
 10
82.56613558209288
 20
39.84
 10
98.6938644179071
 20
39.84
 42
2.470169477616152
 10
98.69386441790708
 20
41.44
 10
82.56613558209288
 20
41.44
  0
LWPOLYLINE
  5
A2C
330
1157
100
AcDbEntity
  8
DP0000.1000NP001F0200.0000
 62
     7
100
AcDbPolyline
 90
        7
 70
   128
 43
0.0
 10
113.96
 20
41.43999999999998
 10
113.96
 20
49.97386441790709
 42
-2.47016947761614
 10
115.56
 20
49.97386441790708
 10
115.56
 20
39.84
 10
105.4261355820929
 20
39.84
 42
-2.470169477616154
 10
105.4261355820929
 20
41.44
 10
113.96
 20
41.43999999999998
  0
LWPOLYLINE
  5
A3E
330
1157
100
AcDbEntity
  8
DP0000.1000NP001F0200.0000
 62
     7
100
AcDbPolyline
 90
        5
 70
   128
 43
0.0
 10
91.0738644179071
 20
49.06
 42
-2.470169477616122
 10
91.07386441790712
 20
47.45999999999999
 10
82.56613558209293
 20
47.46
 42
-2.470169477616154
 10
82.56613558209293
 20
49.06
 10
91.0738644179071
 20
49.06
  0
LINE
  5
ABC
330
1157
100
AcDbEntity
  8
DP0000.1000NP001F0200.0000
 62
     7
100
AcDbLine
 10
47.92
 20
33.02000000000001
 30
0.0
 11
47.92
 21
32.51267531340834
 31
0.0
  0
LWPOLYLINE
  5
B62
330
1157
100
AcDbEntity
  8
DP0000.1000NP001F0200.0000
 62
     7
100
AcDbPolyline
 90
        9
 70
   128
 43
0.0
 10
82.54
 20
54.14
 10
82.54
 20
58.8638644179071
 42
2.470169477616152
 10
80.94
 20
58.86386441790707
 10
80.94
 20
52.54000000000001
 10
86.02000000000001
 20
52.54000000000001
 10
86.02000000000001
 20
51.62613558209293
 42
2.470169477616152
 10
87.62
 20
51.6261355820929
 10
87.62
 20
54.13999999999999
 10
82.54
 20
54.14
  0
LWPOLYLINE
  5
B6F
330
1157
100
AcDbEntity
  8
DP0000.1000NP001F0200.0000
 62
     7
100
AcDbPolyline
 90
        7
 70
   128
 43
0.0
 10
92.7
 20
57.95
 10
92.70000000000002
 20
51.62613558209292
 42
-2.470169477616138
 10
91.10000000000002
 20
51.62613558209289
 10
91.10000000000001
 20
56.35000000000001
 10
85.10613558209292
 20
56.34999999999999
 42
-2.470169477616154
 10
85.1061355820929
 20
57.95
 10
92.7
 20
57.95
  0
VIEWPORT
  5
1222
330
121E
100
AcDbEntity
 67
     1
  8
0
100
AcDbViewport
 10
128.5
 20
97.5
 30
0.0
 40
314.226
 41
222.18
 68
     1
 69
     1
 12
128.5
 22
97.5
 13
0.0
 23
0.0
 14
10.0
 24
10.0
 15
10.0
 25
10.0
 16
0.0
 26
0.0
 36
1.0
 17
0.0
 27
0.0
 37
0.0
 42
50.0
 43
0.0
 44
0.0
 45
222.18
 50
0.0
 51
0.0
 72
   100
 90
   557152
  1

281
     0
 71
     1
 74
     0
110
0.0
120
0.0
130
0.0
111
1.0
121
0.0
131
0.0
112
0.0
122
1.0
132
0.0
 79
     0
146
0.0
170
     0
 61
     5
348
1167
292
     1
282
     1
141
0.0
142
0.0
 63
   256
361
1223
  0
ENDSEC
  0
SECTION
  2
OBJECTS
  0
DICTIONARY
  5
1145
330
0
100
AcDbDictionary
281
     1
  3
ACAD_DETAILVIEWSTYLE
350
1237
  3
ACAD_GROUP
350
1146
  3
ACAD_LAYOUT
350
1152
  3
ACAD_MATERIAL
350
117B
  3
ACAD_MLEADERSTYLE
350
11A3
  3
ACAD_MLINESTYLE
350
114F
  3
ACAD_PLOTSETTINGS
350
1151
  3
ACAD_PLOTSTYLENAME
350
1147
  3
ACAD_SCALELIST
350
117F
  3
ACAD_SECTIONVIEWSTYLE
350
1238
  3
ACAD_TABLESTYLE
350
11A1
  3
ACAD_VISUALSTYLE
350
1162
  3
ACDB_RECOMPOSE_DATA
350
1234
  3
AcDbVariableDictionary
350
1230
  3
QCAD_OBJECTS
350
11A7
  0
SUN
  5
11A5
330
1161
100
AcDbSun
 90
        1
290
     0
 63
     7
421
 16777215
 40
1.0
291
     1
 91
  2455826
 92
 54000000
292
     0
 70
     2
 71
   256
280
     1
  0
SUN
  5
121D
330
121C
100
AcDbSun
 90
        1
290
     0
 63
     7
421
 16777215
 40
1.0
291
     1
 91
  2455826
 92
 54000000
292
     0
 70
     2
 71
   256
280
     1
  0
SUN
  5
1223
330
1222
100
AcDbSun
 90
        1
290
     0
 63
     7
421
 16777215
 40
1.0
291
     1
 91
  2455826
 92
 54000000
292
     0
 70
     2
 71
   256
280
     1
  0
DICTIONARY
  5
1237
102
{ACAD_REACTORS
330
1145
102
}
330
1145
100
AcDbDictionary
281
     1
  0
DICTIONARY
  5
1146
102
{ACAD_REACTORS
330
1145
102
}
330
1145
100
AcDbDictionary
281
     1
  0
DICTIONARY
  5
1152
102
{ACAD_REACTORS
330
1145
102
}
330
1145
100
AcDbDictionary
281
     1
  3
Layout1
350
1156
  3
Layout2
350
121F
  3
Model
350
115A
  0
DICTIONARY
  5
117B
102
{ACAD_REACTORS
330
1145
102
}
330
1145
100
AcDbDictionary
281
     1
  3
ByBlock
350
117D
  3
ByLayer
350
117C
  3
Global
350
117E
  0
DICTIONARY
  5
11A3
102
{ACAD_REACTORS
330
1145
102
}
330
1145
100
AcDbDictionary
281
     1
  3
Standard
350
11A4
  0
DICTIONARY
  5
114F
102
{ACAD_REACTORS
330
1145
102
}
330
1145
100
AcDbDictionary
281
     1
  3
Standard
350
1150
  0
DICTIONARY
  5
1151
102
{ACAD_REACTORS
330
1145
102
}
330
1145
100
AcDbDictionary
281
     1
  0
ACDBDICTIONARYWDFLT
  5
1147
102
{ACAD_REACTORS
330
1145
102
}
330
1145
100
AcDbDictionary
281
     1
  3
Normal
350
1148
100
AcDbDictionaryWithDefault
340
1148
  0
DICTIONARY
  5
117F
102
{ACAD_REACTORS
330
1145
102
}
330
1145
100
AcDbDictionary
281
     1
  3
A0
350
1180
  3
A1
350
1181
  3
A2
350
1182
  3
A3
350
1183
  3
A4
350
1184
  3
A5
350
1185
  3
A6
350
1186
  3
A7
350
1187
  3
A8
350
1188
  3
A9
350
1189
  3
B0
350
118A
  3
B1
350
118B
  3
B2
350
118C
  3
B3
350
118D
  3
B4
350
118E
  3
B5
350
118F
  3
B6
350
1190
  3
B7
350
1191
  3
B8
350
1192
  3
B9
350
1193
  3
C0
350
1194
  3
C1
350
1195
  3
C2
350
1196
  3
C3
350
1197
  3
C4
350
1198
  3
C5
350
1199
  3
C6
350
119A
  3
C7
350
119B
  3
C8
350
119C
  3
C9
350
119D
  3
D0
350
119E
  3
D1
350
119F
  3
D2
350
11A0
  0
DICTIONARY
  5
1238
102
{ACAD_REACTORS
330
1145
102
}
330
1145
100
AcDbDictionary
281
     1
  0
DICTIONARY
  5
11A1
102
{ACAD_REACTORS
330
1145
102
}
330
1145
100
AcDbDictionary
281
     1
  3
Standard
350
11A2
  0
DICTIONARY
  5
1162
102
{ACAD_REACTORS
330
1145
102
}
330
1145
100
AcDbDictionary
281
     1
  3
2dWireframe
350
1167
  3
Basic
350
116A
  3
Brighten
350
116E
  3
ColorChange
350
1172
  3
Conceptual
350
116C
  3
Dim
350
116D
  3
EdgeColorOff
350
1175
  3
Facepattern
350
1171
  3
Flat
350
1163
  3
FlatWithEdges
350
1164
  3
Gouraud
350
1165
  3
GouraudWithEdges
350
1166
  3
Hidden
350
1169
  3
JitterOff
350
1173
  3
Linepattern
350
1170
  3
OverhangOff
350
1174
  3
Realistic
350
116B
  3
Shaded
350
117A
  3
Shaded with edges
350
1179
  3
Shades of Gray
350
1176
  3
Sketchy
350
1177
  3
Thicken
350
116F
  3
Wireframe
350
1168
  3
X-Ray
350
1178
  0
XRECORD
  5
1234
102
{ACAD_REACTORS
330
1145
102
}
330
1145
100
AcDbXrecord
280
     1
 90
        1
330
11A2
  0
DICTIONARY
  5
1230
102
{ACAD_REACTORS
330
1145
102
}
330
1145
100
AcDbDictionary
281
     1
  3
CANNOSCALE
350
1231
  3
CMLEADERSTYLE
350
1236
  3
CTABLESTYLE
350
1235
  0
DICTIONARY
  5
11A7
102
{ACAD_REACTORS
330
1145
102
}
330
1145
100
AcDbDictionary
281
     1
  3
ColorSettings/BackgroundColor
350
11A9
  3
ColorSettings/ColorMode
350
11AA
  3
Grid/DisplayGrid00
350
11AB
  3
Grid/DisplayGrid01
350
11AC
  3
Grid/DisplayGrid02
350
11AD
  3
Grid/DisplayGrid03
350
11AE
  3
Grid/GridSpacingX00
350
11AF
  3
Grid/GridSpacingX01
350
11B0
  3
Grid/GridSpacingX02
350
11B1
  3
Grid/GridSpacingX03
350
11B2
  3
Grid/GridSpacingY00
350
11B3
  3
Grid/GridSpacingY01
350
11B4
  3
Grid/GridSpacingY02
350
11B5
  3
Grid/GridSpacingY03
350
11B6
  3
Grid/IsometricGrid00
350
11B7
  3
Grid/IsometricGrid01
350
11B8
  3
Grid/IsometricGrid02
350
11B9
  3
Grid/IsometricGrid03
350
11BA
  3
Grid/IsometricProjection00
350
11BB
  3
Grid/IsometricProjection01
350
11BC
  3
Grid/IsometricProjection02
350
11BD
  3
Grid/IsometricProjection03
350
11BE
  3
Grid/MetaGridSpacingX00
350
11BF
  3
Grid/MetaGridSpacingX01
350
11C0
  3
Grid/MetaGridSpacingX02
350
11C1
  3
Grid/MetaGridSpacingX03
350
11C2
  3
Grid/MetaGridSpacingY00
350
11C3
  3
Grid/MetaGridSpacingY01
350
11C4
  3
Grid/MetaGridSpacingY02
350
11C5
  3
Grid/MetaGridSpacingY03
350
11C6
  3
MultiPageSettings/Columns
350
11C7
  3
MultiPageSettings/GlueMarginsBottom
350
11C8
  3
MultiPageSettings/GlueMarginsLeft
350
11C9
  3
MultiPageSettings/GlueMarginsRight
350
11CA
  3
MultiPageSettings/GlueMarginsTop
350
11CB
  3
MultiPageSettings/PrintCropMarks
350
11CC
  3
MultiPageSettings/Rows
350
11CD
  3
PageSettings/OffsetX
350
11CE
  3
PageSettings/OffsetY
350
11CF
  3
PageSettings/PageOrientation
350
11D0
  3
PageSettings/PaperHeight
350
11D1
  3
PageSettings/PaperWidth
350
11D2
  3
PageSettings/Scale
350
11D3
  3
PageSettings/ShowPaperBorders
350
11D4
  3
PageTagSettings/EnablePageTags
350
11D5
  3
PageTagSettings/TagAlignment
350
11D6
  3
PageTagSettings/TagFont
350
11D7
  3
PageTagSettings/TagPosition
350
11D8
  3
QCADVersion
350
11D9
  3
UnitSettings/PaperUnit
350
11DA
  3
ViewportCenter
350
11DB
  3
ViewportHeight
350
11DC
  3
ViewportWidth
350
11DD
  0
LAYOUT
  5
1156
102
{ACAD_REACTORS
330
1152
102
}
330
1152
100
AcDbPlotSettings
  1

  2
none_device
  4
ISO_A4_(210.00_x_297.00_MM)
  6

 40
7.5
 41
20.0
 42
7.5
 43
20.0
 44
210.0
 45
297.0
 46
0.0
 47
0.0
 48
0.0
 49
0.0
140
0.0
141
0.0
142
1.0
143
1.0
 70
   688
 72
     1
 73
     1
 74
     5
  7

 75
    16
 76
     0
 77
     2
 78
   300
147
1.0
148
0.0
149
0.0
100
AcDbLayout
  1
Layout1
 70
     1
 71
     1
 10
-20.0
 20
-7.5
 11
277.0
 21
202.5
 12
0.0
 22
0.0
 32
0.0
 14
1.000000000000000E+20
 24
1.000000000000000E+20
 34
1.000000000000000E+20
 15
-1.000000000000000E+20
 25
-1.000000000000000E+20
 35
-1.000000000000000E+20
146
0.0
 13
0.0
 23
0.0
 33
0.0
 16
1.0
 26
0.0
 36
0.0
 17
0.0
 27
1.0
 37
0.0
 76
     0
330
1153
331
121C
  0
LAYOUT
  5
121F
102
{ACAD_REACTORS
330
1152
102
}
330
1152
100
AcDbPlotSettings
  1

  2
none_device
  4
ISO_A4_(210.00_x_297.00_MM)
  6

 40
7.5
 41
20.0
 42
7.5
 43
20.0
 44
210.0
 45
297.0
 46
0.0
 47
0.0
 48
0.0
 49
0.0
140
0.0
141
0.0
142
1.0
143
1.0
 70
   688
 72
     1
 73
     1
 74
     5
  7

 75
    16
 76
     0
 77
     2
 78
   300
147
1.0
148
0.0
149
0.0
100
AcDbLayout
  1
Layout2
 70
     1
 71
     2
 10
0.0
 20
0.0
 11
12.0
 21
9.0
 12
0.0
 22
0.0
 32
0.0
 14
0.0
 24
0.0
 34
0.0
 15
0.0
 25
0.0
 35
0.0
146
0.0
 13
0.0
 23
0.0
 33
0.0
 16
1.0
 26
0.0
 36
0.0
 17
0.0
 27
1.0
 37
0.0
 76
     0
330
121E
331
1222
  0
LAYOUT
  5
115A
102
{ACAD_REACTORS
330
1152
102
}
330
1152
100
AcDbPlotSettings
  1

  2
none_device
  4
Letter_(8.50_x_11.00_Inches)
  6

 40
6.35
 41
6.35
 42
6.35000508
 43
6.35000508
 44
215.9
 45
279.4
 46
0.0
 47
0.0
 48
0.0
 49
0.0
140
0.0
141
0.0
142
1.0
143
1.0
 70
  1712
 72
     0
 73
     0
 74
     0
  7

 75
     0
 76
     0
 77
     2
 78
   300
147
1.0
148
0.0
149
0.0
100
AcDbLayout
  1
Model
 70
     1
 71
     0
 10
0.0
 20
0.0
 11
12.0
 21
9.0
 12
0.0
 22
0.0
 32
0.0
 14
3.120000000000003
 24
3.930000000000035
 34
0.0
 15
118.45
 25
71.00000000000004
 35
0.0
146
0.0
 13
0.0
 23
0.0
 33
0.0
 16
1.0
 26
0.0
 36
0.0
 17
0.0
 27
1.0
 37
0.0
 76
     0
330
1157
331
1161
  0
MATERIAL
  5
117D
102
{ACAD_REACTORS
330
117B
102
}
330
117B
100
AcDbMaterial
  1
ByBlock
 72
     1
 94
      127
  0
MATERIAL
  5
117C
102
{ACAD_REACTORS
330
117B
102
}
330
117B
100
AcDbMaterial
  1
ByLayer
 72
     1
 94
      127
  0
MATERIAL
  5
117E
102
{ACAD_REACTORS
330
117B
102
}
330
117B
100
AcDbMaterial
  1
Global
 72
     1
 94
      127
  0
MLEADERSTYLE
  5
11A4
102
{ACAD_REACTORS
330
11A3
102
}
330
11A3
100
AcDbMLeaderStyle
179
     2
170
     2
171
     1
172
     0
 90
        2
 40
0.0
 41
0.0
173
     1
 91
-1056964608
340
114C
 92
       -2
290
     1
 42
0.09
291
     1
 43
0.36
  3
Standard
341
0
 44
0.18
300

342
114A
174
     1
178
     6
175
     1
176
     0
 93
-1056964608
 45
0.18
292
     0
297
     0
 46
0.18
343
0
 94
-1056964608
 47
1.0
 49
1.0
140
1.0
293
     1
141
0.0
294
     1
177
     0
142
1.0
295
     0
296
     0
143
0.125
271
     0
272
     9
273
     9
298
     0
  0
MLINESTYLE
  5
1150
102
{ACAD_REACTORS
330
114F
102
}
330
114F
100
AcDbMlineStyle
  2
Standard
 70
     0
  3

 62
   256
 51
90.0
 52
90.0
 71
     2
 49
0.5
 62
   256
  6
BYLAYER
 49
-0.5
 62
   256
  6
BYLAYER
  0
ACDBPLACEHOLDER
  5
1148
102
{ACAD_REACTORS
330
1147
102
}
330
1147
  0
SCALE
  5
1180
102
{ACAD_REACTORS
330
117F
102
}
330
117F
100
AcDbScale
 70
     0
300
1:1
140
1.0
141
1.0
290
     1
  0
SCALE
  5
1181
102
{ACAD_REACTORS
330
117F
102
}
330
117F
100
AcDbScale
 70
     0
300
1:2
140
1.0
141
2.0
290
     0
  0
SCALE
  5
1182
102
{ACAD_REACTORS
330
117F
102
}
330
117F
100
AcDbScale
 70
     0
300
1:4
140
1.0
141
4.0
290
     0
  0
SCALE
  5
1183
102
{ACAD_REACTORS
330
117F
102
}
330
117F
100
AcDbScale
 70
     0
300
1:5
140
1.0
141
5.0
290
     0
  0
SCALE
  5
1184
102
{ACAD_REACTORS
330
117F
102
}
330
117F
100
AcDbScale
 70
     0
300
1:8
140
1.0
141
8.0
290
     0
  0
SCALE
  5
1185
102
{ACAD_REACTORS
330
117F
102
}
330
117F
100
AcDbScale
 70
     0
300
1:10
140
1.0
141
10.0
290
     0
  0
SCALE
  5
1186
102
{ACAD_REACTORS
330
117F
102
}
330
117F
100
AcDbScale
 70
     0
300
1:16
140
1.0
141
16.0
290
     0
  0
SCALE
  5
1187
102
{ACAD_REACTORS
330
117F
102
}
330
117F
100
AcDbScale
 70
     0
300
1:20
140
1.0
141
20.0
290
     0
  0
SCALE
  5
1188
102
{ACAD_REACTORS
330
117F
102
}
330
117F
100
AcDbScale
 70
     0
300
1:30
140
1.0
141
30.0
290
     0
  0
SCALE
  5
1189
102
{ACAD_REACTORS
330
117F
102
}
330
117F
100
AcDbScale
 70
     0
300
1:40
140
1.0
141
40.0
290
     0
  0
SCALE
  5
118A
102
{ACAD_REACTORS
330
117F
102
}
330
117F
100
AcDbScale
 70
     0
300
1:50
140
1.0
141
50.0
290
     0
  0
SCALE
  5
118B
102
{ACAD_REACTORS
330
117F
102
}
330
117F
100
AcDbScale
 70
     0
300
1:100
140
1.0
141
100.0
290
     0
  0
SCALE
  5
118C
102
{ACAD_REACTORS
330
117F
102
}
330
117F
100
AcDbScale
 70
     0
300
2:1
140
2.0
141
1.0
290
     0
  0
SCALE
  5
118D
102
{ACAD_REACTORS
330
117F
102
}
330
117F
100
AcDbScale
 70
     0
300
4:1
140
4.0
141
1.0
290
     0
  0
SCALE
  5
118E
102
{ACAD_REACTORS
330
117F
102
}
330
117F
100
AcDbScale
 70
     0
300
8:1
140
8.0
141
1.0
290
     0
  0
SCALE
  5
118F
102
{ACAD_REACTORS
330
117F
102
}
330
117F
100
AcDbScale
 70
     0
300
10:1
140
10.0
141
1.0
290
     0
  0
SCALE
  5
1190
102
{ACAD_REACTORS
330
117F
102
}
330
117F
100
AcDbScale
 70
     0
300
100:1
140
100.0
141
1.0
290
     0
  0
SCALE
  5
1191
102
{ACAD_REACTORS
330
117F
102
}
330
117F
100
AcDbScale
 70
     0
300
1/128" = 1'-0"
140
0.0078125
141
12.0
290
     0
  0
SCALE
  5
1192
102
{ACAD_REACTORS
330
117F
102
}
330
117F
100
AcDbScale
 70
     0
300
1/64" = 1'-0"
140
0.015625
141
12.0
290
     0
  0
SCALE
  5
1193
102
{ACAD_REACTORS
330
117F
102
}
330
117F
100
AcDbScale
 70
     0
300
1/32" = 1'-0"
140
0.03125
141
12.0
290
     0
  0
SCALE
  5
1194
102
{ACAD_REACTORS
330
117F
102
}
330
117F
100
AcDbScale
 70
     0
300
1/16" = 1'-0"
140
0.0625
141
12.0
290
     0
  0
SCALE
  5
1195
102
{ACAD_REACTORS
330
117F
102
}
330
117F
100
AcDbScale
 70
     0
300
3/32" = 1'-0"
140
0.09375
141
12.0
290
     0
  0
SCALE
  5
1196
102
{ACAD_REACTORS
330
117F
102
}
330
117F
100
AcDbScale
 70
     0
300
1/8" = 1'-0"
140
0.125
141
12.0
290
     0
  0
SCALE
  5
1197
102
{ACAD_REACTORS
330
117F
102
}
330
117F
100
AcDbScale
 70
     0
300
3/16" = 1'-0"
140
0.1875
141
12.0
290
     0
  0
SCALE
  5
1198
102
{ACAD_REACTORS
330
117F
102
}
330
117F
100
AcDbScale
 70
     0
300
1/4" = 1'-0"
140
0.25
141
12.0
290
     0
  0
SCALE
  5
1199
102
{ACAD_REACTORS
330
117F
102
}
330
117F
100
AcDbScale
 70
     0
300
3/8" = 1'-0"
140
0.375
141
12.0
290
     0
  0
SCALE
  5
119A
102
{ACAD_REACTORS
330
117F
102
}
330
117F
100
AcDbScale
 70
     0
300
1/2" = 1'-0"
140
0.5
141
12.0
290
     0
  0
SCALE
  5
119B
102
{ACAD_REACTORS
330
117F
102
}
330
117F
100
AcDbScale
 70
     0
300
3/4" = 1'-0"
140
0.75
141
12.0
290
     0
  0
SCALE
  5
119C
102
{ACAD_REACTORS
330
117F
102
}
330
117F
100
AcDbScale
 70
     0
300
1" = 1'-0"
140
1.0
141
12.0
290
     0
  0
SCALE
  5
119D
102
{ACAD_REACTORS
330
117F
102
}
330
117F
100
AcDbScale
 70
     0
300
1-1/2" = 1'-0"
140
1.5
141
12.0
290
     0
  0
SCALE
  5
119E
102
{ACAD_REACTORS
330
117F
102
}
330
117F
100
AcDbScale
 70
     0
300
3" = 1'-0"
140
3.0
141
12.0
290
     0
  0
SCALE
  5
119F
102
{ACAD_REACTORS
330
117F
102
}
330
117F
100
AcDbScale
 70
     0
300
6" = 1'-0"
140
6.0
141
12.0
290
     0
  0
SCALE
  5
11A0
102
{ACAD_REACTORS
330
117F
102
}
330
117F
100
AcDbScale
 70
     0
300
1'-0" = 1'-0"
140
12.0
141
12.0
290
     0
  0
TABLESTYLE
  5
11A2
102
{ACAD_REACTORS
330
11A1
102
}
102
{ACAD_XDICTIONARY
360
1232
102
}
330
11A1
100
AcDbTableStyle
  3
Standard
 70
     0
 71
     0
 40
0.06
 41
0.06
280
     0
281
     0
  7
Standard
140
0.18
170
     2
 62
     0
 63
   257
283
     0
 90
        4
 91
        0
  1

274
    -2
284
     1
 64
     0
275
    -2
285
     1
 65
     0
276
    -2
286
     1
 66
     0
277
    -2
287
     1
 67
     0
278
    -2
288
     1
 68
     0
279
    -2
289
     1
 69
     0
  7
Standard
140
0.25
170
     5
 62
     0
 63
   257
283
     0
 90
        4
 91
        0
  1

274
    -2
284
     1
 64
     0
275
    -2
285
     1
 65
     0
276
    -2
286
     1
 66
     0
277
    -2
287
     1
 67
     0
278
    -2
288
     1
 68
     0
279
    -2
289
     1
 69
     0
  7
Standard
140
0.18
170
     5
 62
     0
 63
   257
283
     0
 90
        4
 91
        0
  1

274
    -2
284
     1
 64
     0
275
    -2
285
     1
 65
     0
276
    -2
286
     1
 66
     0
277
    -2
287
     1
 67
     0
278
    -2
288
     1
 68
     0
279
    -2
289
     1
 69
     0
  0
VISUALSTYLE
  5
1167
102
{ACAD_REACTORS
330
1162
102
}
330
1162
100
AcDbVisualStyle
  2
2dWireframe
 70
     4
177
     3
291
     0
 70
    58
 90
        0
176
     1
 90
        2
176
     1
 90
        0
176
     1
 90
        0
176
     1
 40
0.6
176
     1
 40
30.0
176
     1
 62
     7
420
 16777215
176
     1
 90
        1
176
     1
 90
        4
176
     1
 62
     7
176
     1
 62
   257
176
     1
 90
        1
176
     1
 90
        1
176
     1
 40
1.0
176
     1
 90
        0
176
     1
 62
   257
176
     1
 40
1.0
176
     1
 90
        1
176
     1
 90
        6
176
     1
 90
        2
176
     1
 62
     7
176
     1
 90
        5
176
     1
 90
        0
176
     1
 90
        0
176
     1
290
     0
176
     1
 90
        1
176
     1
 40
0.0
176
     1
 90
        0
176
     1
290
     1
176
     1
290
     1
176
     1
290
     0
176
     1
290
     0
176
     1
290
     0
176
     1
290
     0
176
     1
290
     0
176
     1
290
     0
176
     1
290
     0
176
     1
 90
       50
176
     1
 40
0.0
176
     1
 40
1.0
176
     1
 90
        0
176
     1
 62
   178
420
        0
176
     1
 90
       50
176
     1
 90
        3
176
     1
 62
     5
420
      255
176
     1
290
     0
176
     1
 90
       50
176
     1
 90
       50
176
     1
 90
       50
176
     1
290
     0
176
     1
 90
       50
176
     1
 62
   256
176
     0
 40
1.0
176
     0
 90
        2
176
     1
  1
strokes_ogs.tif
176
     1
290
     0
176
     1
 40
1.0
176
     1
 40
1.0
176
     1
  0
VISUALSTYLE
  5
116A
102
{ACAD_REACTORS
330
1162
102
}
330
1162
100
AcDbVisualStyle
  2
Basic
 70
     7
177
     3
291
     1
 70
    58
 90
        1
176
     1
 90
        0
176
     1
 90
        1
176
     1
 90
        0
176
     1
 40
0.6
176
     1
 40
30.0
176
     1
 62
     7
420
 16777215
176
     1
 90
        0
176
     1
 90
        4
176
     1
 62
     7
176
     1
 62
   257
176
     1
 90
        1
176
     1
 90
        1
176
     1
 40
1.0
176
     1
 90
        8
176
     1
 62
     7
176
     1
 40
1.0
176
     1
 90
        1
176
     1
 90
        6
176
     1
 90
        2
176
     1
 62
     7
176
     1
 90
        5
176
     1
 90
        0
176
     1
 90
        0
176
     1
290
     0
176
     1
 90
        1
176
     1
 40
0.0
176
     1
 90
        0
176
     1
290
     0
176
     1
290
     1
176
     1
290
     1
176
     1
290
     0
176
     1
290
     0
176
     1
290
     0
176
     1
290
     0
176
     1
290
     0
176
     1
290
     0
176
     1
 90
       50
176
     1
 40
0.0
176
     1
 40
1.0
176
     1
 90
        0
176
     1
 62
   178
420
        0
176
     1
 90
       50
176
     1
 90
        3
176
     1
 62
     5
420
      255
176
     1
290
     0
176
     1
 90
       50
176
     1
 90
       50
176
     1
 90
       50
176
     1
290
     0
176
     1
 90
       50
176
     1
 62
   256
176
     0
 40
1.0
176
     0
 90
        2
176
     1
  1
strokes_ogs.tif
176
     1
290
     0
176
     1
 40
1.0
176
     1
 40
1.0
176
     1
  0
VISUALSTYLE
  5
116E
102
{ACAD_REACTORS
330
1162
102
}
330
1162
100
AcDbVisualStyle
  2
Brighten
 70
    12
177
     3
291
     1
 70
    58
 90
        2
176
     1
 90
        2
176
     1
 90
        0
176
     1
 90
        0
176
     1
 40
0.6
176
     1
 40
30.0
176
     1
 62
     7
420
 16777215
176
     1
 90
        1
176
     1
 90
        4
176
     1
 62
     7
176
     1
 62
   257
176
     1
 90
        1
176
     1
 90
        1
176
     1
 40
1.0
176
     1
 90
        8
176
     1
 62
     7
176
     1
 40
1.0
176
     1
 90
        1
176
     1
 90
        6
176
     1
 90
        2
176
     1
 62
     7
176
     1
 90
        5
176
     1
 90
        0
176
     1
 90
        0
176
     1
290
     0
176
     1
 90
        1
176
     1
 40
50.0
176
     1
 90
        0
176
     1
290
     0
176
     1
290
     1
176
     1
290
     1
176
     1
290
     0
176
     1
290
     0
176
     1
290
     0
176
     1
290
     0
176
     1
290
     0
176
     1
290
     0
176
     1
 90
       50
176
     1
 40
0.0
176
     1
 40
1.0
176
     1
 90
        0
176
     1
 62
   178
420
        0
176
     1
 90
       50
176
     1
 90
        3
176
     1
 62
     5
420
      255
176
     1
290
     0
176
     1
 90
       50
176
     1
 90
       50
176
     1
 90
       50
176
     1
290
     0
176
     1
 90
       50
176
     1
 62
   256
176
     0
 40
1.0
176
     0
 90
        2
176
     1
  1
strokes_ogs.tif
176
     1
290
     0
176
     1
 40
1.0
176
     1
 40
1.0
176
     1
  0
VISUALSTYLE
  5
1172
102
{ACAD_REACTORS
330
1162
102
}
330
1162
100
AcDbVisualStyle
  2
ColorChange
 70
    16
177
     3
291
     1
 70
    58
 90
        2
176
     1
 90
        2
176
     1
 90
        3
176
     1
 90
        0
176
     1
 40
0.6
176
     1
 40
30.0
176
     1
 62
     8
420
  8421504
176
     1
 90
        1
176
     1
 90
        4
176
     1
 62
     7
176
     1
 62
   257
176
     1
 90
        1
176
     1
 90
        1
176
     1
 40
1.0
176
     1
 90
        8
176
     1
 62
     8
420
  8421504
176
     1
 40
1.0
176
     1
 90
        1
176
     1
 90
        6
176
     1
 90
        2
176
     1
 62
     7
176
     1
 90
        5
176
     1
 90
        0
176
     1
 90
        0
176
     1
290
     0
176
     1
 90
        1
176
     1
 40
0.0
176
     1
 90
        0
176
     1
290
     0
176
     1
290
     1
176
     1
290
     1
176
     1
290
     0
176
     1
290
     0
176
     1
290
     0
176
     1
290
     0
176
     1
290
     0
176
     1
290
     0
176
     1
 90
       50
176
     1
 40
0.0
176
     1
 40
1.0
176
     1
 90
        0
176
     1
 62
   178
420
        0
176
     1
 90
       50
176
     1
 90
        3
176
     1
 62
     5
420
      255
176
     1
290
     0
176
     1
 90
       50
176
     1
 90
       50
176
     1
 90
       50
176
     1
290
     0
176
     1
 90
       50
176
     1
 62
   256
176
     0
 40
1.0
176
     0
 90
        2
176
     1
  1
strokes_ogs.tif
176
     1
290
     0
176
     1
 40
1.0
176
     1
 40
1.0
176
     1
  0
VISUALSTYLE
  5
116C
102
{ACAD_REACTORS
330
1162
102
}
330
1162
100
AcDbVisualStyle
  2
Conceptual
 70
     9
177
     3
291
     0
 70
    58
 90
        3
176
     1
 90
        2
176
     1
 90
        0
176
     1
 90
        0
176
     1
 40
0.6
176
     1
 40
30.0
176
     1
 62
     7
420
 16777215
176
     1
 90
        2
176
     1
 90
        2
176
     1
 62
     7
176
     1
 62
   257
176
     1
 90
        1
176
     1
 90
        1
176
     1
 40
179.0
176
     1
 90
        8
176
     1
 62
     7
176
     1
 40
1.0
176
     1
 90
        1
176
     1
 90
        6
176
     1
 90
        2
176
     1
 62
     7
176
     1
 90
        3
176
     1
 90
        0
176
     1
 90
        0
176
     1
290
     0
176
     1
 90
        1
176
     1
 40
0.0
176
     1
 90
        0
176
     1
290
     0
176
     1
290
     1
176
     1
290
     1
176
     1
290
     0
176
     1
290
     0
176
     1
290
     0
176
     1
290
     0
176
     1
290
     0
176
     1
290
     0
176
     1
 90
       50
176
     1
 40
0.0
176
     1
 40
1.0
176
     1
 90
        0
176
     1
 62
   178
420
        0
176
     1
 90
       50
176
     1
 90
        3
176
     1
 62
     5
420
      255
176
     1
290
     0
176
     1
 90
       50
176
     1
 90
       50
176
     1
 90
       50
176
     1
290
     0
176
     1
 90
       50
176
     1
 62
   256
176
     0
 40
1.0
176
     0
 90
        2
176
     1
  1
strokes_ogs.tif
176
     1
290
     0
176
     1
 40
1.0
176
     1
 40
1.0
176
     1
  0
VISUALSTYLE
  5
116D
102
{ACAD_REACTORS
330
1162
102
}
330
1162
100
AcDbVisualStyle
  2
Dim
 70
    11
177
     3
291
     1
 70
    58
 90
        2
176
     1
 90
        2
176
     1
 90
        0
176
     1
 90
        0
176
     1
 40
0.6
176
     1
 40
30.0
176
     1
 62
     7
420
 16777215
176
     1
 90
        1
176
     1
 90
        4
176
     1
 62
     7
176
     1
 62
   257
176
     1
 90
        1
176
     1
 90
        1
176
     1
 40
1.0
176
     1
 90
        8
176
     1
 62
     7
176
     1
 40
1.0
176
     1
 90
        1
176
     1
 90
        6
176
     1
 90
        2
176
     1
 62
     7
176
     1
 90
        5
176
     1
 90
        0
176
     1
 90
        0
176
     1
290
     0
176
     1
 90
        1
176
     1
 40
-50.0
176
     1
 90
        0
176
     1
290
     0
176
     1
290
     1
176
     1
290
     1
176
     1
290
     0
176
     1
290
     0
176
     1
290
     0
176
     1
290
     0
176
     1
290
     0
176
     1
290
     0
176
     1
 90
       50
176
     1
 40
0.0
176
     1
 40
1.0
176
     1
 90
        0
176
     1
 62
   178
420
        0
176
     1
 90
       50
176
     1
 90
        3
176
     1
 62
     5
420
      255
176
     1
290
     0
176
     1
 90
       50
176
     1
 90
       50
176
     1
 90
       50
176
     1
290
     0
176
     1
 90
       50
176
     1
 62
   256
176
     0
 40
1.0
176
     0
 90
        2
176
     1
  1
strokes_ogs.tif
176
     1
290
     0
176
     1
 40
1.0
176
     1
 40
1.0
176
     1
  0
VISUALSTYLE
  5
1175
102
{ACAD_REACTORS
330
1162
102
}
330
1162
100
AcDbVisualStyle
  2
EdgeColorOff
 70
    22
177
     3
291
     1
 70
    58
 90
        2
176
     0
 90
        2
176
     0
 90
        0
176
     0
 90
        0
176
     0
 40
0.6
176
     0
 40
30.0
176
     0
 62
     7
420
 16777215
176
     0
 90
        1
176
     0
 90
        4
176
     0
 62
     7
176
     0
 62
   257
176
     0
 90
        1
176
     0
 90
        1
176
     0
 40
1.0
176
     0
 90
        8
176
     2
 62
     7
176
     0
 40
1.0
176
     0
 90
        1
176
     0
 90
        6
176
     0
 90
        2
176
     0
 62
     7
176
     0
 90
        5
176
     0
 90
        0
176
     0
 90
        0
176
     0
290
     0
176
     0
 90
        1
176
     0
 40
0.0
176
     0
 90
        0
176
     0
290
     0
176
     0
290
     1
176
     0
290
     1
176
     0
290
     0
176
     0
290
     0
176
     0
290
     0
176
     0
290
     0
176
     0
290
     0
176
     0
290
     0
176
     0
 90
       50
176
     0
 40
0.0
176
     0
 40
1.0
176
     0
 90
        0
176
     0
 62
   178
420
        0
176
     0
 90
       50
176
     0
 90
        3
176
     0
 62
     5
420
      255
176
     0
290
     0
176
     0
 90
       50
176
     0
 90
       50
176
     0
 90
       50
176
     0
290
     0
176
     0
 90
       50
176
     0
 62
   256
176
     0
 40
1.0
176
     0
 90
        2
176
     0
  1
strokes_ogs.tif
176
     0
290
     0
176
     0
 40
1.0
176
     0
 40
1.0
176
     0
  0
VISUALSTYLE
  5
1171
102
{ACAD_REACTORS
330
1162
102
}
330
1162
100
AcDbVisualStyle
  2
Facepattern
 70
    15
177
     3
291
     1
 70
    58
 90
        2
176
     1
 90
        2
176
     1
 90
        0
176
     1
 90
        0
176
     1
 40
0.6
176
     1
 40
30.0
176
     1
 62
     7
420
 16777215
176
     1
 90
        1
176
     1
 90
        4
176
     1
 62
     7
176
     1
 62
   257
176
     1
 90
        1
176
     1
 90
        1
176
     1
 40
1.0
176
     1
 90
        8
176
     1
 62
     7
176
     1
 40
1.0
176
     1
 90
        1
176
     1
 90
        6
176
     1
 90
        2
176
     1
 62
     7
176
     1
 90
        5
176
     1
 90
        0
176
     1
 90
        0
176
     1
290
     0
176
     1
 90
        1
176
     1
 40
0.0
176
     1
 90
        0
176
     1
290
     0
176
     1
290
     1
176
     1
290
     1
176
     1
290
     0
176
     1
290
     0
176
     1
290
     0
176
     1
290
     0
176
     1
290
     0
176
     1
290
     0
176
     1
 90
       50
176
     1
 40
0.0
176
     1
 40
1.0
176
     1
 90
        0
176
     1
 62
   178
420
        0
176
     1
 90
       50
176
     1
 90
        3
176
     1
 62
     5
420
      255
176
     1
290
     0
176
     1
 90
       50
176
     1
 90
       50
176
     1
 90
       50
176
     1
290
     0
176
     1
 90
       50
176
     1
 62
   256
176
     0
 40
1.0
176
     0
 90
        2
176
     1
  1
strokes_ogs.tif
176
     1
290
     0
176
     1
 40
1.0
176
     1
 40
1.0
176
     1
  0
VISUALSTYLE
  5
1163
102
{ACAD_REACTORS
330
1162
102
}
330
1162
100
AcDbVisualStyle
  2
Flat
 70
     0
177
     3
291
     1
 70
    58
 90
        2
176
     1
 90
        1
176
     1
 90
        1
176
     1
 90
        2
176
     1
 40
0.6
176
     1
 40
30.0
176
     1
 62
     7
420
 16777215
176
     1
 90
        0
176
     1
 90
        0
176
     1
 62
     7
176
     1
 62
   257
176
     1
 90
        1
176
     1
 90
        1
176
     1
 40
1.0
176
     1
 90
        8
176
     1
 62
     7
176
     1
 40
1.0
176
     1
 90
        1
176
     1
 90
        6
176
     1
 90
        2
176
     1
 62
     7
176
     1
 90
        5
176
     1
 90
        0
176
     1
 90
        0
176
     1
290
     0
176
     1
 90
       13
176
     1
 40
0.0
176
     1
 90
        0
176
     1
290
     0
176
     1
290
     1
176
     1
290
     1
176
     1
290
     0
176
     1
290
     0
176
     1
290
     0
176
     1
290
     0
176
     1
290
     0
176
     1
290
     0
176
     1
 90
       50
176
     1
 40
0.0
176
     1
 40
1.0
176
     1
 90
        0
176
     1
 62
   178
420
        0
176
     1
 90
       50
176
     1
 90
        3
176
     1
 62
     5
420
      255
176
     1
290
     0
176
     1
 90
       50
176
     1
 90
       50
176
     1
 90
       50
176
     1
290
     0
176
     1
 90
       50
176
     1
 62
   256
176
     0
 40
1.0
176
     0
 90
        2
176
     1
  1
strokes_ogs.tif
176
     1
290
     0
176
     1
 40
1.0
176
     1
 40
1.0
176
     1
  0
VISUALSTYLE
  5
1164
102
{ACAD_REACTORS
330
1162
102
}
330
1162
100
AcDbVisualStyle
  2
FlatWithEdges
 70
     1
177
     3
291
     1
 70
    58
 90
        2
176
     1
 90
        1
176
     1
 90
        1
176
     1
 90
        2
176
     1
 40
0.6
176
     1
 40
30.0
176
     1
 62
     7
420
 16777215
176
     1
 90
        1
176
     1
 90
        0
176
     1
 62
     7
176
     1
 62
   257
176
     1
 90
        1
176
     1
 90
        1
176
     1
 40
1.0
176
     1
 90
        0
176
     1
 62
   257
176
     1
 40
1.0
176
     1
 90
        1
176
     1
 90
        6
176
     1
 90
        2
176
     1
 62
     7
176
     1
 90
        5
176
     1
 90
        0
176
     1
 90
        0
176
     1
290
     0
176
     1
 90
       13
176
     1
 40
0.0
176
     1
 90
        0
176
     1
290
     0
176
     1
290
     1
176
     1
290
     1
176
     1
290
     0
176
     1
290
     0
176
     1
290
     0
176
     1
290
     0
176
     1
290
     0
176
     1
290
     0
176
     1
 90
       50
176
     1
 40
0.0
176
     1
 40
1.0
176
     1
 90
        0
176
     1
 62
   178
420
        0
176
     1
 90
       50
176
     1
 90
        3
176
     1
 62
     5
420
      255
176
     1
290
     0
176
     1
 90
       50
176
     1
 90
       50
176
     1
 90
       50
176
     1
290
     0
176
     1
 90
       50
176
     1
 62
   256
176
     0
 40
1.0
176
     0
 90
        2
176
     1
  1
strokes_ogs.tif
176
     1
290
     0
176
     1
 40
1.0
176
     1
 40
1.0
176
     1
  0
VISUALSTYLE
  5
1165
102
{ACAD_REACTORS
330
1162
102
}
330
1162
100
AcDbVisualStyle
  2
Gouraud
 70
     2
177
     3
291
     1
 70
    58
 90
        2
176
     1
 90
        2
176
     1
 90
        1
176
     1
 90
        2
176
     1
 40
0.6
176
     1
 40
30.0
176
     1
 62
     7
420
 16777215
176
     1
 90
        0
176
     1
 90
        0
176
     1
 62
     7
176
     1
 62
   257
176
     1
 90
        1
176
     1
 90
        1
176
     1
 40
1.0
176
     1
 90
        0
176
     1
 62
     7
176
     1
 40
1.0
176
     1
 90
        1
176
     1
 90
        6
176
     1
 90
        2
176
     1
 62
     7
176
     1
 90
        5
176
     1
 90
        0
176
     1
 90
        0
176
     1
290
     0
176
     1
 90
       13
176
     1
 40
0.0
176
     1
 90
        0
176
     1
290
     0
176
     1
290
     1
176
     1
290
     1
176
     1
290
     0
176
     1
290
     0
176
     1
290
     0
176
     1
290
     0
176
     1
290
     0
176
     1
290
     0
176
     1
 90
       50
176
     1
 40
0.0
176
     1
 40
1.0
176
     1
 90
        0
176
     1
 62
   178
420
        0
176
     1
 90
       50
176
     1
 90
        3
176
     1
 62
     5
420
      255
176
     1
290
     0
176
     1
 90
       50
176
     1
 90
       50
176
     1
 90
       50
176
     1
290
     0
176
     1
 90
       50
176
     1
 62
   256
176
     0
 40
1.0
176
     0
 90
        2
176
     1
  1
strokes_ogs.tif
176
     1
290
     0
176
     1
 40
1.0
176
     1
 40
1.0
176
     1
  0
VISUALSTYLE
  5
1166
102
{ACAD_REACTORS
330
1162
102
}
330
1162
100
AcDbVisualStyle
  2
GouraudWithEdges
 70
     3
177
     3
291
     1
 70
    58
 90
        2
176
     1
 90
        2
176
     1
 90
        1
176
     1
 90
        2
176
     1
 40
0.6
176
     1
 40
30.0
176
     1
 62
     7
420
 16777215
176
     1
 90
        1
176
     1
 90
        0
176
     1
 62
     7
176
     1
 62
   257
176
     1
 90
        1
176
     1
 90
        1
176
     1
 40
1.0
176
     1
 90
        0
176
     1
 62
   257
176
     1
 40
1.0
176
     1
 90
        1
176
     1
 90
        6
176
     1
 90
        2
176
     1
 62
     7
176
     1
 90
        5
176
     1
 90
        0
176
     1
 90
        0
176
     1
290
     0
176
     1
 90
       13
176
     1
 40
0.0
176
     1
 90
        0
176
     1
290
     0
176
     1
290
     1
176
     1
290
     1
176
     1
290
     0
176
     1
290
     0
176
     1
290
     0
176
     1
290
     0
176
     1
290
     0
176
     1
290
     0
176
     1
 90
       50
176
     1
 40
0.0
176
     1
 40
1.0
176
     1
 90
        0
176
     1
 62
   178
420
        0
176
     1
 90
       50
176
     1
 90
        3
176
     1
 62
     5
420
      255
176
     1
290
     0
176
     1
 90
       50
176
     1
 90
       50
176
     1
 90
       50
176
     1
290
     0
176
     1
 90
       50
176
     1
 62
   256
176
     0
 40
1.0
176
     0
 90
        2
176
     1
  1
strokes_ogs.tif
176
     1
290
     0
176
     1
 40
1.0
176
     1
 40
1.0
176
     1
  0
VISUALSTYLE
  5
1169
102
{ACAD_REACTORS
330
1162
102
}
330
1162
100
AcDbVisualStyle
  2
Hidden
 70
     6
177
     3
291
     0
 70
    58
 90
        1
176
     1
 90
        2
176
     1
 90
        2
176
     1
 90
        0
176
     1
 40
0.6
176
     1
 40
30.0
176
     1
 62
     7
420
 16777215
176
     1
 90
        2
176
     1
 90
        2
176
     1
 62
     7
176
     1
 62
   257
176
     1
 90
        2
176
     1
 90
        1
176
     1
 40
40.0
176
     1
 90
        0
176
     1
 62
   257
176
     1
 40
1.0
176
     1
 90
        1
176
     1
 90
        6
176
     1
 90
        2
176
     1
 62
     7
176
     1
 90
        3
176
     1
 90
        0
176
     1
 90
        0
176
     1
290
     0
176
     1
 90
        1
176
     1
 40
0.0
176
     1
 90
        0
176
     1
290
     0
176
     1
290
     1
176
     1
290
     1
176
     1
290
     0
176
     1
290
     0
176
     1
290
     0
176
     1
290
     0
176
     1
290
     0
176
     1
290
     0
176
     1
 90
       50
176
     1
 40
0.0
176
     1
 40
1.0
176
     1
 90
        0
176
     1
 62
   178
420
        0
176
     1
 90
       50
176
     1
 90
        3
176
     1
 62
     5
420
      255
176
     1
290
     0
176
     1
 90
       50
176
     1
 90
       50
176
     1
 90
       50
176
     1
290
     0
176
     1
 90
       50
176
     1
 62
   256
176
     0
 40
1.0
176
     0
 90
        2
176
     1
  1
strokes_ogs.tif
176
     1
290
     0
176
     1
 40
1.0
176
     1
 40
1.0
176
     1
  0
VISUALSTYLE
  5
1173
102
{ACAD_REACTORS
330
1162
102
}
330
1162
100
AcDbVisualStyle
  2
JitterOff
 70
    20
177
     3
291
     1
 70
    58
 90
        2
176
     0
 90
        2
176
     0
 90
        0
176
     0
 90
        0
176
     0
 40
0.6
176
     0
 40
30.0
176
     0
 62
     7
420
 16777215
176
     0
 90
        1
176
     0
 90
        4
176
     0
 62
     7
176
     0
 62
   257
176
     0
 90
        1
176
     0
 90
        1
176
     0
 40
1.0
176
     0
 90
       10
176
     2
 62
     7
176
     0
 40
1.0
176
     0
 90
        1
176
     0
 90
        6
176
     0
 90
        2
176
     0
 62
     7
176
     0
 90
        5
176
     0
 90
        0
176
     0
 90
        0
176
     0
290
     0
176
     0
 90
        1
176
     0
 40
0.0
176
     0
 90
        0
176
     0
290
     0
176
     0
290
     1
176
     0
290
     1
176
     0
290
     0
176
     0
290
     0
176
     0
290
     0
176
     0
290
     0
176
     0
290
     0
176
     0
290
     0
176
     0
 90
       50
176
     0
 40
0.0
176
     0
 40
1.0
176
     0
 90
        0
176
     0
 62
   178
420
        0
176
     0
 90
       50
176
     0
 90
        3
176
     0
 62
     5
420
      255
176
     0
290
     0
176
     0
 90
       50
176
     0
 90
       50
176
     0
 90
       50
176
     0
290
     0
176
     0
 90
       50
176
     0
 62
   256
176
     0
 40
1.0
176
     0
 90
        2
176
     0
  1
strokes_ogs.tif
176
     0
290
     0
176
     0
 40
1.0
176
     0
 40
1.0
176
     0
  0
VISUALSTYLE
  5
1170
102
{ACAD_REACTORS
330
1162
102
}
330
1162
100
AcDbVisualStyle
  2
Linepattern
 70
    14
177
     3
291
     1
 70
    58
 90
        2
176
     1
 90
        2
176
     1
 90
        0
176
     1
 90
        0
176
     1
 40
0.6
176
     1
 40
30.0
176
     1
 62
     7
420
 16777215
176
     1
 90
        1
176
     1
 90
        4
176
     1
 62
     7
176
     1
 62
   257
176
     1
 90
        7
176
     1
 90
        7
176
     1
 40
1.0
176
     1
 90
        8
176
     1
 62
     7
176
     1
 40
1.0
176
     1
 90
        1
176
     1
 90
        6
176
     1
 90
        2
176
     1
 62
     7
176
     1
 90
        5
176
     1
 90
        0
176
     1
 90
        0
176
     1
290
     0
176
     1
 90
        1
176
     1
 40
0.0
176
     1
 90
        0
176
     1
290
     0
176
     1
290
     1
176
     1
290
     1
176
     1
290
     0
176
     1
290
     0
176
     1
290
     0
176
     1
290
     0
176
     1
290
     0
176
     1
290
     0
176
     1
 90
       50
176
     1
 40
0.0
176
     1
 40
1.0
176
     1
 90
        0
176
     1
 62
   178
420
        0
176
     1
 90
       50
176
     1
 90
        3
176
     1
 62
     5
420
      255
176
     1
290
     0
176
     1
 90
       50
176
     1
 90
       50
176
     1
 90
       50
176
     1
290
     0
176
     1
 90
       50
176
     1
 62
   256
176
     0
 40
1.0
176
     0
 90
        2
176
     1
  1
strokes_ogs.tif
176
     1
290
     0
176
     1
 40
1.0
176
     1
 40
1.0
176
     1
  0
VISUALSTYLE
  5
1174
102
{ACAD_REACTORS
330
1162
102
}
330
1162
100
AcDbVisualStyle
  2
OverhangOff
 70
    21
177
     3
291
     1
 70
    58
 90
        2
176
     0
 90
        2
176
     0
 90
        0
176
     0
 90
        0
176
     0
 40
0.6
176
     0
 40
30.0
176
     0
 62
     7
420
 16777215
176
     0
 90
        1
176
     0
 90
        4
176
     0
 62
     7
176
     0
 62
   257
176
     0
 90
        1
176
     0
 90
        1
176
     0
 40
1.0
176
     0
 90
        9
176
     2
 62
     7
176
     0
 40
1.0
176
     0
 90
        1
176
     0
 90
        6
176
     0
 90
        2
176
     0
 62
     7
176
     0
 90
        5
176
     0
 90
        0
176
     0
 90
        0
176
     0
290
     0
176
     0
 90
        1
176
     0
 40
0.0
176
     0
 90
        0
176
     0
290
     0
176
     0
290
     1
176
     0
290
     1
176
     0
290
     0
176
     0
290
     0
176
     0
290
     0
176
     0
290
     0
176
     0
290
     0
176
     0
290
     0
176
     0
 90
       50
176
     0
 40
0.0
176
     0
 40
1.0
176
     0
 90
        0
176
     0
 62
   178
420
        0
176
     0
 90
       50
176
     0
 90
        3
176
     0
 62
     5
420
      255
176
     0
290
     0
176
     0
 90
       50
176
     0
 90
       50
176
     0
 90
       50
176
     0
290
     0
176
     0
 90
       50
176
     0
 62
   256
176
     0
 40
1.0
176
     0
 90
        2
176
     0
  1
strokes_ogs.tif
176
     0
290
     0
176
     0
 40
1.0
176
     0
 40
1.0
176
     0
  0
VISUALSTYLE
  5
116B
102
{ACAD_REACTORS
330
1162
102
}
330
1162
100
AcDbVisualStyle
  2
Realistic
 70
     8
177
     3
291
     0
 70
    58
 90
        2
176
     1
 90
        3
176
     1
 90
        0
176
     1
 90
        2
176
     1
 40
0.6
176
     1
 40
30.0
176
     1
 62
     7
420
 16777215
176
     1
 90
        0
176
     1
 90
        0
176
     1
 62
     7
176
     1
 62
   257
176
     1
 90
        1
176
     1
 90
        1
176
     1
 40
1.0
176
     1
 90
        8
176
     1
 62
   257
176
     1
 40
1.0
176
     1
 90
        1
176
     1
 90
        6
176
     1
 90
        2
176
     1
 62
     7
176
     1
 90
        3
176
     1
 90
        0
176
     1
 90
        0
176
     1
290
     0
176
     1
 90
       13
176
     1
 40
0.0
176
     1
 90
        0
176
     1
290
     0
176
     1
290
     1
176
     1
290
     1
176
     1
290
     0
176
     1
290
     0
176
     1
290
     0
176
     1
290
     0
176
     1
290
     0
176
     1
290
     0
176
     1
 90
       50
176
     1
 40
0.0
176
     1
 40
1.0
176
     1
 90
        0
176
     1
 62
   178
420
        0
176
     1
 90
       50
176
     1
 90
        3
176
     1
 62
     5
420
      255
176
     1
290
     0
176
     1
 90
       50
176
     1
 90
       50
176
     1
 90
       50
176
     1
290
     0
176
     1
 90
       50
176
     1
 62
   256
176
     0
 40
1.0
176
     0
 90
        2
176
     1
  1
strokes_ogs.tif
176
     1
290
     0
176
     1
 40
1.0
176
     1
 40
1.0
176
     1
  0
VISUALSTYLE
  5
117A
102
{ACAD_REACTORS
330
1162
102
}
330
1162
100
AcDbVisualStyle
  2
Shaded
 70
    27
177
     3
291
     0
 70
    58
 90
        2
176
     1
 90
        2
176
     1
 90
        1
176
     1
 90
        2
176
     1
 40
0.6
176
     1
 40
30.0
176
     1
 62
     7
420
 16777215
176
     1
 90
        0
176
     1
 90
        4
176
     1
 62
     7
176
     1
 62
   257
176
     1
 90
        1
176
     1
 90
        1
176
     1
 40
1.0
176
     1
 90
        8
176
     1
 62
   257
176
     1
 40
1.0
176
     1
 90
        1
176
     1
 90
        6
176
     1
 90
        2
176
     1
 62
     8
420
  7895160
176
     1
 90
        3
176
     1
 90
        0
176
     1
 90
        0
176
     1
290
     0
176
     1
 90
        5
176
     1
 40
0.0
176
     1
 90
        0
176
     1
290
     0
176
     1
290
     1
176
     1
290
     1
176
     1
290
     0
176
     1
290
     0
176
     1
290
     0
176
     1
290
     0
176
     1
290
     0
176
     1
290
     0
176
     1
 90
       50
176
     1
 40
0.0
176
     1
 40
1.0
176
     1
 90
        0
176
     1
 62
   178
420
        0
176
     1
 90
       50
176
     1
 90
        3
176
     1
 62
     5
420
      255
176
     1
290
     0
176
     1
 90
       50
176
     1
 90
       50
176
     1
 90
       50
176
     1
290
     0
176
     1
 90
       50
176
     1
 62
   256
176
     0
 40
1.0
176
     0
 90
        2
176
     1
  1
strokes_ogs.tif
176
     1
290
     0
176
     1
 40
1.0
176
     1
 40
1.0
176
     1
  0
VISUALSTYLE
  5
1179
102
{ACAD_REACTORS
330
1162
102
}
330
1162
100
AcDbVisualStyle
  2
Shaded with edges
 70
    26
177
     3
291
     0
 70
    58
 90
        2
176
     1
 90
        2
176
     1
 90
        1
176
     1
 90
        2
176
     1
 40
0.6
176
     1
 40
30.0
176
     1
 62
     7
420
 16777215
176
     1
 90
        1
176
     1
 90
       10
176
     1
 62
     7
176
     1
 62
   257
176
     1
 90
        2
176
     1
 90
        1
176
     1
 40
1.0
176
     1
 90
        8
176
     1
 62
   257
176
     1
 40
1.0
176
     1
 90
        1
176
     1
 90
        6
176
     1
 90
        2
176
     1
 62
     7
176
     1
 90
        3
176
     1
 90
        0
176
     1
 90
        0
176
     1
290
     0
176
     1
 90
        5
176
     1
 40
0.0
176
     1
 90
        0
176
     1
290
     0
176
     1
290
     1
176
     1
290
     1
176
     1
290
     0
176
     1
290
     0
176
     1
290
     0
176
     1
290
     0
176
     1
290
     0
176
     1
290
     0
176
     1
 90
       50
176
     1
 40
0.0
176
     1
 40
1.0
176
     1
 90
        0
176
     1
 62
   178
420
        0
176
     1
 90
       50
176
     1
 90
        3
176
     1
 62
     5
420
      255
176
     1
290
     0
176
     1
 90
       50
176
     1
 90
       50
176
     1
 90
       50
176
     1
290
     0
176
     1
 90
       50
176
     1
 62
   256
176
     0
 40
1.0
176
     0
 90
        2
176
     1
  1
strokes_ogs.tif
176
     1
290
     0
176
     1
 40
1.0
176
     1
 40
1.0
176
     1
  0
VISUALSTYLE
  5
1176
102
{ACAD_REACTORS
330
1162
102
}
330
1162
100
AcDbVisualStyle
  2
Shades of Gray
 70
    23
177
     3
291
     0
 70
    58
 90
        2
176
     1
 90
        2
176
     1
 90
        3
176
     1
 90
        0
176
     1
 40
0.6
176
     1
 40
30.0
176
     1
 62
     7
420
 16777215
176
     1
 90
        2
176
     1
 90
        2
176
     1
 62
     7
176
     1
 62
     7
176
     1
 90
        1
176
     1
 90
        1
176
     1
 40
40.0
176
     1
 90
        8
176
     1
 62
     7
176
     1
 40
1.0
176
     1
 90
        1
176
     1
 90
        6
176
     1
 90
        2
176
     1
 62
     7
176
     1
 90
        3
176
     1
 90
        0
176
     1
 90
        0
176
     1
290
     0
176
     1
 90
        1
176
     1
 40
0.0
176
     1
 90
        0
176
     1
290
     0
176
     1
290
     1
176
     1
290
     1
176
     1
290
     0
176
     1
290
     0
176
     1
290
     0
176
     1
290
     0
176
     1
290
     0
176
     1
290
     0
176
     1
 90
       50
176
     1
 40
0.0
176
     1
 40
1.0
176
     1
 90
        0
176
     1
 62
   178
420
        0
176
     1
 90
       50
176
     1
 90
        3
176
     1
 62
     5
420
      255
176
     1
290
     0
176
     1
 90
       50
176
     1
 90
       50
176
     1
 90
       50
176
     1
290
     0
176
     1
 90
       50
176
     1
 62
   256
176
     0
 40
1.0
176
     0
 90
        2
176
     1
  1
strokes_ogs.tif
176
     1
290
     0
176
     1
 40
1.0
176
     1
 40
1.0
176
     1
  0
VISUALSTYLE
  5
1177
102
{ACAD_REACTORS
330
1162
102
}
330
1162
100
AcDbVisualStyle
  2
Sketchy
 70
    24
177
     3
291
     0
 70
    58
 90
        1
176
     1
 90
        2
176
     1
 90
        2
176
     1
 90
        0
176
     1
 40
0.6
176
     1
 40
30.0
176
     1
 62
     7
420
 16777215
176
     1
 90
        2
176
     1
 90
        2
176
     1
 62
     7
176
     1
 62
     7
176
     1
 90
        1
176
     1
 90
        1
176
     1
 40
40.0
176
     1
 90
       11
176
     1
 62
     7
176
     1
 40
1.0
176
     1
 90
        1
176
     1
 90
        6
176
     1
 90
        2
176
     1
 62
     7
176
     1
 90
        6
176
     1
 90
        0
176
     1
 90
        0
176
     1
290
     0
176
     1
 90
        1
176
     1
 40
0.0
176
     1
 90
        0
176
     1
290
     0
176
     1
290
     1
176
     1
290
     1
176
     1
290
     0
176
     1
290
     0
176
     1
290
     0
176
     1
290
     0
176
     1
290
     0
176
     1
290
     0
176
     1
 90
       50
176
     1
 40
0.0
176
     1
 40
1.0
176
     1
 90
        0
176
     1
 62
   178
420
        0
176
     1
 90
       50
176
     1
 90
        3
176
     1
 62
     5
420
      255
176
     1
290
     0
176
     1
 90
       50
176
     1
 90
       50
176
     1
 90
       50
176
     1
290
     0
176
     1
 90
       50
176
     1
 62
   256
176
     0
 40
1.0
176
     0
 90
        2
176
     1
  1
strokes_ogs.tif
176
     1
290
     0
176
     1
 40
1.0
176
     1
 40
1.0
176
     1
  0
VISUALSTYLE
  5
116F
102
{ACAD_REACTORS
330
1162
102
}
330
1162
100
AcDbVisualStyle
  2
Thicken
 70
    13
177
     3
291
     1
 70
    58
 90
        2
176
     1
 90
        2
176
     1
 90
        0
176
     1
 90
        0
176
     1
 40
0.6
176
     1
 40
30.0
176
     1
 62
     7
420
 16777215
176
     1
 90
        1
176
     1
 90
        4
176
     1
 62
     7
176
     1
 62
   257
176
     1
 90
        1
176
     1
 90
        1
176
     1
 40
1.0
176
     1
 90
       12
176
     1
 62
     7
176
     1
 40
1.0
176
     1
 90
        1
176
     1
 90
        6
176
     1
 90
        2
176
     1
 62
     7
176
     1
 90
        5
176
     1
 90
        0
176
     1
 90
        0
176
     1
290
     0
176
     1
 90
        1
176
     1
 40
0.0
176
     1
 90
        0
176
     1
290
     0
176
     1
290
     1
176
     1
290
     1
176
     1
290
     0
176
     1
290
     0
176
     1
290
     0
176
     1
290
     0
176
     1
290
     0
176
     1
290
     0
176
     1
 90
       50
176
     1
 40
0.0
176
     1
 40
1.0
176
     1
 90
        0
176
     1
 62
   178
420
        0
176
     1
 90
       50
176
     1
 90
        3
176
     1
 62
     5
420
      255
176
     1
290
     0
176
     1
 90
       50
176
     1
 90
       50
176
     1
 90
       50
176
     1
290
     0
176
     1
 90
       50
176
     1
 62
   256
176
     0
 40
1.0
176
     0
 90
        2
176
     1
  1
strokes_ogs.tif
176
     1
290
     0
176
     1
 40
1.0
176
     1
 40
1.0
176
     1
  0
VISUALSTYLE
  5
1168
102
{ACAD_REACTORS
330
1162
102
}
330
1162
100
AcDbVisualStyle
  2
Wireframe
 70
     5
177
     3
291
     0
 70
    58
 90
        0
176
     1
 90
        2
176
     1
 90
        0
176
     1
 90
        0
176
     1
 40
0.6
176
     1
 40
30.0
176
     1
 62
     7
420
 16777215
176
     1
 90
        1
176
     1
 90
        4
176
     1
 62
     7
176
     1
 62
   257
176
     1
 90
        1
176
     1
 90
        1
176
     1
 40
1.0
176
     1
 90
        0
176
     1
 62
   257
176
     1
 40
1.0
176
     1
 90
        1
176
     1
 90
        6
176
     1
 90
        2
176
     1
 62
     7
176
     1
 90
        3
176
     1
 90
        0
176
     1
 90
        0
176
     1
290
     0
176
     1
 90
        1
176
     1
 40
0.0
176
     1
 90
        0
176
     1
290
     0
176
     1
290
     1
176
     1
290
     1
176
     1
290
     0
176
     1
290
     0
176
     1
290
     0
176
     1
290
     0
176
     1
290
     0
176
     1
290
     0
176
     1
 90
       50
176
     1
 40
0.0
176
     1
 40
1.0
176
     1
 90
        0
176
     1
 62
   178
420
        0
176
     1
 90
       50
176
     1
 90
        3
176
     1
 62
     5
420
      255
176
     1
290
     0
176
     1
 90
       50
176
     1
 90
       50
176
     1
 90
       50
176
     1
290
     0
176
     1
 90
       50
176
     1
 62
   256
176
     0
 40
1.0
176
     0
 90
        2
176
     1
  1
strokes_ogs.tif
176
     1
290
     0
176
     1
 40
1.0
176
     1
 40
1.0
176
     1
  0
VISUALSTYLE
  5
1178
102
{ACAD_REACTORS
330
1162
102
}
330
1162
100
AcDbVisualStyle
  2
X-Ray
 70
    25
177
     3
291
     0
 70
    58
 90
        2
176
     1
 90
        2
176
     1
 90
        1
176
     1
 90
        1
176
     1
 40
0.5
176
     1
 40
30.0
176
     1
 62
     7
420
 16777215
176
     1
 90
        1
176
     1
 90
        0
176
     1
 62
     7
176
     1
 62
   257
176
     1
 90
        1
176
     1
 90
        1
176
     1
 40
1.0
176
     1
 90
        8
176
     1
 62
     7
176
     1
 40
1.0
176
     1
 90
        1
176
     1
 90
        6
176
     1
 90
        2
176
     1
 62
     7
176
     1
 90
        3
176
     1
 90
        0
176
     1
 90
        0
176
     1
290
     0
176
     1
 90
       13
176
     1
 40
0.0
176
     1
 90
        0
176
     1
290
     0
176
     1
290
     1
176
     1
290
     1
176
     1
290
     0
176
     1
290
     0
176
     1
290
     0
176
     1
290
     0
176
     1
290
     0
176
     1
290
     0
176
     1
 90
       50
176
     1
 40
0.0
176
     1
 40
1.0
176
     1
 90
        0
176
     1
 62
   178
420
        0
176
     1
 90
       50
176
     1
 90
        3
176
     1
 62
     5
420
      255
176
     1
290
     0
176
     1
 90
       50
176
     1
 90
       50
176
     1
 90
       50
176
     1
290
     0
176
     1
 90
       50
176
     1
 62
   256
176
     0
 40
1.0
176
     0
 90
        2
176
     1
  1
strokes_ogs.tif
176
     1
290
     0
176
     1
 40
1.0
176
     1
 40
1.0
176
     1
  0
DICTIONARYVAR
  5
1231
102
{ACAD_REACTORS
330
1230
102
}
330
1230
100
DictionaryVariables
280
     0
  1
1:1
  0
DICTIONARYVAR
  5
1236
102
{ACAD_REACTORS
330
1230
102
}
330
1230
100
DictionaryVariables
280
     0
  1
Standard
  0
DICTIONARYVAR
  5
1235
102
{ACAD_REACTORS
330
1230
102
}
330
1230
100
DictionaryVariables
280
     0
  1
Standard
  0
XRECORD
  5
11A9
102
{ACAD_REACTORS
330
11A7
102
}
330
11A7
100
AcDbXrecord
280
     1
1000
#ffffff
  0
XRECORD
  5
11AA
102
{ACAD_REACTORS
330
11A7
102
}
330
11A7
100
AcDbXrecord
280
     1
1000
BlackWhite
  0
XRECORD
  5
11AB
102
{ACAD_REACTORS
330
11A7
102
}
330
11A7
100
AcDbXrecord
280
     1
290
     1
  0
XRECORD
  5
11AC
102
{ACAD_REACTORS
330
11A7
102
}
330
11A7
100
AcDbXrecord
280
     1
290
     0
  0
XRECORD
  5
11AD
102
{ACAD_REACTORS
330
11A7
102
}
330
11A7
100
AcDbXrecord
280
     1
290
     0
  0
XRECORD
  5
11AE
102
{ACAD_REACTORS
330
11A7
102
}
330
11A7
100
AcDbXrecord
280
     1
290
     0
  0
XRECORD
  5
11AF
102
{ACAD_REACTORS
330
11A7
102
}
330
11A7
100
AcDbXrecord
280
     1
1000
1.27
  0
XRECORD
  5
11B0
102
{ACAD_REACTORS
330
11A7
102
}
330
11A7
100
AcDbXrecord
280
     1
1000
auto
  0
XRECORD
  5
11B1
102
{ACAD_REACTORS
330
11A7
102
}
330
11A7
100
AcDbXrecord
280
     1
1000

  0
XRECORD
  5
11B2
102
{ACAD_REACTORS
330
11A7
102
}
330
11A7
100
AcDbXrecord
280
     1
1000
auto
  0
XRECORD
  5
11B3
102
{ACAD_REACTORS
330
11A7
102
}
330
11A7
100
AcDbXrecord
280
     1
1000
1.27
  0
XRECORD
  5
11B4
102
{ACAD_REACTORS
330
11A7
102
}
330
11A7
100
AcDbXrecord
280
     1
1000
auto
  0
XRECORD
  5
11B5
102
{ACAD_REACTORS
330
11A7
102
}
330
11A7
100
AcDbXrecord
280
     1
1000
auto
  0
XRECORD
  5
11B6
102
{ACAD_REACTORS
330
11A7
102
}
330
11A7
100
AcDbXrecord
280
     1
1000
auto
  0
XRECORD
  5
11B7
102
{ACAD_REACTORS
330
11A7
102
}
330
11A7
100
AcDbXrecord
280
     1
290
     0
  0
XRECORD
  5
11B8
102
{ACAD_REACTORS
330
11A7
102
}
330
11A7
100
AcDbXrecord
280
     1
290
     0
  0
XRECORD
  5
11B9
102
{ACAD_REACTORS
330
11A7
102
}
330
11A7
100
AcDbXrecord
280
     1
290
     0
  0
XRECORD
  5
11BA
102
{ACAD_REACTORS
330
11A7
102
}
330
11A7
100
AcDbXrecord
280
     1
290
     0
  0
XRECORD
  5
11BB
102
{ACAD_REACTORS
330
11A7
102
}
330
11A7
100
AcDbXrecord
280
     1
 90
    65537
  0
XRECORD
  5
11BC
102
{ACAD_REACTORS
330
11A7
102
}
330
11A7
100
AcDbXrecord
280
     1
 90
    65537
  0
XRECORD
  5
11BD
102
{ACAD_REACTORS
330
11A7
102
}
330
11A7
100
AcDbXrecord
280
     1
 90
    65537
  0
XRECORD
  5
11BE
102
{ACAD_REACTORS
330
11A7
102
}
330
11A7
100
AcDbXrecord
280
     1
 90
    65537
  0
XRECORD
  5
11BF
102
{ACAD_REACTORS
330
11A7
102
}
330
11A7
100
AcDbXrecord
280
     1
1000
1.27
  0
XRECORD
  5
11C0
102
{ACAD_REACTORS
330
11A7
102
}
330
11A7
100
AcDbXrecord
280
     1
1000
auto
  0
XRECORD
  5
11C1
102
{ACAD_REACTORS
330
11A7
102
}
330
11A7
100
AcDbXrecord
280
     1
1000
auto
  0
XRECORD
  5
11C2
102
{ACAD_REACTORS
330
11A7
102
}
330
11A7
100
AcDbXrecord
280
     1
1000
auto
  0
XRECORD
  5
11C3
102
{ACAD_REACTORS
330
11A7
102
}
330
11A7
100
AcDbXrecord
280
     1
1000
1.27
  0
XRECORD
  5
11C4
102
{ACAD_REACTORS
330
11A7
102
}
330
11A7
100
AcDbXrecord
280
     1
1000
auto
  0
XRECORD
  5
11C5
102
{ACAD_REACTORS
330
11A7
102
}
330
11A7
100
AcDbXrecord
280
     1
1000
auto
  0
XRECORD
  5
11C6
102
{ACAD_REACTORS
330
11A7
102
}
330
11A7
100
AcDbXrecord
280
     1
1000
auto
  0
XRECORD
  5
11C7
102
{ACAD_REACTORS
330
11A7
102
}
330
11A7
100
AcDbXrecord
280
     1
 90
        1
  0
XRECORD
  5
11C8
102
{ACAD_REACTORS
330
11A7
102
}
330
11A7
100
AcDbXrecord
280
     1
 40
10.0
  0
XRECORD
  5
11C9
102
{ACAD_REACTORS
330
11A7
102
}
330
11A7
100
AcDbXrecord
280
     1
 40
10.0
  0
XRECORD
  5
11CA
102
{ACAD_REACTORS
330
11A7
102
}
330
11A7
100
AcDbXrecord
280
     1
 40
10.0
  0
XRECORD
  5
11CB
102
{ACAD_REACTORS
330
11A7
102
}
330
11A7
100
AcDbXrecord
280
     1
 40
10.0
  0
XRECORD
  5
11CC
102
{ACAD_REACTORS
330
11A7
102
}
330
11A7
100
AcDbXrecord
280
     1
290
     0
  0
XRECORD
  5
11CD
102
{ACAD_REACTORS
330
11A7
102
}
330
11A7
100
AcDbXrecord
280
     1
 90
        1
  0
XRECORD
  5
11CE
102
{ACAD_REACTORS
330
11A7
102
}
330
11A7
100
AcDbXrecord
280
     1
 40
-4.494689826302674
  0
XRECORD
  5
11CF
102
{ACAD_REACTORS
330
11A7
102
}
330
11A7
100
AcDbXrecord
280
     1
 40
-12.60224897545184
  0
XRECORD
  5
11D0
102
{ACAD_REACTORS
330
11A7
102
}
330
11A7
100
AcDbXrecord
280
     1
1000
Landscape
  0
XRECORD
  5
11D1
102
{ACAD_REACTORS
330
11A7
102
}
330
11A7
100
AcDbXrecord
280
     1
 40
277.0
  0
XRECORD
  5
11D2
102
{ACAD_REACTORS
330
11A7
102
}
330
11A7
100
AcDbXrecord
280
     1
 40
202.5
  0
XRECORD
  5
11D3
102
{ACAD_REACTORS
330
11A7
102
}
330
11A7
100
AcDbXrecord
280
     1
1000
2:1
  0
XRECORD
  5
11D4
102
{ACAD_REACTORS
330
11A7
102
}
330
11A7
100
AcDbXrecord
280
     1
290
     1
  0
XRECORD
  5
11D5
102
{ACAD_REACTORS
330
11A7
102
}
330
11A7
100
AcDbXrecord
280
     1
290
     0
  0
XRECORD
  5
11D6
102
{ACAD_REACTORS
330
11A7
102
}
330
11A7
100
AcDbXrecord
280
     1
1000
Inside
  0
XRECORD
  5
11D7
102
{ACAD_REACTORS
330
11A7
102
}
330
11A7
100
AcDbXrecord
280
     1
1000
Arial,10,-1,5,50,0,0,0,0,0
  0
XRECORD
  5
11D8
102
{ACAD_REACTORS
330
11A7
102
}
330
11A7
100
AcDbXrecord
280
     1
1000
TopLeft
  0
XRECORD
  5
11D9
102
{ACAD_REACTORS
330
11A7
102
}
330
11A7
100
AcDbXrecord
280
     1
1000
3.26.4
  0
XRECORD
  5
11DA
102
{ACAD_REACTORS
330
11A7
102
}
330
11A7
100
AcDbXrecord
280
     1
 90
        4
  0
XRECORD
  5
11DB
102
{ACAD_REACTORS
330
11A7
102
}
330
11A7
100
AcDbXrecord
280
     1
  0
XRECORD
  5
11DC
102
{ACAD_REACTORS
330
11A7
102
}
330
11A7
100
AcDbXrecord
280
     1
 40
84.33504325699745
  0
XRECORD
  5
11DD
102
{ACAD_REACTORS
330
11A7
102
}
330
11A7
100
AcDbXrecord
280
     1
 40
202.6374147582697
  0
DICTIONARY
  5
1232
330
11A2
100
AcDbDictionary
280
     1
281
     1
  3
ACAD_ROUNDTRIP_2008_TABLESTYLE_CELLSTYLEMAP
360
1233
  0
CELLSTYLEMAP
  5
1233
102
{ACAD_REACTORS
330
1232
102
}
330
1232
100
AcDbCellStyleMap
 90
        3
300
CELLSTYLE
  1
TABLEFORMAT_BEGIN
 90
        5
170
     1
 91
        0
 92
    32768
 62
   257
 93
        1
300
CONTENTFORMAT
  1
CONTENTFORMAT_BEGIN
 90
        0
 91
        0
 92
        4
 93
        0
300

 40
0.0
140
1.0
 94
        5
 62
     0
340
114A
144
0.25
309
CONTENTFORMAT_END
171
     1
301
MARGIN
  1
CELLMARGIN_BEGIN
 40
0.06
 40
0.06
 40
0.06
 40
0.06
 40
0.06
 40
0.06
309
CELLMARGIN_END
 94
        6
 95
        1
302
GRIDFORMAT
  1
GRIDFORMAT_BEGIN
 90
        0
 91
        1
 62
     0
 92
       -2
340
114C
 93
        0
 40
0.045
309
GRIDFORMAT_END
 95
        2
302
GRIDFORMAT
  1
GRIDFORMAT_BEGIN
 90
        0
 91
        1
 62
     0
 92
       -2
340
114C
 93
        0
 40
0.045
309
GRIDFORMAT_END
 95
        4
302
GRIDFORMAT
  1
GRIDFORMAT_BEGIN
 90
        0
 91
        1
 62
     0
 92
       -2
340
114C
 93
        0
 40
0.045
309
GRIDFORMAT_END
 95
        8
302
GRIDFORMAT
  1
GRIDFORMAT_BEGIN
 90
        0
 91
        1
 62
     0
 92
       -2
340
114C
 93
        0
 40
0.045
309
GRIDFORMAT_END
 95
       16
302
GRIDFORMAT
  1
GRIDFORMAT_BEGIN
 90
        0
 91
        1
 62
     0
 92
       -2
340
114C
 93
        0
 40
0.045
309
GRIDFORMAT_END
 95
       32
302
GRIDFORMAT
  1
GRIDFORMAT_BEGIN
 90
        0
 91
        1
 62
     0
 92
       -2
340
114C
 93
        0
 40
0.045
309
GRIDFORMAT_END
309
TABLEFORMAT_END
  1
CELLSTYLE_BEGIN
 90
        1
 91
        1
300
_TITLE
309
CELLSTYLE_END
300
CELLSTYLE
  1
TABLEFORMAT_BEGIN
 90
        5
170
     1
 91
        0
 92
        0
 62
   257
 93
        1
300
CONTENTFORMAT
  1
CONTENTFORMAT_BEGIN
 90
        0
 91
        0
 92
        4
 93
        0
300

 40
0.0
140
1.0
 94
        5
 62
     0
340
114A
144
0.18
309
CONTENTFORMAT_END
171
     1
301
MARGIN
  1
CELLMARGIN_BEGIN
 40
0.06
 40
0.06
 40
0.06
 40
0.06
 40
0.06
 40
0.06
309
CELLMARGIN_END
 94
        6
 95
        1
302
GRIDFORMAT
  1
GRIDFORMAT_BEGIN
 90
        0
 91
        1
 62
     0
 92
       -2
340
114C
 93
        0
 40
0.045
309
GRIDFORMAT_END
 95
        2
302
GRIDFORMAT
  1
GRIDFORMAT_BEGIN
 90
        0
 91
        1
 62
     0
 92
       -2
340
114C
 93
        0
 40
0.045
309
GRIDFORMAT_END
 95
        4
302
GRIDFORMAT
  1
GRIDFORMAT_BEGIN
 90
        0
 91
        1
 62
     0
 92
       -2
340
114C
 93
        0
 40
0.045
309
GRIDFORMAT_END
 95
        8
302
GRIDFORMAT
  1
GRIDFORMAT_BEGIN
 90
        0
 91
        1
 62
     0
 92
       -2
340
114C
 93
        0
 40
0.045
309
GRIDFORMAT_END
 95
       16
302
GRIDFORMAT
  1
GRIDFORMAT_BEGIN
 90
        0
 91
        1
 62
     0
 92
       -2
340
114C
 93
        0
 40
0.045
309
GRIDFORMAT_END
 95
       32
302
GRIDFORMAT
  1
GRIDFORMAT_BEGIN
 90
        0
 91
        1
 62
     0
 92
       -2
340
114C
 93
        0
 40
0.045
309
GRIDFORMAT_END
309
TABLEFORMAT_END
  1
CELLSTYLE_BEGIN
 90
        2
 91
        1
300
_HEADER
309
CELLSTYLE_END
300
CELLSTYLE
  1
TABLEFORMAT_BEGIN
 90
        5
170
     1
 91
        0
 92
        0
 62
   257
 93
        1
300
CONTENTFORMAT
  1
CONTENTFORMAT_BEGIN
 90
        0
 91
        0
 92
        4
 93
        0
300

 40
0.0
140
1.0
 94
        2
 62
     0
340
114A
144
0.18
309
CONTENTFORMAT_END
171
     1
301
MARGIN
  1
CELLMARGIN_BEGIN
 40
0.06
 40
0.06
 40
0.06
 40
0.06
 40
0.06
 40
0.06
309
CELLMARGIN_END
 94
        6
 95
        1
302
GRIDFORMAT
  1
GRIDFORMAT_BEGIN
 90
        0
 91
        1
 62
     0
 92
       -2
340
114C
 93
        0
 40
0.045
309
GRIDFORMAT_END
 95
        2
302
GRIDFORMAT
  1
GRIDFORMAT_BEGIN
 90
        0
 91
        1
 62
     0
 92
       -2
340
114C
 93
        0
 40
0.045
309
GRIDFORMAT_END
 95
        4
302
GRIDFORMAT
  1
GRIDFORMAT_BEGIN
 90
        0
 91
        1
 62
     0
 92
       -2
340
114C
 93
        0
 40
0.045
309
GRIDFORMAT_END
 95
        8
302
GRIDFORMAT
  1
GRIDFORMAT_BEGIN
 90
        0
 91
        1
 62
     0
 92
       -2
340
114C
 93
        0
 40
0.045
309
GRIDFORMAT_END
 95
       16
302
GRIDFORMAT
  1
GRIDFORMAT_BEGIN
 90
        0
 91
        1
 62
     0
 92
       -2
340
114C
 93
        0
 40
0.045
309
GRIDFORMAT_END
 95
       32
302
GRIDFORMAT
  1
GRIDFORMAT_BEGIN
 90
        0
 91
        1
 62
     0
 92
       -2
340
114C
 93
        0
 40
0.045
309
GRIDFORMAT_END
309
TABLEFORMAT_END
  1
CELLSTYLE_BEGIN
 90
        3
 91
        2
300
_DATA
309
CELLSTYLE_END
  0
ENDSEC
  0
EOF
