  0
SECTION
  2
HEADER
  9
$ACADVER
  1
AC1009
  9
$INSBASE
 10
0.0
 20
0.0
 30
0.0
  9
$EXTMIN
 10
1.644221408822772
 20
0.4642999979372178
 30
-0.1
  9
$EXTMAX
 10
38.941360202216231
 20
35.350537708855818
 30
0.0
  9
$LIMMIN
 10
0.0
 20
0.0
  9
$LIMMAX
 10
12.0
 20
9.0
  9
$ORTHOMODE
 70
     0
  9
$REGENMODE
 70
     1
  9
$FILLMODE
 70
     1
  9
$QTEXTMODE
 70
     0
  9
$MIRRTEXT
 70
     1
  9
$DRAGMODE
 70
     2
  9
$LTSCALE
 40
1.0
  9
$OSMODE
 70
    32
  9
$ATTMODE
 70
     1
  9
$TEXTSIZE
 40
0.2
  9
$TRACEWID
 40
0.05
  9
$TEXTSTYLE
  7
STANDARD
  9
$CLAYER
  8
0
  9
$CELTYPE
  6
BYLAYER
  9
$CECOLOR
 62
   256
  9
$DIMSCALE
 40
1.0
  9
$DIMASZ
 40
0.18
  9
$DIMEXO
 40
0.0625
  9
$DIMDLI
 40
0.38
  9
$DIMRND
 40
0.0
  9
$DIMDLE
 40
0.0
  9
$DIMEXE
 40
0.18
  9
$DIMTP
 40
0.0
  9
$DIMTM
 40
0.0
  9
$DIMTXT
 40
0.18
  9
$DIMCEN
 40
0.09
  9
$DIMTSZ
 40
0.0
  9
$DIMTOL
 70
     0
  9
$DIMLIM
 70
     0
  9
$DIMTIH
 70
     1
  9
$DIMTOH
 70
     1
  9
$DIMSE1
 70
     0
  9
$DIMSE2
 70
     0
  9
$DIMTAD
 70
     0
  9
$DIMZIN
 70
     0
  9
$DIMBLK
  1

  9
$DIMASO
 70
     1
  9
$DIMSHO
 70
     1
  9
$DIMPOST
  1

  9
$DIMAPOST
  1

  9
$DIMALT
 70
     0
  9
$DIMALTD
 70
     2
  9
$DIMALTF
 40
25.399999999999999
  9
$DIMLFAC
 40
1.0
  9
$DIMTOFL
 70
     0
  9
$DIMTVP
 40
0.0
  9
$DIMTIX
 70
     0
  9
$DIMSOXD
 70
     0
  9
$DIMSAH
 70
     0
  9
$DIMBLK1
  1

  9
$DIMBLK2
  1

  9
$DIMSTYLE
  2
STANDARD
  9
$DIMCLRD
 70
     0
  9
$DIMCLRE
 70
     0
  9
$DIMCLRT
 70
     0
  9
$DIMTFAC
 40
1.0
  9
$DIMGAP
 40
0.09
  9
$LUNITS
 70
     2
  9
$LUPREC
 70
     4
  9
$SKETCHINC
 40
0.1
  9
$FILLETRAD
 40
0.5
  9
$AUNITS
 70
     0
  9
$AUPREC
 70
     0
  9
$MENU
  1
.
  9
$ELEVATION
 40
0.0
  9
$PELEVATION
 40
0.0
  9
$THICKNESS
 40
0.0
  9
$LIMCHECK
 70
     0
  9
$BLIPMODE
 70
     0
  9
$CHAMFERA
 40
0.5
  9
$CHAMFERB
 40
0.5
  9
$SKPOLY
 70
     0
  9
$TDCREATE
 40
2453325.5902290498
  9
$TDUPDATE
 40
2453326.5037436341
  9
$TDINDWG
 40
0.0263324074
  9
$TDUSRTIMER
 40
0.0263311343
  9
$USRTIMER
 70
     1
  9
$ANGBASE
 50
0.0
  9
$ANGDIR
 70
     0
  9
$PDMODE
 70
    34
  9
$PDSIZE
 40
1.0
  9
$PLINEWID
 40
0.0
  9
$COORDS
 70
     1
  9
$SPLFRAME
 70
     0
  9
$SPLINETYPE
 70
     6
  9
$SPLINESEGS
 70
     8
  9
$ATTDIA
 70
     0
  9
$ATTREQ
 70
     1
  9
$HANDLING
 70
  4097
  9
$HANDSEED
  5
205
  9
$SURFTAB1
 70
     6
  9
$SURFTAB2
 70
     6
  9
$SURFTYPE
 70
     6
  9
$SURFU
 70
     6
  9
$SURFV
 70
     6
  9
$UCSNAME
  2

  9
$UCSORG
 10
0.0
 20
0.0
 30
0.0
  9
$UCSXDIR
 10
1.0
 20
0.0
 30
0.0
  9
$UCSYDIR
 10
0.0
 20
1.0
 30
0.0
  9
$PUCSNAME
  2

  9
$PUCSORG
 10
0.0
 20
0.0
 30
0.0
  9
$PUCSXDIR
 10
1.0
 20
0.0
 30
0.0
  9
$PUCSYDIR
 10
0.0
 20
1.0
 30
0.0
  9
$USERI1
 70
     0
  9
$USERI2
 70
     0
  9
$USERI3
 70
     0
  9
$USERI4
 70
     0
  9
$USERI5
 70
     0
  9
$USERR1
 40
0.0
  9
$USERR2
 40
0.0
  9
$USERR3
 40
0.0
  9
$USERR4
 40
0.0
  9
$USERR5
 40
0.0
  9
$WORLDVIEW
 70
     1
  9
$SHADEDGE
 70
     3
  9
$SHADEDIF
 70
    70
  9
$TILEMODE
 70
     1
  9
$MAXACTVP
 70
    64
  9
$PLIMCHECK
 70
     0
  9
$PEXTMIN
 10
0.0
 20
0.0
 30
0.0
  9
$PEXTMAX
 10
0.0
 20
0.0
 30
0.0
  9
$PLIMMIN
 10
0.0
 20
0.0
  9
$PLIMMAX
 10
12.0
 20
9.0
  9
$UNITMODE
 70
     0
  9
$VISRETAIN
 70
     1
  9
$PLINEGEN
 70
     0
  9
$PSLTSCALE
 70
     1
  0
ENDSEC
  0
SECTION
  2
TABLES
  0
TABLE
  2
VPORT
 70
     3
  0
VPORT
  2
*ACTIVE
 70
     0
 10
0.0
 20
0.0
 11
1.0
 21
1.0
 12
25.26940685882888
 22
22.62945635548871
 13
0.0
 23
0.0
 14
0.5
 24
0.5
 15
0.5
 25
0.5
 16
0.0
 26
0.0
 36
1.0
 17
0.0
 27
0.0
 37
0.0
 40
58.011462630975899
 41
1.0105263157894731
 42
50.0
 43
0.0
 44
0.0
 50
0.0
 51
0.0
 71
     0
 72
   100
 73
     1
 74
     3
 75
     0
 76
     0
 77
     0
 78
     0
  0
ENDTAB
  0
TABLE
  2
LTYPE
 70
     1
  0
LTYPE
  2
CONTINUOUS
 70
     0
  3
Solid line
 72
    65
 73
     0
 40
0.0
  0
ENDTAB
  0
TABLE
  2
LAYER
 70
     1
  0
LAYER
  2
0
 70
     0
 62
     7
  6
CONTINUOUS
  0
ENDTAB
  0
TABLE
  2
STYLE
 70
     1
  0
STYLE
  2
STANDARD
 70
     0
 40
0.0
 41
1.0
 50
0.0
 71
     0
 42
0.2
  3
txt
  4

  0
ENDTAB
  0
TABLE
  2
VIEW
 70
     0
  0
ENDTAB
  0
TABLE
  2
UCS
 70
     0
  0
ENDTAB
  0
TABLE
  2
APPID
 70
     1
  0
APPID
  2
ACAD
 70
     0
  0
ENDTAB
  0
TABLE
  2
DIMSTYLE
 70
     1
  0
DIMSTYLE
  2
STANDARD
 70
     0
  3

  4

  5

  6

  7

 40
1.0
 41
0.18
 42
0.0625
 43
0.38
 44
0.18
 45
0.0
 46
0.0
 47
0.0
 48
0.0
140
0.18
141
0.09
142
0.0
143
25.399999999999999
144
1.0
145
0.0
146
1.0
147
0.09
 71
     0
 72
     0
 73
     1
 74
     1
 75
     0
 76
     0
 77
     0
 78
     0
170
     0
171
     2
172
     0
173
     0
174
     0
175
     0
176
     0
177
     0
178
     0
  0
ENDTAB
  0
ENDSEC
  0
SECTION
  2
BLOCKS
  0
BLOCK
  8
0
  2
$MODEL_SPACE
 70
     0
 10
0.0
 20
0.0
 30
0.0
  3
$MODEL_SPACE
  1

  0
ENDBLK
  5
21
  8
0
  0
BLOCK
 67
     1
  8
0
  2
$PAPER_SPACE
 70
     0
 10
0.0
 20
0.0
 30
0.0
  3
$PAPER_SPACE
  1

  0
ENDBLK
  5
5B
 67
     1
  8
0
  0
ENDSEC
  0
SECTION
  2
ENTITIES
  0
CIRCLE
  5
7C
  8
0
 62
     7
 10
3.2001142255793411
 20
16.656724101538799
 30
-0.1
 40
1.301223498955437
  0
POINT
  5
7D
  8
0
 62
     1
 10
3.2001142255793411
 20
16.656724101538799
 30
0.0
  0
POINT
  5
7E
  8
0
 62
     1
 10
8.1092756784833568
 20
16.656724101538799
 30
0.0
  0
POINT
  5
80
  8
0
 62
     1
 10
5.6842683594768451
 20
6.729256978921824
 30
0.0
  0
CIRCLE
  5
81
  8
0
 62
     7
 10
5.6842683594768451
 20
6.729256978921824
 30
-0.1
 40
1.301223498955437
  0
POINT
  5
82
  8
0
 62
     1
 10
31.88617808812301
 20
14.174857273762001
 30
0.0
  0
POINT
  5
84
  8
0
 62
     1
 10
31.88617808812301
 20
1.7655234968926541
 30
0.0
  0
CIRCLE
  5
85
  8
0
 62
     7
 10
31.88617808812301
 20
1.7655234968926541
 30
0.0
 40
1.301223498955437
  0
POINT
  5
86
  8
0
 62
     1
 10
36.816505103438772
 20
6.7239414573651572
 30
0.0
  0
CIRCLE
  5
87
  8
0
 62
     7
 10
36.816505103438772
 20
6.7239414573651572
 30
-0.1
 40
1.301223498955437
  0
POINT
  5
88
  8
0
 62
     1
 10
19.394289048784682
 20
14.15633020128791
 30
0.0
  0
CIRCLE
  5
89
  8
0
 62
     7
 10
19.394289048784682
 20
14.15633020128791
 30
-0.1
 40
1.301223498955437
  0
POINT
  5
8A
  8
0
 62
     1
 10
32.492002257387519
 20
32.005285401738831
 30
0.0
  0
POINT
  5
8C
  8
0
 62
     1
 10
12.53576908733697
 20
16.628512822494219
 30
0.0
  0
POINT
  5
8E
  8
0
 62
     1
 10
36.772359122522232
 20
14.14279628433516
 30
0.0
  0
POINT
  5
90
  8
0
 62
     1
 10
36.772359122522232
 20
17.856555392699359
 30
0.0
  0
POINT
  5
92
  8
0
 62
     1
 10
28.04506328397224
 20
17.856555392699359
 30
0.0
  0
CIRCLE
  5
94
  8
0
 62
     7
 10
5.6508580571873486
 20
11.68986343861215
 30
0.0
 40
1.6076491041536329
  0
POINT
  5
B4
  8
0
 62
     1
 10
4.3745231075933466
 20
22.226051243469691
 30
0.0
  0
POINT
  5
B5
  8
0
 62
     1
 10
8.1018939568506312
 20
22.226051243469691
 30
0.0
  0
POINT
  5
B6
  8
0
 62
     1
 10
10.59820666009136
 20
22.191886761815201
 30
0.0
  0
POINT
  5
B7
  8
0
 62
     1
 10
13.12871523592451
 20
22.226051243469691
 30
0.0
  0
POINT
  5
B8
  8
0
 62
     1
 10
15.625027669857671
 20
22.26021586871709
 30
0.0
  0
POINT
  5
B9
  8
0
 62
     1
 10
18.087144231198401
 20
22.191886761815201
 30
0.0
  0
POINT
  5
BA
  8
0
 62
     1
 10
20.5834566651315
 20
22.226051243469691
 30
0.0
  0
POINT
  5
BB
  8
0
 62
     1
 10
23.07976936837224
 20
22.191886761815201
 30
0.0
  0
POINT
  5
BC
  8
0
 62
     1
 10
20.617652807031501
 20
19.73203719023283
 30
0.0
  0
POINT
  5
BD
  8
0
 62
     1
 10
18.121340373098398
 20
19.697872564985431
 30
0.0
  0
POINT
  5
BE
  8
0
 62
     1
 10
28.08037812969064
 20
26.480317821599609
 30
0.0
  0
POINT
  5
BF
  8
0
 62
     1
 10
25.61129592697705
 20
26.498300533432371
 30
0.0
  0
POINT
  5
C0
  8
0
 62
     1
 10
23.08113502727047
 20
29.558306922334619
 30
0.0
  0
POINT
  5
C1
  8
0
 62
     1
 10
20.634189371611448
 20
29.534044462697089
 30
0.0
  0
POINT
  5
C2
  8
0
 62
     1
 10
18.078456098342031
 20
29.554309439904038
 30
0.0
  0
POINT
  5
C3
  8
0
 62
     1
 10
15.60019239122766
 20
29.49898266908064
 30
0.0
  0
POINT
  5
C4
  8
0
 62
     1
 10
13.1285514968967
 20
29.49898266908064
 30
0.0
  0
POINT
  5
C6
  8
0
 62
     1
 10
8.1358364109805734
 20
29.573063532735279
 30
0.0
  0
POINT
  5
C7
  8
0
 62
     1
 10
4.3403272350009274
 20
27.07742127973259
 30
0.0
  0
POINT
  5
C8
  8
0
 62
     1
 10
4.3745231075933466
 20
24.651736189804691
 30
0.0
  0
POINT
  5
C9
  8
0
 62
     1
 10
13.106453460830551
 20
31.99389159320037
 30
0.0
  0
POINT
  5
CA
  8
0
 62
     1
 10
20.643174281455739
 20
31.99389159320037
 30
0.0
  0
POINT
  5
CB
  8
0
 62
     1
 10
22.467854268857248
 20
31.99389159320037
 30
0.0
  0
POINT
  5
CC
  8
0
 62
     1
 10
34.228878537655703
 20
27.074829284497319
 30
0.0
  0
POINT
  5
CE
  8
0
 62
     1
 10
31.773627435256341
 20
27.074829284497319
 30
0.0
  0
POINT
  5
CF
  8
0
 62
     1
 10
32.394637860736388
 20
23.430467470534609
 30
0.0
  0
POINT
  5
D0
  8
0
 62
     1
 10
31.187541090150319
 20
22.246017547467972
 30
0.0
  0
POINT
  5
D1
  8
0
 62
     1
 10
33.61251232193694
 20
22.23524994751747
 30
0.0
  0
CIRCLE
  5
D2
  8
0
 62
     7
 10
12.53394587480676
 20
6.729256978921824
 30
-0.1
 40
1.301223498955437
  0
POINT
  5
D3
  8
0
 62
     1
 10
12.53394587480676
 20
6.729256978921824
 30
0.0
  0
POINT
  5
D4
  8
0
 62
     1
 10
10.607477574619161
 20
29.49898266908064
 30
0.0
  0
POINT
  5
D5
  8
0
 62
     1
 10
33.0381346638585
 20
28.296060526023471
 30
0.0
  0
POLYLINE
  5
D9
  8
0
 62
     7
 66
     1
 10
0.0
 20
0.0
 30
-0.1
 70
     1
  0
VERTEX
  5
15F
  8
0
 62
     7
 10
8.5234416069429546
 20
21.520297279171221
 30
-0.1
  0
VERTEX
  5
160
  8
0
 62
     7
 10
8.5267809020348437
 20
17.889149345738641
 30
-0.1
 42
-0.7163602870210123
  0
VERTEX
  5
161
  8
0
 62
     7
 10
8.5290469325289955
 20
15.42506883787498
 30
-0.1
  0
VERTEX
  5
162
  8
0
 62
     7
 10
8.5297872306466243
 20
14.62006900827506
 30
-0.1
  0
VERTEX
  5
163
  8
0
 62
     7
 10
15.82463658572645
 20
14.620069008275051
 30
-0.1
  0
VERTEX
  5
164
  8
0
 62
     7
 10
15.82463658572645
 20
15.61170883648365
 30
-0.1
  0
VERTEX
  5
165
  8
0
 62
     7
 10
17.40042492135839
 20
17.07870507635441
 30
-0.1
  0
VERTEX
  5
166
  8
0
 62
     7
 10
27.001927875889528
 20
17.07870507635441
 30
-0.1
 42
-3.07033454190602
  0
VERTEX
  5
167
  8
0
 62
     7
 10
28.465961726965141
 20
16.625284872090681
 30
-0.1
  0
VERTEX
  5
168
  8
0
 62
     7
 10
28.465961726965141
 20
14.595755716754899
 30
-0.1
  0
VERTEX
  5
169
  8
0
 62
     7
 10
30.654907567514329
 20
14.59575571675491
 30
-0.1
 42
-6.0168766640146423
  0
VERTEX
  5
16A
  8
0
 62
     7
 10
30.654907567514329
 20
13.75395883076909
 30
-0.1
  0
VERTEX
  5
16B
  8
0
 62
     7
 10
27.624164840979329
 20
13.75395883076909
 30
-0.1
  0
VERTEX
  5
16C
  8
0
 62
     7
 10
27.624164840979329
 20
16.236908190368592
 30
-0.1
  0
VERTEX
  5
16D
  8
0
 62
     7
 10
17.731612921868798
 20
16.236908190368592
 30
-0.1
  0
VERTEX
  5
16E
  8
0
 62
     7
 10
16.66643347171226
 20
15.245268505752851
 30
-0.1
  0
VERTEX
  5
16F
  8
0
 62
     7
 10
16.66643347171226
 20
13.778272122289231
 30
-0.1
  0
VERTEX
  5
170
  8
0
 62
     7
 10
7.6887641263200868
 20
13.778272122289239
 30
-0.1
  0
VERTEX
  5
171
  8
0
 62
     7
 10
7.6872489815505602
 20
15.425839841622439
 30
-0.1
 42
-0.7135864647459128
  0
VERTEX
  5
172
  8
0
 62
     7
 10
7.6849857929576384
 20
17.886830067411012
 30
-0.1
  0
VERTEX
  5
173
  8
0
 62
     7
 10
7.6816450769151361
 20
21.51952314188113
 30
-0.1
 42
-0.5684151905673252
  0
VERTEX
  5
174
  8
0
 62
     7
 10
7.6809955138577211
 20
22.932192575008582
 30
-0.1
  0
VERTEX
  5
175
  8
0
 62
     7
 10
7.6809955138577211
 20
22.992772105784422
 30
-0.1
  0
VERTEX
  5
176
  8
0
 62
     7
 10
5.5082906667437381
 20
22.992772105784422
 30
-0.1
  0
VERTEX
  5
177
  8
0
 62
     7
 10
4.5961916851297744
 20
23.860121307962299
 30
-0.1
 42
-3.6308199468732498
  0
VERTEX
  5
178
  8
0
 62
     7
 10
5.1762793935748714
 20
24.47013790426632
 30
-0.1
  0
VERTEX
  5
179
  8
0
 62
     7
 10
5.8446396761203161
 20
23.83456899177024
 30
-0.1
  0
VERTEX
  5
17A
  8
0
 62
     7
 10
8.5227923998435404
 20
23.83456899177024
 30
-0.1
  0
VERTEX
  5
17B
  8
0
 62
     7
 10
8.5227923998435404
 20
22.932192575008582
 30
-0.1
 42
-0.5678069735387026
  0
SEQEND
  5
17C
  8
0
 62
     7
  0
POLYLINE
  5
E9
  8
0
 62
     7
 66
     1
 10
0.0
 20
0.0
 30
-0.1
 70
     1
  0
VERTEX
  5
17D
  8
0
 62
     7
 10
23.372845416537899
 20
26.206383717724471
 30
-0.1
  0
VERTEX
  5
17E
  8
0
 62
     7
 10
23.372243600627719
 20
22.960163992304249
 30
-0.1
 42
-0.2123084852118162
  0
VERTEX
  5
17F
  8
0
 62
     7
 10
23.846132001378258
 20
22.489341622514171
 30
-0.1
  0
VERTEX
  5
180
  8
0
 62
     7
 10
30.580339048373169
 20
22.53430193105654
 30
-0.1
 42
-1.407375248512307
  0
VERTEX
  5
181
  8
0
 62
     7
 10
31.4841410506138
 20
21.642833770487481
 30
-0.1
  0
VERTEX
  5
182
  8
0
 62
     7
 10
31.50880842442691
 20
18.150833734396649
 30
-0.1
  0
VERTEX
  5
183
  8
0
 62
     7
 10
34.658177492313477
 20
18.150833734396649
 30
-0.1
  0
VERTEX
  5
184
  8
0
 62
     7
 10
34.658177492313477
 20
12.0275023813397
 30
-0.1
  0
VERTEX
  5
185
  8
0
 62
     7
 10
38.356696609222062
 20
12.0275023813397
 30
-0.1
  0
VERTEX
  5
186
  8
0
 62
     7
 10
38.356696609222048
 20
34.765874115861664
 30
-0.1
  0
VERTEX
  5
187
  8
0
 62
     7
 10
32.784334053884599
 20
34.765874115861664
 30
-0.1
  0
VERTEX
  5
188
  8
0
 62
     7
 10
32.784334053884599
 20
33.273246250894118
 30
-0.1
 42
-8.7885901530262824
  0
VERTEX
  5
189
  8
0
 62
     7
 10
32.199670460890438
 20
33.273246250894118
 30
-0.1
  0
VERTEX
  5
18A
  8
0
 62
     7
 10
32.199670460890438
 20
34.765874115861664
 30
-0.1
  0
VERTEX
  5
18B
  8
0
 62
     7
 10
2.2288850018169342
 20
34.765874115861649
 30
-0.1
  0
VERTEX
  5
18C
  8
0
 62
     7
 10
2.2288850018169342
 20
22.518383039966771
 30
-0.1
  0
VERTEX
  5
18D
  8
0
 62
     7
 10
3.6061916685788038
 20
22.518383039966771
 30
-0.1
 42
-5.4403817475876242
  0
VERTEX
  5
18E
  8
0
 62
     7
 10
3.6061916685788051
 20
21.93371944697261
 30
-0.1
  0
VERTEX
  5
18F
  8
0
 62
     7
 10
1.644221408822772
 20
21.93371944697261
 30
-0.1
  0
VERTEX
  5
190
  8
0
 62
     7
 10
1.644221408822772
 20
35.350537708855818
 30
-0.1
  0
VERTEX
  5
191
  8
0
 62
     7
 10
38.941360202216217
 20
35.350537708855818
 30
-0.1
  0
VERTEX
  5
192
  8
0
 62
     7
 10
38.941360202216231
 20
11.44283878834554
 30
-0.1
  0
VERTEX
  5
193
  8
0
 62
     7
 10
34.073513899319323
 20
11.442838788345529
 30
-0.1
  0
VERTEX
  5
194
  8
0
 62
     7
 10
34.073513899319323
 20
17.566170141402509
 30
-0.1
  0
VERTEX
  5
195
  8
0
 62
     7
 10
30.928260288825371
 20
17.566170141402491
 30
-0.1
  0
VERTEX
  5
196
  8
0
 62
     7
 10
30.8994920443231
 20
21.638703829067499
 30
-0.1
 42
-0.1694189974897205
  0
VERTEX
  5
197
  8
0
 62
     7
 10
30.58424241361195
 20
21.949651368145091
 30
-0.1
  0
VERTEX
  5
198
  8
0
 62
     7
 10
23.850035366617039
 20
21.90469105960273
 30
-0.1
 42
-1.550684026656665
  0
VERTEX
  5
199
  8
0
 62
     7
 10
22.787580017680821
 20
22.960272382948158
 30
-0.1
  0
VERTEX
  5
19A
  8
0
 62
     7
 10
22.78866079501498
 20
28.790029691845561
 30
-0.1
 42
-5.4403817475876437
  0
VERTEX
  5
19B
  8
0
 62
     7
 10
23.37332437796189
 20
28.789921301201652
 30
-0.1
  0
VERTEX
  5
19C
  8
0
 62
     7
 10
23.372953807181808
 20
26.791047300671369
 30
-0.1
  0
VERTEX
  5
19D
  8
0
 62
     7
 10
24.843018696487992
 20
26.79077476568785
 30
-0.1
 42
-5.4403817475876313
  0
VERTEX
  5
19E
  8
0
 62
     7
 10
24.842910305844079
 20
26.206111182740951
 30
-0.1
  0
SEQEND
  5
19F
  8
0
 62
     7
  0
POLYLINE
  5
F8
  8
0
 62
     7
 66
     1
 10
0.0
 20
0.0
 30
-0.1
 70
     1
  0
VERTEX
  5
1A0
  8
0
 62
     7
 10
36.498542570261563
 20
21.93606038697493
 30
-0.1
  0
VERTEX
  5
1A1
  8
0
 62
     7
 10
34.217079910805793
 20
21.94148092966724
 30
-0.1
 42
-4.3697818684953651
  0
VERTEX
  5
1A2
  8
0
 62
     7
 10
34.218469013103132
 20
22.526142872474921
 30
-0.1
  0
VERTEX
  5
1A3
  8
0
 62
     7
 10
36.499931672558908
 20
22.520722329782611
 30
-0.1
  0
VERTEX
  5
1A4
  8
0
 62
     7
 10
36.510057253222868
 20
26.782497488000239
 30
-0.1
  0
VERTEX
  5
1A5
  8
0
 62
     7
 10
34.834142386002981
 20
26.782497488000239
 30
-0.1
 42
-4.3697818684953793
  0
VERTEX
  5
1A6
  8
0
 62
     7
 10
34.834142386002981
 20
27.3671610809944
 30
-0.1
  0
VERTEX
  5
1A7
  8
0
 62
     7
 10
37.096111602626209
 20
27.3671610809944
 30
-0.1
  0
VERTEX
  5
1A8
  8
0
 62
     7
 10
37.075277628860299
 20
18.598309714423412
 30
-0.1
 42
-0.6735179607934421
  0
VERTEX
  5
1A9
  8
0
 62
     7
 10
37.071749550562998
 20
17.11337004107034
 30
-0.1
  0
VERTEX
  5
1AA
  8
0
 62
     7
 10
37.066462491868712
 20
14.88808971877385
 30
-0.1
 42
-5.2926626819448934
  0
VERTEX
  5
1AB
  8
0
 62
     7
 10
36.48180054906102
 20
14.88947882107122
 30
-0.1
  0
VERTEX
  5
1AC
  8
0
 62
     7
 10
36.487071176220681
 20
17.107843243089491
 30
-0.1
 42
-0.6908508347436632
  0
VERTEX
  5
1AD
  8
0
 62
     7
 10
36.490632117587239
 20
18.606614716998951
 30
-0.1
  0
SEQEND
  5
1AE
  8
0
 62
     7
  0
POLYLINE
  5
105
  8
0
 62
     7
 66
     1
 10
0.0
 20
0.0
 30
-0.1
 70
     1
  0
VERTEX
  5
1AF
  8
0
 62
     7
 10
32.014605905398007
 20
23.984884207548429
 30
-0.1
  0
VERTEX
  5
1B0
  8
0
 62
     7
 10
32.015557438379318
 20
24.922951962988659
 30
-0.1
  0
VERTEX
  5
1B1
  8
0
 62
     7
 10
31.39303330076347
 20
24.922951962988659
 30
-0.1
  0
VERTEX
  5
1B2
  8
0
 62
     7
 10
31.39303330076347
 20
26.520798319524239
 30
-0.1
 42
-3.221787172777363
  0
VERTEX
  5
1B3
  8
0
 62
     7
 10
32.154221569749211
 20
26.520798319524239
 30
-0.1
  0
VERTEX
  5
1B4
  8
0
 62
     7
 10
32.154221569749211
 20
25.684140231974389
 30
-0.1
  0
VERTEX
  5
1B5
  8
0
 62
     7
 10
32.77751821349252
 20
25.684140231974389
 30
-0.1
  0
VERTEX
  5
1B6
  8
0
 62
     7
 10
32.775793782785229
 20
23.984112093416901
 30
-0.1
 42
-3.2217871727773382
  0
SEQEND
  5
1B7
  8
0
 62
     7
  0
POLYLINE
  5
11A
  8
0
 62
     7
 66
     1
 10
0.0
 20
0.0
 30
-0.1
 70
     1
  0
VERTEX
  5
1B8
  8
0
 62
     7
 10
18.810106651607541
 20
29.929114118807121
 30
-0.1
  0
VERTEX
  5
1B9
  8
0
 62
     7
 10
19.908574259597248
 20
29.920404124978219
 30
-0.1
 42
-4.074473903129685
  0
VERTEX
  5
1BA
  8
0
 62
     7
 10
19.902538818345938
 20
29.15923978379401
 30
-0.1
  0
VERTEX
  5
1BB
  8
0
 62
     7
 10
18.80407121035622
 20
29.167949777622908
 30
-0.1
 42
-0.1508779683593125
  0
VERTEX
  5
1BC
  8
0
 62
     7
 10
18.4599098279296
 20
28.826103334735251
 30
-0.1
  0
VERTEX
  5
1BD
  8
0
 62
     7
 10
18.4668782406
 20
22.920991117531958
 30
-0.1
 42
-4.0744739031296886
  0
VERTEX
  5
1BE
  8
0
 62
     7
 10
17.705690501610832
 20
22.920092866983978
 30
-0.1
  0
VERTEX
  5
1BF
  8
0
 62
     7
 10
17.70264687859521
 20
25.499293655483079
 30
-0.1
  0
VERTEX
  5
1C0
  8
0
 62
     7
 10
13.50930937041738
 20
25.49434524719744
 30
-0.1
  0
VERTEX
  5
1C1
  8
0
 62
     7
 10
13.50930937041738
 20
22.954706981257431
 30
-0.1
 42
-4.0744739031296806
  0
VERTEX
  5
1C2
  8
0
 62
     7
 10
12.74812110143165
 20
22.954706981257431
 30
-0.1
  0
VERTEX
  5
1C3
  8
0
 62
     7
 10
12.74812110143165
 20
26.254635795006699
 30
-0.1
  0
VERTEX
  5
1C4
  8
0
 62
     7
 10
17.701748628047241
 20
26.260481394472261
 30
-0.1
  0
VERTEX
  5
1C5
  8
0
 62
     7
 10
17.698722088940428
 20
28.825205084187282
 30
-0.1
 42
-1.3683758669296771
  0
SEQEND
  5
1C6
  8
0
 62
     7
  0
POLYLINE
  5
122
  8
0
 62
     7
 66
     1
 10
0.0
 20
0.0
 30
-0.1
 70
     1
  0
VERTEX
  5
1C7
  8
0
 62
     7
 10
15.223386777914641
 20
30.229604739098491
 30
-0.1
  0
VERTEX
  5
1C8
  8
0
 62
     7
 10
15.24033600450394
 20
33.493868331812017
 30
-0.1
  0
VERTEX
  5
1C9
  8
0
 62
     7
 10
8.5164305454734404
 20
33.493868331812017
 30
-0.1
  0
VERTEX
  5
1CA
  8
0
 62
     7
 10
8.5164305454734404
 20
30.30171927052303
 30
-0.1
 42
-4.0744739031296806
  0
VERTEX
  5
1CB
  8
0
 62
     7
 10
7.7552422764877056
 20
30.30171927052303
 30
-0.1
  0
VERTEX
  5
1CC
  8
0
 62
     7
 10
7.7552422764877056
 20
34.255056600797751
 30
-0.1
  0
VERTEX
  5
1CD
  8
0
 62
     7
 10
16.00548689678811
 20
34.255056600797751
 30
-0.1
  0
VERTEX
  5
1CE
  8
0
 62
     7
 10
15.98456478606693
 20
30.225652430049738
 30
-0.1
 42
-4.0744739031296771
  0
SEQEND
  5
1CF
  8
0
 62
     7
  0
POLYLINE
  5
123
  8
0
 62
     7
 66
     1
 10
0.0
 20
0.0
 30
-0.1
 70
     1
  0
VERTEX
  5
1D0
  8
0
 62
     7
 10
12.741518656443411
 20
30.224238940912901
 30
-0.1
  0
VERTEX
  5
1D1
  8
0
 62
     7
 10
12.732327888496069
 20
31.261893549796721
 30
-0.1
 42
-4.0744739031296611
  0
VERTEX
  5
1D2
  8
0
 62
     7
 10
13.493486301283831
 20
31.268635321368109
 30
-0.1
  0
VERTEX
  5
1D3
  8
0
 62
     7
 10
13.50267706923117
 20
30.230980712484289
 30
-0.1
 42
-4.0744739031296611
  0
SEQEND
  5
1D4
  8
0
 62
     7
  0
POLYLINE
  5
12A
  8
0
 62
     7
 66
     1
 10
0.0
 20
0.0
 30
-0.1
 70
     1
  0
VERTEX
  5
1D5
  8
0
 62
     7
 10
10.2259592615821
 20
28.770810398090649
 30
-0.1
  0
VERTEX
  5
1D6
  8
0
 62
     7
 10
10.224284175123669
 20
27.45055042071813
 30
-0.1
  0
VERTEX
  5
1D7
  8
0
 62
     7
 10
5.0694652666420721
 20
27.457090623024669
 30
-0.1
 42
4.0744739031296344
  0
VERTEX
  5
1D8
  8
0
 62
     7
 10
5.0684995059909168
 20
26.69590296669552
 30
-0.1
  0
VERTEX
  5
1D9
  8
0
 62
     7
 10
10.223318414472519
 20
26.689362764388981
 30
-0.1
  0
VERTEX
  5
1DA
  8
0
 62
     7
 10
10.218537316799271
 20
22.92102479345634
 30
-0.1
 42
4.0744739031296886
  0
VERTEX
  5
1DB
  8
0
 62
     7
 10
10.97972497312842
 20
22.920059032805192
 30
-0.1
  0
VERTEX
  5
1DC
  8
0
 62
     7
 10
10.98714691791125
 20
28.769844637439501
 30
-0.1
 42
4.0744739031296886
  0
SEQEND
  5
1DD
  8
0
 62
     7
  0
POLYLINE
  5
137
  8
0
 62
     7
 66
     1
 10
0.0
 20
0.0
 30
-0.1
 70
     1
  0
VERTEX
  5
1DE
  8
0
 62
     7
 10
17.63630782594236
 20
20.36160030104946
 30
-0.1
  0
VERTEX
  5
1DF
  8
0
 62
     7
 10
16.00562180435054
 20
21.16621301996166
 30
-0.1
  0
VERTEX
  5
1E0
  8
0
 62
     7
 10
16.00562180435054
 20
21.53156013092935
 30
-0.1
 42
4.074473903129685
  0
VERTEX
  5
1E1
  8
0
 62
     7
 10
15.2444335353648
 20
21.53156013092935
 30
-0.1
  0
VERTEX
  5
1E2
  8
0
 62
     7
 10
15.2444335353648
 20
20.692992181186931
 30
-0.1
  0
VERTEX
  5
1E3
  8
0
 62
     7
 10
17.299492235218221
 20
19.678985593702301
 30
-0.1
 42
4.074473903129685
  0
SEQEND
  5
1E4
  8
0
 62
     7
  0
POLYLINE
  5
13B
  8
0
 62
     7
 66
     1
 10
0.0
 20
0.0
 30
-0.1
 70
     1
  0
VERTEX
  5
1E5
  8
0
 62
     7
 10
20.20286253063864
 20
20.441783698523849
 30
-0.1
  0
VERTEX
  5
1E6
  8
0
 62
     7
 10
20.20286253063864
 20
21.497395505681951
 30
-0.1
 42
-4.074473903129685
  0
VERTEX
  5
1E7
  8
0
 62
     7
 10
20.964050799624371
 20
21.497395505681951
 30
-0.1
  0
VERTEX
  5
1E8
  8
0
 62
     7
 10
20.964050799624371
 20
20.47755681448761
 30
-0.1
 42
-0.6380343626370354
  0
VERTEX
  5
1E9
  8
0
 62
     7
 10
20.964050799624371
 20
18.986517565978041
 30
-0.1
  0
VERTEX
  5
1EA
  8
0
 62
     7
 10
20.964050799624371
 20
17.555905450288432
 30
-0.1
  0
VERTEX
  5
1EB
  8
0
 62
     7
 10
16.087881923286801
 20
17.555905450288432
 30
-0.1
  0
VERTEX
  5
1EC
  8
0
 62
     7
 10
13.83445930641521
 20
16.709668901159709
 30
-0.1
 42
-6.688339730043344
  0
VERTEX
  5
1ED
  8
0
 62
     7
 10
13.566854750197439
 20
17.422266531195749
 30
-0.1
  0
VERTEX
  5
1EE
  8
0
 62
     7
 10
15.94966819152611
 20
18.317093719274158
 30
-0.1
  0
VERTEX
  5
1EF
  8
0
 62
     7
 10
20.20286253063864
 20
18.317093719274158
 30
-0.1
  0
VERTEX
  5
1F0
  8
0
 62
     7
 10
20.20286253063864
 20
19.022290681941801
 30
-0.1
 42
-0.5738314309928416
  0
SEQEND
  5
1F1
  8
0
 62
     7
  0
LINE
  5
14C
  8
0
 62
     7
 10
28.460972264183511
 20
29.140864267910299
 30
0.0
 11
28.460972264183511
 21
27.208973559387349
 31
0.0
  0
POLYLINE
  5
14E
  8
0
 62
     7
 66
     1
 10
0.0
 20
0.0
 30
-0.1
  0
VERTEX
  5
1F2
  8
0
 62
     7
 10
28.460972264183511
 20
29.902052536896029
 30
-0.1
  0
VERTEX
  5
1F3
  8
0
 62
     7
 10
33.41872879835136
 20
29.902052536896029
 30
-0.1
  0
VERTEX
  5
1F4
  8
0
 62
     7
 10
33.41872879835136
 20
28.850091490996551
 30
-0.1
 42
-3.221787172777363
  0
VERTEX
  5
1F5
  8
0
 62
     7
 10
32.657540529365633
 20
28.850091490996551
 30
-0.1
  0
VERTEX
  5
1F6
  8
0
 62
     7
 10
32.657540529365633
 20
29.140864267910299
 30
-0.1
  0
VERTEX
  5
1F7
  8
0
 62
     7
 10
28.460972264183511
 20
29.140864267910299
 30
-0.1
  0
VERTEX
  5
1F8
  8
0
 62
     7
 10
28.460972264183511
 20
27.208973559387349
 30
-0.1
 42
-4.0744739031296806
  0
VERTEX
  5
1F9
  8
0
 62
     7
 10
27.69978399519777
 20
27.208973559387349
 30
-0.1
  0
VERTEX
  5
1FA
  8
0
 62
     7
 10
27.69978399519777
 20
31.613297458707532
 30
-0.1
  0
VERTEX
  5
1FB
  8
0
 62
     7
 10
23.196510006644989
 20
31.613297458707521
 30
-0.1
 42
-0.6058704728451851
  0
VERTEX
  5
1FC
  8
0
 62
     7
 10
21.739198531069508
 20
31.61329745870751
 30
-0.1
  0
VERTEX
  5
1FD
  8
0
 62
     7
 10
21.371830019243479
 20
31.61329745870751
 30
-0.1
 42
-4.074473903129725
  0
VERTEX
  5
1FE
  8
0
 62
     7
 10
21.371830019243479
 20
32.374485727693241
 30
-0.1
  0
VERTEX
  5
1FF
  8
0
 62
     7
 10
21.739198531069508
 20
32.374485727693241
 30
-0.1
 42
-0.6058704728451713
  0
VERTEX
  5
200
  8
0
 62
     7
 10
23.196510006644989
 20
32.374485727693241
 30
-0.1
  0
VERTEX
  5
201
  8
0
 62
     7
 10
28.460972264183511
 20
32.374485727693269
 30
-0.1
  0
VERTEX
  5
202
  8
0
 62
     7
 10
28.460972264183511
 20
29.902052536896029
 30
-0.1
  0
VERTEX
  5
203
  8
0
 62
     7
 10
28.460972264183511
 20
32.374485727693269
 30
-0.1
  0
SEQEND
  5
204
  8
0
 62
     7
  0
ENDSEC
  0
EOF
