999
dxflib 2.2.0.0
  0
SECTION
  2
HEADER
  9
$ACADVER
  1
AC1015
  9
$HANDSEED
  5
FFFF
  9
$DIMTFAC
 40
1.0
  9
$EXTMAX
 10
38.9413602022162308
 20
35.3505377088558177
 30
0.0
  9
$SURFTYPE
 70
6
  9
$DIMALTD
 70
2
  9
$PSLTSCALE
 70
1
  9
$LIMCHECK
 70
0
  9
$DIMALTF
 40
25.3999999999999986
  9
$DIMTXT
 40
0.18
  9
$UNITMODE
 70
0
  9
$PEXTMIN
 10
0.0
 20
0.0
 30
0.0
  9
$PDMODE
 70
34
  9
$CELTYPE
  6
BYLAYER
  9
$DIMSHO
 70
1
  9
$DIMTAD
 70
0
  9
$PUCSORG
 10
0.0
 20
0.0
 30
0.0
  9
$DIMTIH
 70
1
  9
$SKPOLY
 70
0
  9
$REGENMODE
 70
1
  9
$UCSORG
 10
0.0
 20
0.0
 30
0.0
  9
$DIMDLE
 40
0.0
  9
$TEXTSTYLE
  7
STANDARD
  9
$WORLDVIEW
 70
1
  9
$DIMSAH
 70
0
  9
$SKETCHINC
 40
0.1
  9
$DIMDLI
 40
0.38
  9
$SURFU
 70
6
  9
$SURFV
 70
6
  9
$TDUSRTIMER
 40
0.0263311343
  9
$DIMTIX
 70
0
  9
$ANGBASE
 50
0.0
  9
$HANDLING
 70
4097
  9
$DIMASO
 70
1
  9
$MAXACTVP
 70
64
  9
$SPLFRAME
 70
0
  9
$USRTIMER
 70
1
  9
$DIMTOFL
 70
0
  9
$DIMCLRD
 70
0
  9
$DIMCLRE
 70
0
  9
$DIMASZ
 40
0.18
  9
$PLINEGEN
 70
0
  9
$INSBASE
 10
0.0
 20
0.0
 30
0.0
  9
$SPLINESEGS
 70
8
  9
$CHAMFERA
 40
0.5
  9
$PLIMCHECK
 70
0
  9
$CHAMFERB
 40
0.5
  9
$QTEXTMODE
 70
0
  9
$DRAGMODE
 70
2
  9
$ATTMODE
 70
1
  9
$USERI1
 70
0
  9
$BLIPMODE
 70
0
  9
$USERI2
 70
0
  9
$AUNITS
 70
0
  9
$USERI3
 70
0
  9
$USERI4
 70
0
  9
$USERI5
 70
0
  9
$DIMALT
 70
0
  9
$DIMSTYLE
  2
STANDARD
  9
$DIMCEN
 40
0.09
  9
$DIMCLRT
 70
0
  9
$MENU
  1
.
  9
$VISRETAIN
 70
1
  9
$TDUPDATE
 40
2453326.5037436340935528
  9
$COORDS
 70
1
  9
$DIMTSZ
 40
0.0
  9
$PLIMMAX
 10
12.0
 20
9.0
  9
$DIMSOXD
 70
0
  9
$ATTREQ
 70
1
  9
$TRACEWID
 40
0.05
  9
$DIMSE1
 70
0
  9
$DIMSE2
 70
0
  9
$USERR1
 40
0.0
  9
$ATTDIA
 70
0
  9
$USERR2
 40
0.0
  9
$ANGDIR
 70
0
  9
$USERR3
 40
0.0
  9
$TILEMODE
 70
1
  9
$USERR4
 40
0.0
  9
$SHADEDIF
 70
70
  9
$DIMLIM
 70
0
  9
$USERR5
 40
0.0
  9
$MIRRTEXT
 70
1
  9
$PLINEWID
 40
0.0
  9
$FILLETRAD
 40
0.5
  9
$AUPREC
 70
0
  9
$CECOLOR
 62
256
  9
$TDCREATE
 40
2453325.5902290497906506
  9
$UCSXDIR
 10
1.0
 20
0.0
 30
0.0
  9
$DIMEXE
 40
0.18
  9
$LIMMIN
 10
0.0
 20
0.0
  9
$THICKNESS
 40
0.0
  9
$PDSIZE
 40
1.0
  9
$CLAYER
  8
DP0001.5000NP002F0800.0000
  9
$PUCSYDIR
 10
0.0
 20
1.0
 30
0.0
  9
$PEXTMAX
 10
0.0
 20
0.0
 30
0.0
  9
$ELEVATION
 40
0.0
  9
$DIMEXO
 40
0.0625
  9
$SURFTAB1
 70
6
  9
$SURFTAB2
 70
6
  9
$ORTHOMODE
 70
0
  9
$DIMTVP
 40
0.0
  9
$INSUNITS
 70
4
  9
$SHADEDGE
 70
3
  9
$DIMTM
 40
0.0
  9
$LIMMAX
 10
12.0
 20
9.0
  9
$DIMRND
 40
0.0
  9
$LUNITS
 70
2
  9
$DIMTP
 40
0.0
  9
$TEXTSIZE
 40
0.2
  9
$DIMGAP
 40
0.09
  9
$OSMODE
 70
32
  9
$PELEVATION
 40
0.0
  9
$LTSCALE
 40
1.0
  9
$DIMLFAC
 40
1.0
  9
$DIMTOH
 70
1
  9
$FILLMODE
 70
1
  9
$DIMSCALE
 40
1.0
  9
$PLIMMIN
 10
0.0
 20
0.0
  9
$UCSYDIR
 10
0.0
 20
1.0
 30
0.0
  9
$DIMTOL
 70
0
  9
$EXTMIN
 10
1.644221408822772
 20
0.4642999979372178
 30
-0.1
  9
$SPLINETYPE
 70
6
  9
$DIMZIN
 70
0
  9
$TDINDWG
 40
0.0263324074
  9
$LUPREC
 70
4
  9
$PUCSXDIR
 10
1.0
 20
0.0
 30
0.0
  9
$CLAYER
  8
DP0001.5000NP002F0800.0000
  0
ENDSEC
  0
SECTION
  2
TABLES
  0
TABLE
  2
VPORT
  5
8
100
AcDbSymbolTable
 70
1
  0
VPORT
  5
30
100
AcDbSymbolTableRecord
100
AcDbViewportTableRecord
  2
*Active
 70
0
 10
0.0
 20
0.0
 11
1.0
 21
1.0
 12
286.3055555555554861
 22
148.5
 13
0.0
 23
0.0
 14
10.0
 24
10.0
 15
10.0
 25
10.0
 16
0.0
 26
0.0
 36
1.0
 17
0.0
 27
0.0
 37
0.0
 40
297.0
 41
1.92798353909465
 42
50.0
 43
0.0
 44
0.0
 50
0.0
 51
0.0
 71
0
 72
100
 73
1
 74
3
 75
1
 76
1
 77
0
 78
0
281
0
 65
1
110
0.0
120
0.0
130
0.0
111
1.0
121
0.0
131
0.0
112
0.0
122
1.0
132
0.0
 79
0
146
0.0
  0
ENDTAB
  0
TABLE
  2
LTYPE
  5
5
100
AcDbSymbolTable
 70
21
  0
LTYPE
  5
14
100
AcDbSymbolTableRecord
100
AcDbLinetypeTableRecord
  2
ByBlock
 70
0
  3

 72
65
 73
0
 40
0.0
  0
LTYPE
  5
15
100
AcDbSymbolTableRecord
100
AcDbLinetypeTableRecord
  2
ByLayer
 70
0
  3

 72
65
 73
0
 40
0.0
  0
LTYPE
  5
16
100
AcDbSymbolTableRecord
100
AcDbLinetypeTableRecord
  2
CONTINUOUS
 70
0
  3
Solid line
 72
65
 73
0
 40
0.0
  0
LTYPE
  5
31
100
AcDbSymbolTableRecord
100
AcDbLinetypeTableRecord
  2
DOT
 70
0
  3
Dot . . . . . . . . . . . . . . . . . . . . . .
 72
65
 73
2
 40
6.3499999999999996
 49
0.0
 74
0
 49
-6.3499999999999996
 74
0
  0
LTYPE
  5
32
100
AcDbSymbolTableRecord
100
AcDbLinetypeTableRecord
  2
DOT2
 70
0
  3
Dot (.5x) .....................................
 72
65
 73
2
 40
3.1749999999999998
 49
0.0
 74
0
 49
-3.1749999999999998
 74
0
  0
LTYPE
  5
33
100
AcDbSymbolTableRecord
100
AcDbLinetypeTableRecord
  2
DOTX2
 70
0
  3
Dot (2x) .  .  .  .  .  .  .  .  .  .  .  .  .
 72
65
 73
2
 40
12.6999999999999993
 49
0.0
 74
0
 49
-12.6999999999999993
 74
0
  0
LTYPE
  5
34
100
AcDbSymbolTableRecord
100
AcDbLinetypeTableRecord
  2
DASHED
 70
0
  3
Dashed __ __ __ __ __ __ __ __ __ __ __ __ __ _
 72
65
 73
2
 40
19.0500000000000007
 49
12.6999999999999993
 74
0
 49
-6.3499999999999996
 74
0
  0
LTYPE
  5
35
100
AcDbSymbolTableRecord
100
AcDbLinetypeTableRecord
  2
DASHED2
 70
0
  3
Dashed (.5x) _ _ _ _ _ _ _ _ _ _ _ _ _ _ _ _ _
 72
65
 73
2
 40
9.5250000000000004
 49
6.3499999999999996
 74
0
 49
-3.1749999999999998
 74
0
  0
LTYPE
  5
36
100
AcDbSymbolTableRecord
100
AcDbLinetypeTableRecord
  2
DASHEDX2
 70
0
  3
Dashed (2x) ____  ____  ____  ____  ____  ___
 72
65
 73
2
 40
38.1000000000000014
 49
25.3999999999999986
 74
0
 49
-12.6999999999999993
 74
0
  0
LTYPE
  5
37
100
AcDbSymbolTableRecord
100
AcDbLinetypeTableRecord
  2
DASHDOT
 70
0
  3
Dash dot __ . __ . __ . __ . __ . __ . __ . __
 72
65
 73
4
 40
25.3999999999999986
 49
12.6999999999999993
 74
0
 49
-6.3499999999999996
 74
0
 49
0.0
 74
0
 49
-6.3499999999999996
 74
0
  0
LTYPE
  5
38
100
AcDbSymbolTableRecord
100
AcDbLinetypeTableRecord
  2
DASHDOT2
 70
0
  3
Dash dot (.5x) _._._._._._._._._._._._._._._.
 72
65
 73
4
 40
12.6999999999999993
 49
6.3499999999999996
 74
0
 49
-3.1749999999999998
 74
0
 49
0.0
 74
0
 49
-3.1749999999999998
 74
0
  0
LTYPE
  5
39
100
AcDbSymbolTableRecord
100
AcDbLinetypeTableRecord
  2
DASHDOTX2
 70
0
  3
Dash dot (2x) ____  .  ____  .  ____  .  ___
 72
65
 73
4
 40
50.7999999999999972
 49
25.3999999999999986
 74
0
 49
-12.6999999999999993
 74
0
 49
0.0
 74
0
 49
-12.6999999999999993
 74
0
  0
LTYPE
  5
3A
100
AcDbSymbolTableRecord
100
AcDbLinetypeTableRecord
  2
DIVIDE
 70
0
  3
Divide ____ . . ____ . . ____ . . ____ . . ____
 72
65
 73
6
 40
31.75
 49
12.6999999999999993
 74
0
 49
-6.3499999999999996
 74
0
 49
0.0
 74
0
 49
-6.3499999999999996
 74
0
 49
0.0
 74
0
 49
-6.3499999999999996
 74
0
  0
LTYPE
  5
3B
100
AcDbSymbolTableRecord
100
AcDbLinetypeTableRecord
  2
DIVIDE2
 70
0
  3
Divide (.5x) __..__..__..__..__..__..__..__.._
 72
65
 73
6
 40
15.875
 49
6.3499999999999996
 74
0
 49
-3.1749999999999998
 74
0
 49
0.0
 74
0
 49
-3.1749999999999998
 74
0
 49
0.0
 74
0
 49
-3.1749999999999998
 74
0
  0
LTYPE
  5
3C
100
AcDbSymbolTableRecord
100
AcDbLinetypeTableRecord
  2
DIVIDEX2
 70
0
  3
Divide (2x) ________  .  .  ________  .  .  _
 72
65
 73
6
 40
63.5
 49
25.3999999999999986
 74
0
 49
-12.6999999999999993
 74
0
 49
0.0
 74
0
 49
-12.6999999999999993
 74
0
 49
0.0
 74
0
 49
-12.6999999999999993
 74
0
  0
LTYPE
  5
3D
100
AcDbSymbolTableRecord
100
AcDbLinetypeTableRecord
  2
CENTER
 70
0
  3
Center ____ _ ____ _ ____ _ ____ _ ____ _ ____
 72
65
 73
4
 40
50.7999999999999972
 49
31.75
 74
0
 49
-6.3499999999999996
 74
0
 49
6.3499999999999996
 74
0
 49
-6.3499999999999996
 74
0
  0
LTYPE
  5
3E
100
AcDbSymbolTableRecord
100
AcDbLinetypeTableRecord
  2
CENTER2
 70
0
  3
Center (.5x) ___ _ ___ _ ___ _ ___ _ ___ _ ___
 72
65
 73
4
 40
28.5749999999999993
 49
19.0500000000000007
 74
0
 49
-3.1749999999999998
 74
0
 49
3.1749999999999998
 74
0
 49
-3.1749999999999998
 74
0
  0
LTYPE
  5
3F
100
AcDbSymbolTableRecord
100
AcDbLinetypeTableRecord
  2
CENTERX2
 70
0
  3
Center (2x) ________  __  ________  __  _____
 72
65
 73
4
 40
101.5999999999999943
 49
63.5
 74
0
 49
-12.6999999999999993
 74
0
 49
12.6999999999999993
 74
0
 49
-12.6999999999999993
 74
0
  0
LTYPE
  5
40
100
AcDbSymbolTableRecord
100
AcDbLinetypeTableRecord
  2
BORDER
 70
0
  3
Border __ __ . __ __ . __ __ . __ __ . __ __ .
 72
65
 73
6
 40
44.4500000000000028
 49
12.6999999999999993
 74
0
 49
-6.3499999999999996
 74
0
 49
12.6999999999999993
 74
0
 49
-6.3499999999999996
 74
0
 49
0.0
 74
0
 49
-6.3499999999999996
 74
0
  0
LTYPE
  5
41
100
AcDbSymbolTableRecord
100
AcDbLinetypeTableRecord
  2
BORDER2
 70
0
  3
Border (.5x) __.__.__.__.__.__.__.__.__.__.__.
 72
65
 73
6
 40
22.2250000000000014
 49
6.3499999999999996
 74
0
 49
-3.1749999999999998
 74
0
 49
6.3499999999999996
 74
0
 49
-3.1749999999999998
 74
0
 49
0.0
 74
0
 49
-3.1749999999999998
 74
0
  0
LTYPE
  5
42
100
AcDbSymbolTableRecord
100
AcDbLinetypeTableRecord
  2
BORDERX2
 70
0
  3
Border (2x) ____  ____  .  ____  ____  .  ___
 72
65
 73
6
 40
88.9000000000000057
 49
25.3999999999999986
 74
0
 49
-12.6999999999999993
 74
0
 49
25.3999999999999986
 74
0
 49
-12.6999999999999993
 74
0
 49
0.0
 74
0
 49
-12.6999999999999993
 74
0
  0
ENDTAB
  0
TABLE
  2
LAYER
  5
2
100
AcDbSymbolTable
 70
3
  0
LAYER
  5
10
100
AcDbSymbolTableRecord
100
AcDbLayerTableRecord
  2
0
 70
0
 62
7
420
16777215
  6
CONTINUOUS
390
F
  0
LAYER
  5
43
100
AcDbSymbolTableRecord
100
AcDbLayerTableRecord
  2
DP0000.1000NP001F1000.0000
 70
0
 62
7
420
0
  6
CONTINUOUS
370
0
390
F
  0
LAYER
  5
44
100
AcDbSymbolTableRecord
100
AcDbLayerTableRecord
  2
DP0001.5000NP002F0800.0000
 70
0
 62
7
420
0
  6
CONTINUOUS
370
0
390
F
  0
ENDTAB
  0
TABLE
  2
STYLE
  5
3
100
AcDbSymbolTable
 70
1
  0
STYLE
  5
11
100
AcDbSymbolTableRecord
100
AcDbTextStyleTableRecord
  2
Standard
 70
0
 40
0.0
 41
0.75
 50
0.0
 71
0
 42
2.5
  3
txt
  4

  0
ENDTAB
  0
TABLE
  2
VIEW
  5
6
100
AcDbSymbolTable
 70
0
  0
ENDTAB
  0
TABLE
  2
UCS
  5
7
100
AcDbSymbolTable
 70
0
  0
ENDTAB
  0
TABLE
  2
APPID
  5
9
100
AcDbSymbolTable
 70
1
  0
APPID
  5
12
100
AcDbSymbolTableRecord
100
AcDbRegAppTableRecord
  2
ACAD
 70
0
  0
ENDTAB
  0
TABLE
  2
DIMSTYLE
  5
A
100
AcDbSymbolTable
 70
1
100
AcDbDimStyleTable
 71
0
  0
DIMSTYLE
105
27
100
AcDbSymbolTableRecord
100
AcDbDimStyleTableRecord
  2
Standard
 41
0.18
 42
0.0625
 43
3.75
 44
0.18
 70
0
 73
0
 74
0
 77
1
 78
8
140
0.18
141
2.5
143
0.03937007874016
147
0.09
171
3
172
1
271
2
272
2
274
3
278
44
283
0
284
8
340
11
  0
ENDTAB
  0
TABLE
  2
BLOCK_RECORD
  5
1
100
AcDbSymbolTable
 70
1
  0
BLOCK_RECORD
  5
1F
100
AcDbSymbolTableRecord
100
AcDbBlockTableRecord
  2
*Model_Space
340
22
  0
BLOCK_RECORD
  5
1B
100
AcDbSymbolTableRecord
100
AcDbBlockTableRecord
  2
*Paper_Space
340
1E
  0
BLOCK_RECORD
  5
23
100
AcDbSymbolTableRecord
100
AcDbBlockTableRecord
  2
*Paper_Space0
340
26
  0
ENDTAB
  0
ENDSEC
  0
SECTION
  2
BLOCKS
  0
BLOCK
  5
20
100
AcDbEntity
  8
0
100
AcDbBlockBegin
  2
*Model_Space
 70
0
 10
0.0
 20
0.0
 30
0.0
  3
*Model_Space
  1

  0
ENDBLK
  5
21
100
AcDbEntity
  8
0
100
AcDbBlockEnd
  0
BLOCK
  5
1C
100
AcDbEntity
 67
1
  8
0
100
AcDbBlockBegin
  2
*Paper_Space
 70
0
 10
0.0
 20
0.0
 30
0.0
  3
*Paper_Space
  1

  0
ENDBLK
  5
1D
100
AcDbEntity
 67
1
  8
0
100
AcDbBlockEnd
  0
BLOCK
  5
24
100
AcDbEntity
  8
0
100
AcDbBlockBegin
  2
*Paper_Space0
 70
0
 10
0.0
 20
0.0
 30
0.0
  3
*Paper_Space0
  1

  0
ENDBLK
  5
25
100
AcDbEntity
  8
0
100
AcDbBlockEnd
  0
ENDSEC
  0
SECTION
  2
ENTITIES
  0
POINT
  5
45
100
AcDbEntity
100
AcDbPoint
  8
0
 62
1
420
16711680
370
-1
  6
ByLayer
 10
3.2001142255793411
 20
16.6567241015387992
 30
0.0
  0
POINT
  5
46
100
AcDbEntity
100
AcDbPoint
  8
0
 62
1
420
16711680
370
-1
  6
ByLayer
 10
8.1092756784833568
 20
16.6567241015387992
 30
0.0
  0
POINT
  5
47
100
AcDbEntity
100
AcDbPoint
  8
0
 62
1
420
16711680
370
-1
  6
ByLayer
 10
5.6842683594768451
 20
6.729256978921824
 30
0.0
  0
POINT
  5
48
100
AcDbEntity
100
AcDbPoint
  8
0
 62
1
420
16711680
370
-1
  6
ByLayer
 10
31.8861780881230104
 20
14.1748572737620009
 30
0.0
  0
POINT
  5
49
100
AcDbEntity
100
AcDbPoint
  8
0
 62
1
420
16711680
370
-1
  6
ByLayer
 10
31.8861780881230104
 20
1.7655234968926541
 30
0.0
  0
POINT
  5
4A
100
AcDbEntity
100
AcDbPoint
  8
0
 62
1
420
16711680
370
-1
  6
ByLayer
 10
36.8165051034387716
 20
6.7239414573651572
 30
0.0
  0
POINT
  5
4B
100
AcDbEntity
100
AcDbPoint
  8
0
 62
1
420
16711680
370
-1
  6
ByLayer
 10
19.3942890487846817
 20
14.1563302012879095
 30
0.0
  0
POINT
  5
4C
100
AcDbEntity
100
AcDbPoint
  8
0
 62
1
420
16711680
370
-1
  6
ByLayer
 10
32.4920022573875187
 20
32.0052854017388313
 30
0.0
  0
POINT
  5
4D
100
AcDbEntity
100
AcDbPoint
  8
0
 62
1
420
16711680
370
-1
  6
ByLayer
 10
12.5357690873369698
 20
16.6285128224942191
 30
0.0
  0
POINT
  5
4E
100
AcDbEntity
100
AcDbPoint
  8
0
 62
1
420
16711680
370
-1
  6
ByLayer
 10
36.7723591225222322
 20
14.1427962843351605
 30
0.0
  0
POINT
  5
4F
100
AcDbEntity
100
AcDbPoint
  8
0
 62
1
420
16711680
370
-1
  6
ByLayer
 10
36.7723591225222322
 20
17.8565553926993594
 30
0.0
  0
POINT
  5
50
100
AcDbEntity
100
AcDbPoint
  8
0
 62
1
420
16711680
370
-1
  6
ByLayer
 10
28.0450632839722402
 20
17.8565553926993594
 30
0.0
  0
POINT
  5
51
100
AcDbEntity
100
AcDbPoint
  8
0
 62
1
420
16711680
370
-1
  6
ByLayer
 10
4.3745231075933466
 20
22.2260512434696906
 30
0.0
  0
POINT
  5
52
100
AcDbEntity
100
AcDbPoint
  8
0
 62
1
420
16711680
370
-1
  6
ByLayer
 10
8.1018939568506312
 20
22.2260512434696906
 30
0.0
  0
POINT
  5
53
100
AcDbEntity
100
AcDbPoint
  8
0
 62
1
420
16711680
370
-1
  6
ByLayer
 10
10.5982066600913605
 20
22.1918867618152014
 30
0.0
  0
POINT
  5
54
100
AcDbEntity
100
AcDbPoint
  8
0
 62
1
420
16711680
370
-1
  6
ByLayer
 10
13.1287152359245098
 20
22.2260512434696906
 30
0.0
  0
POINT
  5
55
100
AcDbEntity
100
AcDbPoint
  8
0
 62
1
420
16711680
370
-1
  6
ByLayer
 10
15.6250276698576709
 20
22.2602158687170899
 30
0.0
  0
POINT
  5
56
100
AcDbEntity
100
AcDbPoint
  8
0
 62
1
420
16711680
370
-1
  6
ByLayer
 10
18.0871442311984012
 20
22.1918867618152014
 30
0.0
  0
POINT
  5
57
100
AcDbEntity
100
AcDbPoint
  8
0
 62
1
420
16711680
370
-1
  6
ByLayer
 10
20.5834566651315001
 20
22.2260512434696906
 30
0.0
  0
POINT
  5
58
100
AcDbEntity
100
AcDbPoint
  8
0
 62
1
420
16711680
370
-1
  6
ByLayer
 10
23.07976936837224
 20
22.1918867618152014
 30
0.0
  0
POINT
  5
59
100
AcDbEntity
100
AcDbPoint
  8
0
 62
1
420
16711680
370
-1
  6
ByLayer
 10
20.6176528070315008
 20
19.7320371902328304
 30
0.0
  0
POINT
  5
5A
100
AcDbEntity
100
AcDbPoint
  8
0
 62
1
420
16711680
370
-1
  6
ByLayer
 10
18.1213403730983984
 20
19.6978725649854312
 30
0.0
  0
POINT
  5
5B
100
AcDbEntity
100
AcDbPoint
  8
0
 62
1
420
16711680
370
-1
  6
ByLayer
 10
28.0803781296906401
 20
26.4803178215996091
 30
0.0
  0
POINT
  5
5C
100
AcDbEntity
100
AcDbPoint
  8
0
 62
1
420
16711680
370
-1
  6
ByLayer
 10
25.6112959269770499
 20
26.4983005334323707
 30
0.0
  0
POINT
  5
5D
100
AcDbEntity
100
AcDbPoint
  8
0
 62
1
420
16711680
370
-1
  6
ByLayer
 10
23.0811350272704701
 20
29.5583069223346193
 30
0.0
  0
POINT
  5
5E
100
AcDbEntity
100
AcDbPoint
  8
0
 62
1
420
16711680
370
-1
  6
ByLayer
 10
20.6341893716114484
 20
29.5340444626970893
 30
0.0
  0
POINT
  5
5F
100
AcDbEntity
100
AcDbPoint
  8
0
 62
1
420
16711680
370
-1
  6
ByLayer
 10
18.0784560983420306
 20
29.5543094399040385
 30
0.0
  0
POINT
  5
60
100
AcDbEntity
100
AcDbPoint
  8
0
 62
1
420
16711680
370
-1
  6
ByLayer
 10
15.6001923912276599
 20
29.4989826690806396
 30
0.0
  0
POINT
  5
61
100
AcDbEntity
100
AcDbPoint
  8
0
 62
1
420
16711680
370
-1
  6
ByLayer
 10
13.1285514968966996
 20
29.4989826690806396
 30
0.0
  0
POINT
  5
62
100
AcDbEntity
100
AcDbPoint
  8
0
 62
1
420
16711680
370
-1
  6
ByLayer
 10
8.1358364109805734
 20
29.5730635327352793
 30
0.0
  0
POINT
  5
63
100
AcDbEntity
100
AcDbPoint
  8
0
 62
1
420
16711680
370
-1
  6
ByLayer
 10
4.3403272350009274
 20
27.0774212797325902
 30
0.0
  0
POINT
  5
64
100
AcDbEntity
100
AcDbPoint
  8
0
 62
1
420
16711680
370
-1
  6
ByLayer
 10
4.3745231075933466
 20
24.6517361898046907
 30
0.0
  0
POINT
  5
65
100
AcDbEntity
100
AcDbPoint
  8
0
 62
1
420
16711680
370
-1
  6
ByLayer
 10
13.1064534608305507
 20
31.9938915932003702
 30
0.0
  0
POINT
  5
66
100
AcDbEntity
100
AcDbPoint
  8
0
 62
1
420
16711680
370
-1
  6
ByLayer
 10
20.6431742814557388
 20
31.9938915932003702
 30
0.0
  0
POINT
  5
67
100
AcDbEntity
100
AcDbPoint
  8
0
 62
1
420
16711680
370
-1
  6
ByLayer
 10
22.4678542688572485
 20
31.9938915932003702
 30
0.0
  0
POINT
  5
68
100
AcDbEntity
100
AcDbPoint
  8
0
 62
1
420
16711680
370
-1
  6
ByLayer
 10
34.228878537655703
 20
27.0748292844973193
 30
0.0
  0
POINT
  5
69
100
AcDbEntity
100
AcDbPoint
  8
0
 62
1
420
16711680
370
-1
  6
ByLayer
 10
31.7736274352563406
 20
27.0748292844973193
 30
0.0
  0
POINT
  5
6A
100
AcDbEntity
100
AcDbPoint
  8
0
 62
1
420
16711680
370
-1
  6
ByLayer
 10
32.3946378607363883
 20
23.4304674705346088
 30
0.0
  0
POINT
  5
6B
100
AcDbEntity
100
AcDbPoint
  8
0
 62
1
420
16711680
370
-1
  6
ByLayer
 10
31.1875410901503187
 20
22.2460175474679716
 30
0.0
  0
POINT
  5
6C
100
AcDbEntity
100
AcDbPoint
  8
0
 62
1
420
16711680
370
-1
  6
ByLayer
 10
33.6125123219369399
 20
22.2352499475174703
 30
0.0
  0
POINT
  5
6D
100
AcDbEntity
100
AcDbPoint
  8
0
 62
1
420
16711680
370
-1
  6
ByLayer
 10
12.5339458748067596
 20
6.729256978921824
 30
0.0
  0
POINT
  5
6E
100
AcDbEntity
100
AcDbPoint
  8
0
 62
1
420
16711680
370
-1
  6
ByLayer
 10
10.6074775746191605
 20
29.4989826690806396
 30
0.0
  0
POINT
  5
6F
100
AcDbEntity
100
AcDbPoint
  8
0
 62
1
420
16711680
370
-1
  6
ByLayer
 10
33.0381346638585001
 20
28.2960605260234708
 30
0.0
  0
CIRCLE
  5
70
100
AcDbEntity
100
AcDbCircle
  8
DP0000.1000NP001F1000.0000
 62
7
420
16777215
370
-1
  6
ByLayer
 10
3.2001142255793411
 20
16.6567241015387992
 30
0.0
 40
1.301223498955437
  0
CIRCLE
  5
71
100
AcDbEntity
100
AcDbCircle
  8
DP0000.1000NP001F1000.0000
 62
7
420
16777215
370
-1
  6
ByLayer
 10
5.6842683594768451
 20
6.729256978921824
 30
0.0
 40
1.301223498955437
  0
CIRCLE
  5
72
100
AcDbEntity
100
AcDbCircle
  8
DP0000.1000NP001F1000.0000
 62
7
420
16777215
370
-1
  6
ByLayer
 10
31.8861780881230104
 20
1.7655234968926541
 30
0.0
 40
1.301223498955437
  0
CIRCLE
  5
73
100
AcDbEntity
100
AcDbCircle
  8
DP0000.1000NP001F1000.0000
 62
7
420
16777215
370
-1
  6
ByLayer
 10
36.8165051034387716
 20
6.7239414573651572
 30
0.0
 40
1.301223498955437
  0
CIRCLE
  5
74
100
AcDbEntity
100
AcDbCircle
  8
DP0000.1000NP001F1000.0000
 62
7
420
16777215
370
-1
  6
ByLayer
 10
19.3942890487846817
 20
14.1563302012879095
 30
0.0
 40
1.301223498955437
  0
CIRCLE
  5
75
100
AcDbEntity
100
AcDbCircle
  8
DP0000.1000NP001F1000.0000
 62
7
420
16777215
370
-1
  6
ByLayer
 10
12.5339458748067596
 20
6.729256978921824
 30
0.0
 40
1.301223498955437
  0
LWPOLYLINE
  5
76
  8
DP0000.1000NP001F1000.0000
 62
7
420
16777215
370
-1
  6
ByLayer
100
AcDbEntity
100
AcDbPolyline
 90
29
 70
1
 10
8.5234416069429546
 20
21.5202972791712206
 10
8.5267809020348437
 20
17.889149345738641
 42
-0.7163602870210123
 10
8.5290469325289955
 20
15.4250688378749761
 10
8.5297872306466243
 20
14.6200690082750597
 10
15.8246365857264504
 20
14.6200690082750508
 10
15.8246365857264504
 20
15.6117088364836505
 10
17.4004249213583897
 20
17.0787050763544102
 10
27.0019278758895283
 20
17.0787050763544102
 42
-3.0703345419060231
 10
28.4659617269651406
 20
16.6252848720906812
 10
28.4659617269651406
 20
14.5957557167548995
 10
30.6549075675143285
 20
14.5957557167549101
 42
-6.0168766640146423
 10
30.6549075675143285
 20
13.7539588307690899
 10
27.6241648409793292
 20
13.7539588307690899
 10
27.6241648409793292
 20
16.2369081903685917
 10
17.7316129218687983
 20
16.2369081903685917
 10
16.66643347171226
 20
15.2452685057528505
 10
16.66643347171226
 20
13.7782721222892306
 10
7.6887641263200868
 20
13.7782721222892395
 10
7.6872489815505602
 20
15.4258398416224392
 42
-0.7135864647459125
 10
7.6849857929576384
 20
17.8868300674110117
 10
7.6816450769151361
 20
21.5195231418811304
 42
-0.568415190567325
 10
7.6809955138577211
 20
22.9321925750085818
 10
7.6809955138577211
 20
22.9927721057844217
 10
5.5082906667437381
 20
22.9927721057844217
 10
4.5961916851297744
 20
23.8601213079622987
 42
-3.6308199468732383
 10
5.1762793935748714
 20
24.4701379042663199
 10
5.8446396761203161
 20
23.8345689917702401
 10
8.5227923998435404
 20
23.8345689917702401
 10
8.5227923998435404
 20
22.9321925750085818
 42
-0.5678069735387026
  0
LWPOLYLINE
  5
77
  8
DP0000.1000NP001F1000.0000
 62
7
420
16777215
370
-1
  6
ByLayer
100
AcDbEntity
100
AcDbPolyline
 90
34
 70
1
 10
23.3728454165378992
 20
26.2063837177244707
 10
23.3722436006277192
 20
22.9601639923042491
 42
-0.2123084852118158
 10
23.8461320013782583
 20
22.4893416225141713
 10
30.580339048373169
 20
22.5343019310565396
 42
-1.4073752485122988
 10
31.4841410506138004
 20
21.6428337704874778
 10
31.5088084244269098
 20
18.1508337343966488
 10
34.6581774923134773
 20
18.1508337343966488
 10
34.6581774923134773
 20
12.0275023813396995
 10
38.3566966092220625
 20
12.0275023813396995
 10
38.3566966092220483
 20
34.7658741158616635
 10
32.7843340538845993
 20
34.7658741158616635
 10
32.7843340538845993
 20
33.2732462508941182
 42
-8.7885901530262824
 10
32.1996704608904381
 20
33.2732462508941182
 10
32.1996704608904381
 20
34.7658741158616635
 10
2.2288850018169342
 20
34.7658741158616493
 10
2.2288850018169342
 20
22.5183830399667713
 10
3.6061916685788038
 20
22.5183830399667713
 42
-5.4403817475876242
 10
3.6061916685788042
 20
21.93371944697261
 10
1.644221408822772
 20
21.93371944697261
 10
1.644221408822772
 20
35.3505377088558177
 10
38.9413602022162166
 20
35.3505377088558177
 10
38.9413602022162308
 20
11.44283878834554
 10
34.0735138993193232
 20
11.4428387883455294
 10
34.0735138993193232
 20
17.5661701414025089
 10
30.9282602888253706
 20
17.5661701414024911
 10
30.8994920443231003
 20
21.6387038290674987
 42
-0.1694189974897201
 10
30.5842424136119497
 20
21.9496513681450907
 10
23.850035366617039
 20
21.9046910596027296
 42
-1.5506840266566637
 10
22.7875800176808205
 20
22.9602723829481583
 10
22.7886607950149802
 20
28.7900296918455609
 42
-5.4403817475876384
 10
23.3733243779619535
 20
28.7899213012014847
 10
23.3729538071818084
 20
26.7910473006713694
 10
24.8430186964879915
 20
26.7907747656878499
 42
-5.4403817475876384
 10
24.8429103058440788
 20
26.2061111827409512
  0
LWPOLYLINE
  5
78
  8
DP0000.1000NP001F1000.0000
 62
7
420
16777215
370
-1
  6
ByLayer
100
AcDbEntity
100
AcDbPolyline
 90
14
 70
1
 10
36.4985425702615629
 20
21.9360603869749298
 10
34.2170799108057935
 20
21.9414809296672395
 42
-4.369781868495366
 10
34.2184690131031317
 20
22.5261428724749209
 10
36.4999316725589082
 20
22.5207223297826111
 10
36.5100572532228682
 20
26.7824974880002387
 10
34.8341423860029806
 20
26.7824974880002387
 42
-4.3697818684953882
 10
34.8341423860029806
 20
27.3671610809943999
 10
37.096111602626209
 20
27.3671610809943999
 10
37.0752776288602988
 20
18.5983097144234115
 42
-0.6735179607934475
 10
37.0717495505629984
 20
17.1133700410703362
 10
37.0664624918687124
 20
14.8880897187738501
 42
-5.2926626819448934
 10
36.4818005490610204
 20
14.889478821071215
 10
36.487071176220681
 20
17.1078432430894907
 42
-0.6908508347436658
 10
36.4906321175872392
 20
18.6066147169989513
  0
LWPOLYLINE
  5
79
  8
DP0000.1000NP001F1000.0000
 62
7
420
16777215
370
-1
  6
ByLayer
100
AcDbEntity
100
AcDbPolyline
 90
8
 70
1
 10
32.0146059053980068
 20
23.9848842075484292
 10
32.015557438379318
 20
24.9229519629886589
 10
31.3930333007634701
 20
24.9229519629886589
 10
31.3930333007634701
 20
26.5207983195242392
 42
-3.2217871727773559
 10
32.1542215697492111
 20
26.5207983195242392
 10
32.1542215697492111
 20
25.6841402319743892
 10
32.7775182134925203
 20
25.6841402319743892
 10
32.7757937827852288
 20
23.9841120934169005
 42
-3.2217871727773431
  0
LWPOLYLINE
  5
7A
  8
DP0000.1000NP001F1000.0000
 62
7
420
16777215
370
-1
  6
ByLayer
100
AcDbEntity
100
AcDbPolyline
 90
14
 70
1
 10
18.8101066516075406
 20
29.9291141188071208
 10
19.9085742595972484
 20
29.9204041249782193
 42
-4.074473903129693
 10
19.9025388183459384
 20
29.1592397837940105
 10
18.80407121035622
 20
29.1679497776229084
 42
-0.1508779683593125
 10
18.4599098279296001
 20
28.8261033347352509
 10
18.4668782405999998
 20
22.9209911175319583
 42
-4.074473903129693
 10
17.7056905016108601
 20
22.920092866983925
 10
17.7026468785952105
 20
25.4992936554830791
 10
13.5093093704173803
 20
25.4943452471974403
 10
13.5093093704173803
 20
22.9547069812574307
 42
-4.0744739031296815
 10
12.74812110143165
 20
22.9547069812574307
 10
12.74812110143165
 20
26.2546357950066991
 10
17.7017486280472411
 20
26.2604813944722615
 10
17.6987220889404284
 20
28.8252050841872816
 42
-1.3683758669296751
  0
LWPOLYLINE
  5
7B
  8
DP0000.1000NP001F1000.0000
 62
7
420
16777215
370
-1
  6
ByLayer
100
AcDbEntity
100
AcDbPolyline
 90
8
 70
1
 10
15.2233867779146408
 20
30.229604739098491
 10
15.2403360045039395
 20
33.4938683318120169
 10
8.5164305454734404
 20
33.4938683318120169
 10
8.5164305454734404
 20
30.30171927052303
 42
-4.0744739031296779
 10
7.7552422764877056
 20
30.30171927052303
 10
7.7552422764877056
 20
34.2550566007977508
 10
16.0054868967881099
 20
34.2550566007977508
 10
15.9845647860669295
 20
30.2256524300497382
 42
-4.0744739031296859
  0
LWPOLYLINE
  5
7C
  8
DP0000.1000NP001F1000.0000
 62
7
420
16777215
370
-1
  6
ByLayer
100
AcDbEntity
100
AcDbPolyline
 90
4
 70
1
 10
12.7415186564434109
 20
30.2242389409129011
 10
12.7323278884960693
 20
31.2618935497967207
 42
-4.0744739031296815
 10
13.4934863012838306
 20
31.2686353213681052
 10
13.5026770692311704
 20
30.2309807124842891
 42
-4.0744739031296469
  0
LWPOLYLINE
  5
7D
  8
DP0000.1000NP001F1000.0000
 62
7
420
16777215
370
-1
  6
ByLayer
100
AcDbEntity
100
AcDbPolyline
 90
8
 70
1
 10
10.2259592615820996
 20
28.7708103980906493
 10
10.2242841751236693
 20
27.4505504207181303
 10
5.0694652666420721
 20
27.4570906230246692
 42
4.0744739031296344
 10
5.0684995059909177
 20
26.6959029666955203
 10
10.2233184144725193
 20
26.6893627643889815
 10
10.2185373167992708
 20
22.9210247934563398
 42
4.0744739031296975
 10
10.9797249731284126
 20
22.9200590328051845
 10
10.9871469179112502
 20
28.7698446374395012
 42
4.0744739031296779
  0
LWPOLYLINE
  5
7E
  8
DP0000.1000NP001F1000.0000
 62
7
420
16777215
370
-1
  6
ByLayer
100
AcDbEntity
100
AcDbPolyline
 90
6
 70
1
 10
17.6363078259423602
 20
20.3616003010494602
 10
16.0056218043505396
 20
21.1662130199616598
 10
16.0056218043505396
 20
21.5315601309293498
 42
4.074473903129693
 10
15.2444335353648004
 20
21.5315601309293498
 10
15.2444335353648004
 20
20.6929921811869306
 10
17.2994922352182208
 20
19.6789855937023006
 42
4.074473903129654
  0
LWPOLYLINE
  5
7F
  8
DP0000.1000NP001F1000.0000
 62
7
420
16777215
370
-1
  6
ByLayer
100
AcDbEntity
100
AcDbPolyline
 90
12
 70
1
 10
20.2028625306386402
 20
20.4417836985238495
 10
20.2028625306386402
 20
21.4973955056819506
 42
-4.0744739031296815
 10
20.9640507996243706
 20
21.4973955056819506
 10
20.9640507996243706
 20
20.4775568144876097
 42
-0.6380343626370367
 10
20.9640507996243706
 20
18.986517565978037
 10
20.9640507996243706
 20
17.5559054502884315
 10
16.0878819232868011
 20
17.5559054502884315
 10
13.8344593064152104
 20
16.7096689011597093
 42
-6.688339730043344
 10
13.5668547501974395
 20
17.4222665311957492
 10
15.9496681915261096
 20
18.3170937192741583
 10
20.2028625306386402
 20
18.3170937192741583
 10
20.2028625306386402
 20
19.0222906819418007
 42
-0.5738314309928406
  0
LWPOLYLINE
  5
80
  8
DP0000.1000NP001F1000.0000
 62
7
420
16777215
370
-1
  6
ByLayer
100
AcDbEntity
100
AcDbPolyline
 90
18
 70
0
 10
28.4609722641835106
 20
29.9020525368960293
 10
33.4187287983513599
 20
29.9020525368960293
 10
33.4187287983513599
 20
28.8500914909965509
 42
-3.2217871727773559
 10
32.6575405293656331
 20
28.8500914909965509
 10
32.6575405293656331
 20
29.1408642679102989
 10
28.4609722641835106
 20
29.1408642679102989
 10
28.4609722641835106
 20
27.2089735593873492
 42
-4.0744739031296815
 10
27.6997839951977696
 20
27.2089735593873492
 10
27.6997839951977696
 20
31.6132974587075317
 10
23.1965100066449885
 20
31.6132974587075211
 42
-0.6058704728451869
 10
21.7391985310695119
 20
31.6132974587075104
 10
21.3718300192434789
 20
31.6132974587075104
 42
-4.074473903129717
 10
21.3718300192434789
 20
32.3744857276932407
 10
21.7391985310695084
 20
32.3744857276932407
 42
-0.60587047284517
 10
23.1965100066449885
 20
32.3744857276932407
 10
28.4609722641835106
 20
32.3744857276932692
 10
28.4609722641835106
 20
29.9020525368960293
 10
28.4609722641835106
 20
32.3744857276932692
  0
CIRCLE
  5
81
100
AcDbEntity
100
AcDbCircle
  8
DP0001.5000NP002F0800.0000
 62
1
420
16711680
370
-1
  6
ByLayer
 10
5.6508580571873486
 20
11.68986343861215
 30
0.0
 40
1.6076491041536329
  0
ENDSEC
  0
SECTION
  2
OBJECTS
  0
DICTIONARY
  5
C
100
AcDbDictionary
280
0
281
1
  3
ACAD_GROUP
350
D
  3
ACAD_LAYOUT
350
1A
  3
ACAD_MLINESTYLE
350
17
  3
ACAD_PLOTSETTINGS
350
19
  3
ACAD_PLOTSTYLENAME
350
E
  3
AcDbVariableDictionary
350
82
  0
DICTIONARY
  5
D
100
AcDbDictionary
280
0
281
1
  0
ACDBDICTIONARYWDFLT
  5
E
100
AcDbDictionary
281
1
  3
Normal
350
F
100
AcDbDictionaryWithDefault
340
F
  0
ACDBPLACEHOLDER
  5
F
  0
DICTIONARY
  5
17
100
AcDbDictionary
280
0
281
1
  3
Standard
350
18
  0
MLINESTYLE
  5
18
100
AcDbMlineStyle
  2
STANDARD
 70
0
  3

 62
256
 51
90.0
 52
90.0
 71
2
 49
0.5
 62
256
  6
BYLAYER
 49
-0.5
 62
256
  6
BYLAYER
  0
DICTIONARY
  5
19
100
AcDbDictionary
280
0
281
1
  0
DICTIONARY
  5
1A
100
AcDbDictionary
281
1
  3
Layout1
350
1E
  3
Layout2
350
26
  3
Model
350
22
  0
LAYOUT
  5
1E
100
AcDbPlotSettings
  1

  2
C:\Program Files\AutoCAD 2002\plotters\DWF ePlot (optimized for plotting).pc3
  4

  6

 40
0.0
 41
0.0
 42
0.0
 43
0.0
 44
0.0
 45
0.0
 46
0.0
 47
0.0
 48
0.0
 49
0.0
140
0.0
141
0.0
142
1.0
143
1.0
 70
688
 72
0
 73
0
 74
5
  7

 75
16
147
1.0
148
0.0
149
0.0
100
AcDbLayout
  1
Layout1
 70
1
 71
1
 10
0.0
 20
0.0
 11
420.0
 21
297.0
 12
0.0
 22
0.0
 32
0.0
 14
100000000000000000000.0
 24
100000000000000000000.0
 34
100000000000000000000.0
 15
-100000000000000000000.0
 25
-100000000000000000000.0
 35
-100000000000000000000.0
146
0.0
 13
0.0
 23
0.0
 33
0.0
 16
1.0
 26
0.0
 36
0.0
 17
0.0
 27
1.0
 37
0.0
 76
0
330
1B
  0
LAYOUT
  5
22
100
AcDbPlotSettings
  1

  2
C:\Program Files\AutoCAD 2002\plotters\DWF ePlot (optimized for plotting).pc3
  4

  6

 40
0.0
 41
0.0
 42
0.0
 43
0.0
 44
0.0
 45
0.0
 46
0.0
 47
0.0
 48
0.0
 49
0.0
140
0.0
141
0.0
142
1.0
143
1.0
 70
1712
 72
0
 73
0
 74
0
  7

 75
0
147
1.0
148
0.0
149
0.0
100
AcDbLayout
  1
Model
 70
1
 71
0
 10
0.0
 20
0.0
 11
12.0
 21
9.0
 12
0.0
 22
0.0
 32
0.0
 14
0.0
 24
0.0
 34
0.0
 15
0.0
 25
0.0
 35
0.0
146
0.0
 13
0.0
 23
0.0
 33
0.0
 16
1.0
 26
0.0
 36
0.0
 17
0.0
 27
1.0
 37
0.0
 76
0
330
1F
  0
LAYOUT
  5
26
100
AcDbPlotSettings
  1

  2
C:\Program Files\AutoCAD 2002\plotters\DWF ePlot (optimized for plotting).pc3
  4

  6

 40
0.0
 41
0.0
 42
0.0
 43
0.0
 44
0.0
 45
0.0
 46
0.0
 47
0.0
 48
0.0
 49
0.0
140
0.0
141
0.0
142
1.0
143
1.0
 70
688
 72
0
 73
0
 74
5
  7

 75
16
147
1.0
148
0.0
149
0.0
100
AcDbLayout
  1
Layout2
 70
1
 71
2
 10
0.0
 20
0.0
 11
12.0
 21
9.0
 12
0.0
 22
0.0
 32
0.0
 14
0.0
 24
0.0
 34
0.0
 15
0.0
 25
0.0
 35
0.0
146
0.0
 13
0.0
 23
0.0
 33
0.0
 16
1.0
 26
0.0
 36
0.0
 17
0.0
 27
1.0
 37
0.0
 76
0
330
23
  0
DICTIONARY
  5
82
100
AcDbDictionary
281
1
  3
DIMASSOC
350
84
  3
HIDETEXT
350
83
  0
DICTIONARYVAR
  5
83
100
DictionaryVariables
280
0
  1
2
  0
DICTIONARYVAR
  5
84
100
DictionaryVariables
280
0
  1
1
  0
ENDSEC
  0
EOF
